<svg width="199" height="136" viewBox="0 0 199 136" fill="none" xmlns="http://www.w3.org/2000/svg">
<path d="M127.284 8.25269C102.891 2.37419 77.6833 -2.99006 52.904 3.51706C46.0947 5.30488 37.8527 5.5344 31.7141 8.51411C25.0697 11.7397 19.3278 16.5041 14.9053 22.0729C6.37403 32.8123 1.31294 47.5101 0.531453 60.7741C0.530608 60.792 0.529762 60.8099 0.52807 60.8286C0.101803 68.3214 2.8717 75.6571 6.20995 82.5042C9.58287 89.4236 13.7644 96.2909 20.3064 100.905C30.7322 108.258 43.8255 107.664 55.695 111.292C67.1002 114.779 73.7438 123.778 83.6418 129.473C96.4687 136.852 112.651 136.315 126.603 132.765C140.631 129.196 153.612 124.967 162.105 113.198C168.586 104.216 170.663 93.491 177.357 84.6117C183.119 76.9703 192.123 70.9417 196.314 62.6623C202.19 51.0562 197.338 37.8615 191.641 26.1978C190.955 24.7951 190.231 23.3605 188.956 22.2573C185.007 18.8412 182.709 16.0217 176.795 15.3223C168.581 14.3506 160.233 14.6602 152.024 13.6535C143.616 12.6227 135.49 10.2303 127.284 8.25269Z" fill="#3AAA8F"/>
</svg>
