<svg width="160" height="102" viewBox="0 0 160 102" fill="none" xmlns="http://www.w3.org/2000/svg">
<path d="M101.748 96.0676C82.2319 100.506 62.0631 104.557 42.2374 99.6434C36.7893 98.2934 30.195 98.1201 25.2835 95.8702C19.9675 93.4347 15.3734 89.8372 11.835 85.6322C5.00918 77.5231 0.959854 66.4251 0.334591 56.4097C0.333914 56.3962 0.333237 56.3827 0.331884 56.3686C-0.00916867 50.7109 2.207 45.1718 4.8779 40.0017C7.57655 34.777 10.9221 29.5916 16.1563 26.1075C24.4979 20.5555 34.9738 21.0043 44.4705 18.2645C53.5957 15.6315 58.9111 8.83654 66.8304 4.53643C77.0931 -1.0355 90.0403 -0.629571 101.204 2.05095C112.427 4.74556 122.813 7.93892 129.608 16.8252C134.793 23.6073 136.455 31.7058 141.811 38.4103C146.421 44.1802 153.625 48.7324 156.979 54.984C161.68 63.7475 157.797 73.7106 153.239 82.5176C152.691 83.5767 152.111 84.66 151.091 85.493C147.932 88.0725 146.093 90.2014 141.361 90.7295C134.789 91.4632 128.11 91.2294 121.542 91.9896C114.815 92.7679 108.314 94.5743 101.748 96.0676Z" fill="#3AAA8F"/>
</svg>
