<svg width="158" height="102" viewBox="0 0 158 102" fill="none" xmlns="http://www.w3.org/2000/svg">
<path d="M101.598 95.8108C82.3406 100.235 62.4311 104.273 42.7151 99.3752C37.2972 98.0296 30.7632 97.8568 25.8621 95.614C20.5572 93.1862 15.9485 89.6001 12.3754 85.4085C5.48271 77.325 1.29118 66.2622 0.508574 56.2785C0.507683 56.2651 0.506793 56.2516 0.505222 56.2375C0.0751698 50.5978 2.17978 45.0763 4.74079 39.9226C7.32838 34.7144 10.5573 29.5454 15.6846 26.0723C23.8557 20.538 34.2386 20.9853 43.5997 18.2542C52.5945 15.6296 57.7482 8.85613 65.5216 4.56965C75.5951 -0.984621 88.4249 -0.579982 99.525 2.09204C110.685 4.77812 121.024 7.96136 127.898 16.8195C133.145 23.5801 134.923 31.6529 140.337 38.3362C144.996 44.0878 152.206 48.6255 155.629 54.8573C160.428 63.5931 156.745 73.5246 152.374 82.3037C151.849 83.3595 151.292 84.4393 150.296 85.2697C147.209 87.841 145.422 89.9631 140.744 90.4896C134.247 91.221 127.628 90.9879 121.136 91.7457C114.486 92.5216 108.076 94.3222 101.598 95.8108Z" fill="#3AAA8F"/>
</svg>
