<svg width="154" height="120" viewBox="0 0 154 120" fill="none" xmlns="http://www.w3.org/2000/svg">
<path d="M98.2812 112.464C79.5106 117.646 60.1126 122.373 41.0445 116.638C35.8047 115.063 29.4623 114.86 24.7386 112.234C19.6256 109.391 15.2071 105.192 11.8039 100.284C5.23901 90.8183 1.34444 77.864 0.743071 66.1736C0.74242 66.1578 0.741769 66.142 0.740468 66.1256C0.412449 59.5216 2.54392 53.0561 5.11275 47.0213C7.70827 40.9227 10.926 34.87 15.9602 30.8031C23.983 24.3226 34.0585 24.8465 43.1922 21.6484C51.9687 18.5751 57.081 10.6436 64.6977 5.62426C74.5682 -0.879593 87.0205 -0.405774 97.7573 2.72307C108.552 5.86837 118.541 9.59583 125.076 19.9684C130.063 27.8848 131.662 37.3378 136.813 45.1637C141.246 51.8987 148.175 57.2122 151.401 64.5094C155.922 74.7386 152.188 86.3681 147.804 96.6481C147.277 97.8844 146.719 99.1488 145.739 100.121C142.7 103.132 140.931 105.617 136.38 106.233C130.059 107.09 123.636 106.817 117.319 107.704C110.849 108.613 104.596 110.721 98.2812 112.464Z" fill="#3AAA8F"/>
</svg>
