<svg width="480" height="355" viewBox="0 0 480 355" fill="none" xmlns="http://www.w3.org/2000/svg">
<path d="M306.196 334.583C247.292 350.066 186.42 364.195 126.582 347.056C110.139 342.347 90.2365 341.742 75.413 333.894C59.3682 325.399 45.5026 312.85 34.8231 298.182C14.2217 269.896 2.00024 231.184 0.113095 196.248C0.111053 196.201 0.109011 196.154 0.104926 196.105C-0.924425 176.37 5.76432 157.049 13.8255 139.014C21.9705 120.789 32.0679 102.702 47.8656 90.5483C73.0418 71.1821 104.66 72.7476 133.322 63.1905C160.863 54.0063 176.906 30.3041 200.808 15.3045C231.783 -4.13149 270.859 -2.71555 304.552 6.63461C338.427 16.0339 369.773 27.173 390.28 58.1701C405.931 81.8273 410.947 110.076 427.112 133.463C441.025 153.59 462.768 169.468 472.89 191.275C487.078 221.844 475.361 256.597 461.604 287.318C459.949 291.012 458.199 294.791 455.121 297.696C445.585 306.694 440.036 314.12 425.754 315.962C405.919 318.522 385.76 317.706 365.937 320.358C345.634 323.073 326.011 329.374 306.196 334.583Z" fill="#89CBE8"/>
</svg>
