<svg width="22" height="16" viewBox="0 0 22 16" fill="none" xmlns="http://www.w3.org/2000/svg">
<g clip-path="url(#clip0)">
<path d="M0.75354 8.29006L5.01923 6.13086L3.79498 4.25012C3.52624 3.83928 3.62009 3.27323 4.00826 2.98564C4.39218 2.69805 4.92112 2.79848 5.18986 3.21388L6.6018 5.38221L10.4239 3.43756L9.11429 1.429C8.84556 1.01816 8.9394 0.452114 9.32758 0.164525C9.71149 -0.123064 10.2404 -0.0226364 10.5092 0.39277L12.0064 2.69348L16.4129 0.488633C16.7883 0.301472 17.2319 0.429289 17.4708 0.794482L17.7011 1.14598C17.9997 1.60704 17.8419 2.24612 17.3684 2.48806L13.2392 4.58792L15.4062 7.9203L19.8127 5.71545C20.188 5.52829 20.6317 5.65611 20.8705 6.0213L21.1137 6.39106C21.4123 6.85211 21.2545 7.4912 20.781 7.73314L16.6518 9.833L17.876 11.7137C18.1448 12.1246 18.0509 12.6906 17.6627 12.9782C17.2788 13.2658 16.7499 13.1654 16.4811 12.75L15.0692 10.5816L11.2685 12.5582L12.578 14.5668C12.8468 14.9776 12.7529 15.5437 12.3648 15.8313C11.9808 16.1189 11.4519 16.0184 11.1832 15.603L9.6859 13.3023L5.16427 15.5893C4.78888 15.7811 4.34099 15.6533 4.10637 15.2881L3.83764 14.8772C3.53904 14.4162 3.69687 13.7771 4.17036 13.5351L8.43605 11.3759L6.26481 8.04356L1.74318 10.3306C1.37207 10.5314 0.924168 10.4036 0.685289 10.043L0.416551 9.63214C0.117952 9.17109 0.280049 8.532 0.75354 8.29006ZM10.0186 10.6364L13.8407 8.69177L11.6737 5.35939L7.85165 7.30404L10.0186 10.6364Z" fill="#F7CC7F"/>
</g>
<defs>
<clipPath id="clip0">
<rect width="21" height="16" fill="white" transform="translate(0.268066)"/>
</clipPath>
</defs>
</svg>
