<svg width="42" height="30" viewBox="0 0 42 30" fill="none" xmlns="http://www.w3.org/2000/svg">
<g clip-path="url(#clip0)">
<path d="M1.62014 15.396L9.89971 11.3889L7.52347 7.89859C7.00186 7.13614 7.18401 6.08565 7.93745 5.55193C8.68261 5.01821 9.70928 5.20459 10.2309 5.97552L12.9714 9.99957L20.3899 6.39063L17.8481 2.66308C17.3265 1.90063 17.5086 0.850139 18.2621 0.316422C19.0072 -0.217295 20.0339 -0.0309177 20.5555 0.740007L23.4616 5.00974L32.0144 0.917912C32.743 0.570573 33.6041 0.80778 34.0678 1.48552L34.5149 2.13784C35.0944 2.99348 34.7881 4.17952 33.8691 4.62852L25.8544 8.5255L30.0605 14.7098L38.6132 10.618C39.3418 10.2707 40.2029 10.5079 40.6666 11.1856L41.1385 11.8718C41.7181 12.7275 41.4117 13.9135 40.4927 14.3625L32.4781 18.2595L34.8543 21.7498C35.3759 22.5123 35.1938 23.5628 34.4403 24.0965C33.6952 24.6302 32.6685 24.4438 32.1469 23.6729L29.4064 19.6488L22.0293 23.3171L24.5711 27.0446C25.0927 27.8071 24.9106 28.8576 24.1571 29.3913C23.412 29.925 22.3853 29.7386 21.8637 28.9677L18.9576 24.698L10.1812 28.9423C9.45261 29.2981 8.58325 29.0609 8.12788 28.3832L7.60627 27.6207C7.0267 26.7651 7.33304 25.579 8.25207 25.13L16.5316 21.1229L12.3173 14.9386L3.541 19.1829C2.82068 19.5556 1.95132 19.3184 1.48767 18.6492L0.966052 17.8867C0.386483 17.0311 0.701106 15.845 1.62014 15.396ZM19.6034 19.7505L27.0219 16.1416L22.8158 9.95721L15.3973 13.5662L19.6034 19.7505Z" fill="#F7CC7F"/>
</g>
<defs>
<clipPath id="clip0">
<rect width="40.7603" height="29.6933" fill="white" transform="translate(0.676758 0.0112305)"/>
</clipPath>
</defs>
</svg>
