<svg width="443" height="329" viewBox="0 0 443 329" fill="none" xmlns="http://www.w3.org/2000/svg">
<g clip-path="url(#clip0)">
<path d="M271.457 310.361C219.789 323.95 166.395 336.35 113.908 321.308C99.4849 317.175 82.027 316.645 69.0245 309.757C54.9507 302.301 42.7884 291.287 33.4208 278.414C15.3502 253.588 4.63001 219.612 2.97469 188.95C2.9729 188.909 2.97111 188.868 2.96752 188.824C2.06462 171.504 7.93169 154.546 15.0026 138.718C22.147 122.723 31.0041 106.848 44.8611 96.1813C66.9446 79.1843 94.6784 80.5583 119.82 72.1703C143.978 64.1097 158.05 43.3072 179.015 30.1426C206.185 13.0844 240.461 14.3271 270.015 22.5334C299.728 30.7828 327.224 40.5592 345.212 67.7642C358.94 88.5272 363.34 113.32 377.52 133.846C389.723 151.51 408.795 165.446 417.674 184.585C430.119 211.415 419.841 241.916 407.774 268.878C406.323 272.121 404.788 275.437 402.088 277.987C393.723 285.884 388.856 292.402 376.328 294.019C358.929 296.265 341.248 295.549 323.86 297.876C306.051 300.259 288.838 305.79 271.457 310.361Z" fill="#6BE6C8"/>
<g opacity="0.9" clip-path="url(#clip1)">
<g clip-path="url(#clip2)">
<path d="M70.8468 119.344C69.7341 123.297 65.2522 125.59 61.5025 124.896C57.6221 124.176 55.3221 120.49 55.3964 116.538C55.5406 108.743 64.8118 106.069 67.1476 111.706C69.3309 116.968 65.9872 122.287 62.0407 120.793C60.5527 120.228 58.6498 118.021 60.3145 116.508C60.687 116.167 61.2766 116.425 61.3488 116.9C61.5056 117.928 61.4559 117.948 61.6097 118.221C61.8523 118.654 62.3057 118.938 62.7545 119.098C66.7963 120.551 67.756 109.98 62.1436 110.496C59.0607 110.781 57.1286 113.565 57.0088 116.59C56.8976 119.507 58.4629 122.393 61.2304 123.235C64.5283 124.244 68.4014 122.187 69.8632 118.966C70.1544 118.322 71.0342 118.666 70.8468 119.344Z" fill="#357A89"/>
</g>
</g>
<g clip-path="url(#clip3)">
<path d="M52.7503 177.585C51.4771 186.36 57.2962 194.325 65.7475 195.381C74.1988 196.436 82.0817 190.179 83.3522 181.411C84.6254 172.636 78.8062 164.671 70.3549 163.615C61.9036 162.56 54.0208 168.817 52.7503 177.585Z" fill="#FFE8BF"/>
<path d="M75.8712 183.035C75.1937 187.728 70.9748 191.067 66.4557 190.502C61.9366 189.937 58.8201 185.679 59.5045 180.989L75.8712 183.035Z" fill="#6BE5C8"/>
</g>
<g clip-path="url(#clip4)">
<path d="M75.2431 144.899L86.424 137.463L92.5444 145.113L103.811 138.165L110.841 144.596L119.922 140.486L121.22 144.285L109.076 149.783L102.411 143.691L90.6905 150.912L84.6757 143.396L74.5402 150.132L75.2431 144.899Z" fill="#9BC1F9"/>
</g>
</g>
<defs>
<clipPath id="clip0">
<rect width="442.087" height="327.368" fill="white" transform="translate(0.711914 0.811768)"/>
</clipPath>
<clipPath id="clip1">
<rect width="61.5564" height="104.926" fill="white" transform="matrix(-1 0 0 1 68.9165 70.625)"/>
</clipPath>
<clipPath id="clip2">
<rect width="16" height="16" fill="white" transform="matrix(-0.93486 -0.355017 -0.355017 0.93486 73.4893 112.459)"/>
</clipPath>
<clipPath id="clip3">
<rect width="30.7782" height="32.1772" fill="white" transform="matrix(-0.93486 -0.355017 -0.355017 0.93486 88.1492 169.921)"/>
</clipPath>
<clipPath id="clip4">
<rect width="41.6993" height="29.2885" fill="white" transform="matrix(-0.762714 0.646736 0.616907 0.787036 104.161 120.378)"/>
</clipPath>
</defs>
</svg>
