<svg width="134" height="272" viewBox="0 0 134 272" fill="none" xmlns="http://www.w3.org/2000/svg">
<path d="M58.7632 269.077C64.7377 268.376 70.8997 269.322 76.3941 271.783C75.824 242.023 75.2502 212.259 74.6801 182.499C74.6239 179.552 61.5573 179.578 59.7458 180.106C58.2306 192.037 59.5095 205.272 59.3708 217.331C59.1645 234.583 58.9657 251.832 58.7632 269.077Z" fill="#754922"/>
<path d="M1.7674 187.386C2.90379 188.728 4.55775 189.523 6.2192 190.103C13.0488 192.504 20.5497 191.95 27.6756 190.703C34.8015 189.467 41.8636 187.563 49.0945 187.356C56.3442 187.141 62.3411 189.026 68.2294 193.111C73.7801 196.955 79.4508 194.226 85.9166 193.522C97.9143 192.21 109.875 198.651 121.797 196.785C126.939 195.99 132.422 192.847 133.187 187.673C133.251 187.224 133.281 186.765 133.262 186.312C133.217 183.313 131.575 180.415 129.429 178.27C126.958 175.806 123.841 174.099 120.931 172.177C108.431 163.939 99.0432 151.084 94.9102 136.658C94.6852 135.901 94.4826 135.139 94.2951 134.371C92.0186 125.1 91.3923 114.469 84.3601 108.047C79.9008 103.977 73.4838 102.477 67.513 103.276C62.6974 103.925 58.1481 105.929 54.0901 108.647C50.666 109.05 47.4856 110.165 45.1078 112.63C42.0961 115.743 41.1698 120.25 40.1647 124.471C38.1882 132.72 35.3678 140.762 31.7861 148.45C28.6507 155.218 24.9115 161.715 20.6285 167.828C20.1447 168.521 19.6496 169.214 19.1358 169.889C16.0379 173.978 12.355 177.728 7.52062 179.133C5.06781 179.846 2.04494 180.173 0.904797 182.472C0.105948 184.051 0.627263 186.049 1.7674 187.386Z" fill="#3793A0"/>
<path d="M14.6464 184.982C14.8114 184.982 14.9727 184.891 15.059 184.733L16.7317 181.617C16.8517 181.39 16.7692 181.104 16.5404 180.98C16.3154 180.859 16.0303 180.942 15.9066 181.172L14.2339 184.292C14.1138 184.518 14.1964 184.805 14.4251 184.925C14.4926 184.963 14.5714 184.982 14.6464 184.982Z" fill="#34998D"/>
<path d="M27.1281 187.88C27.3344 187.88 27.5219 187.74 27.5782 187.529L28.8383 182.751C28.9058 182.502 28.7558 182.242 28.5083 182.178C28.257 182.11 28.0057 182.261 27.9382 182.51L26.6781 187.292C26.6106 187.541 26.7606 187.797 27.0081 187.865C27.0494 187.876 27.0906 187.88 27.1281 187.88Z" fill="#34998D"/>
<path d="M31.5573 171.042C31.7148 171.042 31.8685 170.963 31.9586 170.816L34.5764 166.49C34.7114 166.267 34.6401 165.981 34.4189 165.845C34.1976 165.71 33.9088 165.781 33.7775 166.004L31.1597 170.33C31.0247 170.552 31.096 170.839 31.3172 170.974C31.3885 171.02 31.4747 171.042 31.5573 171.042Z" fill="#34998D"/>
<path d="M42.6699 172.749C42.9212 172.749 43.1312 172.546 43.135 172.29L43.3338 163.652C43.3413 163.392 43.135 163.177 42.8762 163.174C42.6362 163.192 42.4037 163.373 42.3999 163.633L42.2011 172.271C42.1936 172.531 42.3999 172.746 42.6587 172.749C42.6624 172.749 42.6662 172.749 42.6699 172.749Z" fill="#34998D"/>
<path d="M40.1945 159.311C40.4008 159.311 40.5883 159.175 40.6446 158.964L42.0698 153.797L42.3998 153.752C42.6548 153.718 42.8349 153.485 42.8011 153.228C42.7674 152.972 42.5311 152.776 42.2798 152.825L41.3122 152.95L39.7445 158.715C39.677 158.964 39.8232 159.224 40.0708 159.292C40.112 159.307 40.1533 159.311 40.1945 159.311Z" fill="#34998D"/>
<path d="M37.8055 183.064C37.9968 183.064 38.1806 182.943 38.2443 182.747L40.1533 177.23C40.2396 176.985 40.1083 176.718 39.8645 176.635C39.6207 176.552 39.3545 176.68 39.272 176.925L37.363 182.442C37.2767 182.687 37.408 182.955 37.6518 183.038C37.7043 183.056 37.7568 183.064 37.8055 183.064Z" fill="#34998D"/>
<path d="M20.8609 176.352C20.996 176.352 21.131 176.292 21.221 176.179L24.3264 172.342C24.4914 172.143 24.4576 171.845 24.2589 171.683C24.0563 171.521 23.7638 171.551 23.6025 171.751L20.4971 175.587C20.3321 175.787 20.3659 176.084 20.5647 176.247C20.6547 176.318 20.7597 176.352 20.8609 176.352Z" fill="#34998D"/>
<path d="M30.402 162.91C30.5483 162.91 30.6946 162.838 30.7846 162.71L32.4573 160.309C32.6036 160.098 32.5548 159.804 32.341 159.657C32.131 159.51 31.8385 159.559 31.6922 159.774L30.0195 162.175C29.8732 162.386 29.922 162.68 30.1357 162.827C30.2183 162.883 30.312 162.91 30.402 162.91Z" fill="#34998D"/>
<path d="M6.53424 186.904C6.76677 186.904 6.96929 186.731 6.99555 186.489C7.11931 185.449 7.76064 184.477 8.6645 183.949C8.88578 183.817 8.96454 183.531 8.83327 183.309C8.70201 183.083 8.42072 183.007 8.19569 183.139C7.0443 183.81 6.2267 185.05 6.06918 186.376C6.03918 186.633 6.2192 186.866 6.47798 186.896C6.49674 186.904 6.51549 186.904 6.53424 186.904Z" fill="#34998D"/>
<path d="M51.1758 178.745C51.187 178.745 51.1945 178.745 51.2058 178.745C51.4646 178.73 51.6596 178.508 51.6446 178.248L51.4046 174.407C51.3896 174.147 51.172 173.944 50.9095 173.97C50.6507 173.985 50.4595 174.208 50.4745 174.468L50.7145 178.304C50.7257 178.553 50.932 178.745 51.1758 178.745Z" fill="#34998D"/>
<path d="M67.5806 185.973C67.6406 185.973 67.7043 185.962 67.7643 185.936C68.0006 185.834 68.1094 185.559 68.0119 185.321C67.0142 182.977 66.3429 180.501 66.0129 177.969C65.9791 177.713 65.7466 177.517 65.4916 177.566C65.2365 177.6 65.0565 177.833 65.0902 178.089C65.4278 180.705 66.1216 183.264 67.153 185.687C67.2243 185.868 67.3968 185.973 67.5806 185.973Z" fill="#34998D"/>
<path d="M85.8189 188.811C85.8826 188.811 85.9501 188.796 86.0139 188.769C86.2502 188.66 86.3514 188.381 86.2427 188.148L83.6061 182.393C83.4973 182.156 83.2198 182.054 82.9873 182.163C82.751 182.273 82.6497 182.551 82.7585 182.785L85.3951 188.54C85.4738 188.713 85.6426 188.811 85.8189 188.811Z" fill="#34998D"/>
<path d="M105.07 184.074C105.164 184.074 105.258 184.047 105.336 183.991C105.546 183.84 105.599 183.55 105.453 183.339L102.407 178.979C102.261 178.768 101.968 178.715 101.758 178.866C101.548 179.013 101.496 179.307 101.646 179.518L104.691 183.878C104.781 184.002 104.924 184.074 105.07 184.074Z" fill="#34998D"/>
<path d="M121.377 185.943C121.471 185.943 121.564 185.917 121.643 185.86C121.853 185.713 121.906 185.419 121.759 185.208L120.087 182.808C119.937 182.593 119.648 182.544 119.438 182.691C119.228 182.838 119.175 183.132 119.322 183.343L120.994 185.743C121.084 185.871 121.231 185.943 121.377 185.943Z" fill="#34998D"/>
<path d="M113.468 192.195C113.531 192.195 113.595 192.184 113.655 192.154C113.891 192.048 113.996 191.773 113.891 191.536C113.205 189.979 112.976 188.197 113.254 186.512C113.295 186.256 113.123 186.015 112.867 185.973C112.612 185.932 112.372 186.105 112.331 186.361C112.027 188.223 112.275 190.194 113.036 191.916C113.119 192.09 113.291 192.195 113.468 192.195Z" fill="#34998D"/>
<path d="M98.4541 190.982C98.7128 190.982 98.9191 190.771 98.9191 190.514V186.674C98.9191 186.414 98.7091 186.207 98.4541 186.207C98.1953 186.207 97.989 186.418 97.989 186.674V190.514C97.989 190.771 98.1953 190.982 98.4541 190.982Z" fill="#34998D"/>
<path d="M98.233 174.894C98.3381 174.894 98.4431 174.86 98.5293 174.788C98.7281 174.622 98.7581 174.328 98.5968 174.129C97.7005 173.028 97.1004 171.705 96.8641 170.304C96.8229 170.051 96.5791 169.878 96.324 169.923C96.069 169.968 95.9002 170.209 95.9453 170.466C96.2115 172.026 96.8791 173.496 97.8767 174.724C97.963 174.833 98.098 174.894 98.233 174.894Z" fill="#34998D"/>
<path d="M108.243 175.387C108.389 175.387 108.535 175.316 108.625 175.187C108.772 174.973 108.719 174.683 108.509 174.536C107.073 173.533 105.888 172.18 105.074 170.624C104.954 170.394 104.672 170.307 104.444 170.428C104.215 170.548 104.129 170.831 104.249 171.061C105.13 172.749 106.42 174.215 107.977 175.304C108.059 175.357 108.153 175.387 108.243 175.387Z" fill="#34998D"/>
<path d="M86.9929 178.025C87.0642 178.025 87.1355 178.01 87.203 177.976C87.4318 177.859 87.5255 177.58 87.413 177.347C86.7154 175.937 86.4004 174.362 86.5054 172.791C86.5241 172.531 86.3291 172.308 86.0703 172.293C85.8265 172.274 85.5903 172.47 85.5753 172.73C85.459 174.471 85.804 176.213 86.5804 177.769C86.6592 177.931 86.8242 178.025 86.9929 178.025Z" fill="#34998D"/>
<path d="M73.3825 177.547C73.6413 177.547 73.8476 177.336 73.8476 177.079V170.36C73.8476 170.1 73.6376 169.893 73.3825 169.893C73.1238 169.893 72.9175 170.104 72.9175 170.36V177.079C72.9175 177.336 73.1275 177.547 73.3825 177.547Z" fill="#34998D"/>
<path d="M61.2049 172.267C61.4524 172.267 61.6587 172.071 61.6699 171.819C61.7674 169.716 62.2362 167.673 63.0651 165.744C63.1664 165.506 63.0576 165.231 62.8213 165.126C62.5813 165.024 62.3112 165.133 62.2062 165.371C61.3324 167.402 60.8373 169.557 60.7361 171.773C60.7248 172.033 60.9236 172.252 61.1786 172.263C61.1936 172.267 61.1974 172.267 61.2049 172.267Z" fill="#34998D"/>
<path d="M51.4423 169.388C51.6898 169.388 51.8999 169.192 51.9074 168.939C51.9974 166.769 52.545 164.59 53.4938 162.642C53.6063 162.408 53.5126 162.13 53.28 162.016C53.0513 161.903 52.77 161.998 52.6575 162.231C51.6523 164.296 51.071 166.603 50.9773 168.902C50.966 169.162 51.1685 169.376 51.4236 169.388C51.4311 169.388 51.4386 169.388 51.4423 169.388Z" fill="#34998D"/>
<path d="M49.983 158.832C50.2118 158.832 50.4106 158.666 50.4443 158.433C50.7444 156.39 51.4645 154.378 52.5296 152.61C52.6646 152.388 52.5934 152.102 52.3721 151.966C52.1508 151.83 51.8658 151.902 51.7307 152.124C50.6019 153.997 49.8368 156.13 49.518 158.297C49.4805 158.553 49.6567 158.791 49.9118 158.828C49.938 158.828 49.9605 158.832 49.983 158.832Z" fill="#34998D"/>
<path d="M62.1123 158.365C62.1498 158.365 62.1873 158.361 62.2285 158.35C62.4761 158.286 62.6299 158.029 62.5661 157.781L60.6346 150.108C60.5708 149.859 60.3196 149.701 60.0683 149.769C59.8207 149.833 59.667 150.085 59.7307 150.338L61.6622 158.01C61.7147 158.222 61.906 158.365 62.1123 158.365Z" fill="#34998D"/>
<path d="M71.4546 157.875C71.4884 157.875 71.5259 157.871 71.5596 157.864C71.8109 157.803 71.9684 157.555 71.9084 157.302L70.4682 151.065C70.4082 150.813 70.1569 150.651 69.9094 150.715C69.6581 150.775 69.5006 151.024 69.5606 151.276L71.0008 157.513C71.0495 157.728 71.2408 157.875 71.4546 157.875Z" fill="#34998D"/>
<path d="M86.0701 161.689C86.1676 161.689 86.2614 161.658 86.3477 161.598C86.5539 161.444 86.5989 161.15 86.4489 160.942C84.5474 158.342 83.021 155.486 81.9184 152.452C81.8321 152.207 81.5621 152.079 81.322 152.173C81.0783 152.264 80.9545 152.531 81.0445 152.772C82.1771 155.889 83.7448 158.821 85.6988 161.496C85.7851 161.621 85.9239 161.689 86.0701 161.689Z" fill="#34998D"/>
<path d="M97.6781 163.675C97.7794 163.675 97.8806 163.641 97.9631 163.577C98.1657 163.418 98.2032 163.124 98.0457 162.917L93.7626 157.389C93.6051 157.185 93.3088 157.151 93.1063 157.306C92.9037 157.464 92.8662 157.758 93.0238 157.965L97.3068 163.494C97.4043 163.614 97.5393 163.675 97.6781 163.675Z" fill="#34998D"/>
<path d="M79.5933 170.349C79.8521 170.349 80.0583 170.138 80.0583 169.881V164.364C80.0583 164.104 79.8483 163.897 79.5933 163.897C79.3345 163.897 79.1282 164.108 79.1282 164.364V169.881C79.1245 170.138 79.3345 170.349 79.5933 170.349Z" fill="#34998D"/>
<path d="M74.7513 192.429C74.7738 192.429 74.7963 192.429 74.8188 192.425C75.0738 192.387 75.2501 192.15 75.2126 191.893L74.485 186.855C74.4475 186.599 74.2 186.421 73.9562 186.459C73.7012 186.497 73.5249 186.734 73.5624 186.991L74.29 192.029C74.3237 192.263 74.5263 192.429 74.7513 192.429Z" fill="#34998D"/>
<path d="M57.4429 185.227C57.6867 185.227 57.893 185.039 57.908 184.79L58.1293 181.428C58.1443 181.172 57.953 180.946 57.6942 180.931C57.4392 180.912 57.2142 181.108 57.1992 181.368L56.9779 184.73C56.9629 184.986 57.1541 185.212 57.4129 185.227C57.4242 185.227 57.4317 185.227 57.4429 185.227Z" fill="#34998D"/>
<path d="M19.1282 169.897C20.5946 170.168 22.3086 169.663 23.775 169.128C36.9954 164.3 50.7746 160.438 64.8313 160.317C78.8993 160.196 93.3799 164.142 103.994 173.405C107.688 176.631 110.861 180.437 114.712 183.463C119.854 187.515 127.839 189.772 133.259 186.324C133.214 183.324 131.571 180.426 129.426 178.282C126.954 175.817 123.837 174.11 120.927 172.188C108.427 163.95 99.0393 151.095 94.9063 136.669C79.7169 132.517 63.3536 132.957 48.8581 139.002C42.8424 141.516 37.2429 144.889 31.7747 148.461C28.6393 155.23 24.9001 161.726 20.6171 167.839C20.137 168.529 19.642 169.222 19.1282 169.897Z" fill="#2B747E"/>
<path d="M22.4437 155.927C25.4928 158.459 30.0384 157.585 33.7776 156.273C40.5322 153.903 46.9867 150.519 54.0226 149.177C63.5863 147.349 73.4462 149.449 82.7549 152.279C92.0748 155.12 101.237 158.719 110.883 160.012C114.045 160.434 117.664 160.453 119.933 158.191C122.18 155.942 122.172 152.154 120.837 149.256C119.502 146.37 117.105 144.139 114.885 141.859C109.091 135.961 104.046 129.336 99.8833 122.191C95.9265 115.422 92.7649 108.194 90.4996 100.687C88.7931 95.0535 87.578 89.2424 85.5377 83.7479C85.1177 82.5947 84.6601 81.4604 84.1463 80.3449C81.206 73.8781 76.3079 67.8673 69.5758 65.6853C65.1615 64.2495 59.8996 64.9278 56.0854 67.6072C51.4123 70.8972 50.9435 76.9532 49.2558 82.0709C48.7344 83.665 48.1906 85.2591 47.6318 86.8532C44.5264 95.8072 40.9897 104.626 37.063 113.252C36.1666 115.219 35.2515 117.179 34.3214 119.131C31.0173 126.012 27.4656 132.769 23.6588 139.379C22.1587 142.002 20.591 144.666 20.0284 147.628C19.4696 150.602 20.1222 154.005 22.4437 155.927Z" fill="#389E8A"/>
<path d="M37.063 113.256C42.1674 110.93 47.3355 108.831 52.8299 107.904C65.0902 105.832 77.6355 109.815 88.6431 115.618C92.4873 117.642 96.2078 119.884 99.8833 122.198C95.9265 115.43 92.7649 108.202 90.4996 100.695C88.7931 95.0611 87.578 89.25 85.5377 83.7555C73.0937 80.0812 59.2395 81.0761 47.6318 86.857C44.5264 95.8073 40.9897 104.629 37.063 113.256Z" fill="#307D6E"/>
<path d="M43.7462 112.871C43.9225 112.871 44.095 112.769 44.1738 112.596L47.4967 105.149C47.6017 104.912 47.4967 104.637 47.2604 104.531C47.0242 104.426 46.7504 104.531 46.6454 104.769L43.3224 112.215C43.2174 112.453 43.3224 112.728 43.5587 112.833C43.615 112.856 43.6825 112.871 43.7462 112.871Z" fill="#3899A3"/>
<path d="M52.1851 119.368C52.4364 119.368 52.6426 119.168 52.6501 118.912L52.8752 111.236C52.8827 110.976 52.6801 110.761 52.4214 110.753C52.4176 110.753 52.4101 110.753 52.4064 110.753C52.1551 110.753 51.9488 110.953 51.9413 111.209L51.7163 118.886C51.7088 119.146 51.9113 119.361 52.1701 119.368C52.1738 119.368 52.1813 119.368 52.1851 119.368Z" fill="#3899A3"/>
<path d="M40.6448 129.189C40.8286 129.189 41.0011 129.08 41.0761 128.899L43.5702 122.846C43.6677 122.609 43.5552 122.334 43.3189 122.236C43.0826 122.138 42.8088 122.251 42.7113 122.488L40.2172 128.541C40.1197 128.778 40.2322 129.053 40.4685 129.151C40.5248 129.178 40.5848 129.189 40.6448 129.189Z" fill="#3899A3"/>
<path d="M33.7589 138.802C33.9277 138.802 34.0889 138.708 34.1714 138.55L37.7531 131.593C37.8694 131.363 37.7831 131.081 37.5544 130.96C37.3256 130.843 37.0443 130.93 36.9243 131.16L33.3426 138.116C33.2263 138.346 33.3126 138.629 33.5414 138.75C33.6164 138.784 33.6876 138.802 33.7589 138.802Z" fill="#3899A3"/>
<path d="M31.1374 149.84C31.3249 149.84 31.5049 149.724 31.5762 149.535L33.2489 144.975C33.3389 144.734 33.2151 144.463 32.9713 144.372C32.7351 144.286 32.4613 144.406 32.3713 144.651L30.6986 149.211C30.6085 149.452 30.7323 149.724 30.9761 149.814C31.0286 149.829 31.0849 149.84 31.1374 149.84Z" fill="#3899A3"/>
<path d="M45.4602 148.16C45.7078 148.16 45.9103 147.967 45.9253 147.719L46.1653 143.4C46.1803 143.14 45.9816 142.921 45.7265 142.906C45.4752 142.884 45.2502 143.091 45.2352 143.347L44.9952 147.666C44.9802 147.926 45.179 148.144 45.434 148.16C45.4452 148.16 45.4527 148.16 45.4602 148.16Z" fill="#3899A3"/>
<path d="M54.9753 137.608C54.994 137.608 55.009 137.608 55.0278 137.604C55.2828 137.574 55.4666 137.34 55.4366 137.084L54.724 130.847C54.694 130.591 54.4577 130.398 54.2064 130.436C53.9514 130.466 53.7676 130.696 53.7976 130.956L54.5102 137.193C54.5402 137.431 54.739 137.608 54.9753 137.608Z" fill="#3899A3"/>
<path d="M75.7116 130.9C75.7416 130.9 75.7716 130.896 75.8016 130.892C76.0529 130.843 76.2179 130.594 76.1692 130.342L74.9915 124.342C74.9428 124.09 74.6915 123.924 74.444 123.973C74.1927 124.022 74.0277 124.271 74.0764 124.523L75.2541 130.523C75.2991 130.745 75.4941 130.9 75.7116 130.9Z" fill="#3899A3"/>
<path d="M66.2341 114.33C66.4929 114.33 66.6992 114.119 66.6992 113.862V108.583C66.6992 108.323 66.4891 108.115 66.2341 108.115C65.9753 108.115 65.769 108.326 65.769 108.583V113.862C65.769 114.119 65.9753 114.33 66.2341 114.33Z" fill="#3899A3"/>
<path d="M58.2945 110.501C58.3208 110.501 58.3433 110.501 58.3695 110.493C58.6246 110.452 58.7971 110.21 58.7558 109.954L57.8145 104.192C57.7732 103.936 57.5332 103.763 57.2781 103.804C57.0231 103.845 56.8506 104.087 56.8918 104.343L57.8332 110.105C57.8745 110.339 58.0695 110.501 58.2945 110.501Z" fill="#3899A3"/>
<path d="M65.0379 132.083C65.0454 132.083 65.0529 132.083 65.0642 132.083C65.323 132.068 65.518 131.85 65.503 131.59L65.0867 123.909C65.0717 123.653 64.8729 123.434 64.5954 123.468C64.3366 123.483 64.1416 123.702 64.1566 123.962L64.5729 131.642C64.5841 131.891 64.7904 132.083 65.0379 132.083Z" fill="#3899A3"/>
<path d="M72.9214 146.957C73.1802 146.957 73.3865 146.746 73.3865 146.49V142.891C73.3865 142.631 73.1764 142.424 72.9214 142.424C72.6626 142.424 72.4563 142.635 72.4563 142.891V146.49C72.4526 146.75 72.6626 146.957 72.9214 146.957Z" fill="#3899A3"/>
<path d="M91.3061 149.358C91.3961 149.358 91.4899 149.332 91.5686 149.275C91.7824 149.128 91.8387 148.838 91.6924 148.623L88.1107 143.343C87.9644 143.129 87.6719 143.076 87.4618 143.219C87.2481 143.366 87.1918 143.656 87.3381 143.871L90.9198 149.151C91.0098 149.286 91.1561 149.358 91.3061 149.358Z" fill="#3899A3"/>
<path d="M106.308 152.505C106.398 152.505 106.488 152.478 106.567 152.426C106.781 152.282 106.84 151.992 106.698 151.777L103.364 146.735C103.221 146.517 102.929 146.46 102.719 146.603C102.505 146.746 102.445 147.037 102.587 147.251L105.922 152.294C106.008 152.433 106.158 152.505 106.308 152.505Z" fill="#3899A3"/>
<path d="M114.945 150.798C115.043 150.798 115.14 150.767 115.227 150.703C115.433 150.549 115.474 150.255 115.32 150.048L111.739 145.25C111.581 145.043 111.289 145.002 111.086 145.156C110.88 145.311 110.839 145.605 110.992 145.812L114.574 150.609C114.664 150.734 114.803 150.798 114.945 150.798Z" fill="#3899A3"/>
<path d="M96.5456 137.122C96.7781 137.122 96.9806 136.948 97.0069 136.711C97.2957 134.337 96.7031 131.834 95.3792 129.848C95.2367 129.634 94.9479 129.573 94.7303 129.72C94.5166 129.864 94.4603 130.154 94.6028 130.372C95.803 132.174 96.343 134.446 96.0805 136.602C96.0505 136.858 96.2305 137.092 96.4856 137.126C96.5081 137.118 96.5268 137.122 96.5456 137.122Z" fill="#3899A3"/>
<path d="M82.2336 133.282C82.2448 133.282 82.2598 133.282 82.2711 133.282C82.5299 133.263 82.7211 133.037 82.6986 132.78L82.2223 126.543C82.2036 126.283 81.9748 126.102 81.7235 126.114C81.4648 126.133 81.2735 126.359 81.296 126.615L81.7723 132.852C81.7873 133.097 81.9936 133.282 82.2336 133.282Z" fill="#3899A3"/>
<path d="M83.1303 119.858C83.1603 119.858 83.1903 119.854 83.2203 119.85C83.4715 119.802 83.6366 119.553 83.5878 119.3C83.1003 116.787 81.7501 114.503 79.7886 112.867C79.5898 112.702 79.2973 112.728 79.1323 112.928C78.9672 113.127 78.9935 113.421 79.1923 113.587C80.9625 115.064 82.2301 117.213 82.6689 119.477C82.7177 119.704 82.9127 119.858 83.1303 119.858Z" fill="#3899A3"/>
<path d="M93.2112 122.01C93.3012 122.01 93.395 121.983 93.4737 121.927C93.6875 121.78 93.74 121.49 93.5937 121.275C92.2436 119.289 91.666 116.787 92.011 114.405C92.0485 114.149 91.8723 113.911 91.6172 113.873C91.3584 113.836 91.1259 114.013 91.0884 114.269C90.7096 116.881 91.3397 119.624 92.8249 121.802C92.9149 121.938 93.0612 122.01 93.2112 122.01Z" fill="#3899A3"/>
<path d="M80.3287 107.373C80.5574 107.373 80.76 107.2 80.79 106.966L81.5063 101.449C81.5401 101.193 81.36 100.959 81.105 100.925C80.8537 100.891 80.6174 101.072 80.5837 101.328L79.8673 106.845C79.8336 107.102 80.0136 107.335 80.2686 107.369C80.2874 107.373 80.3099 107.373 80.3287 107.373Z" fill="#3899A3"/>
<path d="M72.4038 111.209C72.6551 111.209 72.8614 111.01 72.8689 110.757L73.0939 104.52C73.1014 104.26 72.9026 104.045 72.6439 104.034C72.4076 104.049 72.1713 104.226 72.1601 104.486L71.935 110.723C71.9275 110.983 72.1263 111.198 72.3851 111.209C72.3926 111.209 72.3963 111.209 72.4038 111.209Z" fill="#3899A3"/>
<path d="M71.6576 121.976C71.8376 121.976 72.0101 121.87 72.0851 121.689L73.304 118.822C73.4053 118.584 73.2965 118.309 73.0565 118.207C72.8202 118.109 72.5464 118.215 72.4452 118.456L71.2263 121.324C71.125 121.561 71.2338 121.836 71.4738 121.938C71.5338 121.965 71.5938 121.976 71.6576 121.976Z" fill="#3899A3"/>
<path d="M61.696 141.681C61.906 141.681 62.0973 141.538 62.1498 141.327L62.8661 138.448C62.9299 138.199 62.7761 137.943 62.5249 137.879C62.2773 137.815 62.0223 137.969 61.9585 138.222L61.2422 141.101C61.1784 141.35 61.3322 141.606 61.5835 141.67C61.621 141.678 61.6585 141.681 61.696 141.681Z" fill="#3899A3"/>
<path d="M58.3657 125.842C58.392 125.842 58.4182 125.842 58.4445 125.835C58.6995 125.793 58.8683 125.548 58.827 125.296C58.6282 124.101 58.7707 122.824 59.2321 121.705C59.3296 121.467 59.2171 121.192 58.9808 121.09C58.7445 120.992 58.4707 121.102 58.3694 121.343C57.8406 122.624 57.6756 124.082 57.9044 125.45C57.9456 125.684 58.1444 125.842 58.3657 125.842Z" fill="#3899A3"/>
<path d="M45.4565 136.881C45.6628 136.881 45.8503 136.741 45.9065 136.534L47.8155 129.336C47.883 129.087 47.733 128.831 47.4855 128.763C47.238 128.695 46.9792 128.846 46.9154 129.095L45.0064 136.293C44.9389 136.541 45.0889 136.798 45.3365 136.865C45.3777 136.877 45.419 136.881 45.4565 136.881Z" fill="#3899A3"/>
<path d="M65.5703 104C65.6078 104 65.6453 103.996 65.6828 103.985C65.9341 103.925 66.0841 103.668 66.0241 103.416C65.6753 101.995 65.8553 100.431 66.5229 99.131C66.6429 98.9011 66.5529 98.6185 66.3204 98.5016C66.0916 98.381 65.8103 98.4715 65.694 98.7051C64.9252 100.205 64.7152 102.006 65.1165 103.646C65.169 103.857 65.3602 104 65.5703 104Z" fill="#3899A3"/>
<path d="M51.9188 102.813C52.1738 102.813 52.3801 102.609 52.3839 102.349C52.4064 100.831 52.8752 99.2932 53.704 98.0269C53.8465 97.8121 53.7865 97.5182 53.569 97.3787C53.3552 97.2393 53.0627 97.2958 52.9239 97.5144C51.9976 98.9314 51.4763 100.646 51.45 102.338C51.4463 102.598 51.6525 102.809 51.9113 102.813C51.9151 102.813 51.9151 102.813 51.9188 102.813Z" fill="#3899A3"/>
<path d="M25.8941 144.09C26.0554 144.09 26.2129 144.003 26.2992 143.852L29.4083 138.339C29.5358 138.113 29.4571 137.826 29.232 137.698C29.007 137.57 28.722 137.649 28.5945 137.875L25.4853 143.389C25.3578 143.615 25.4366 143.901 25.6616 144.029C25.7366 144.067 25.8154 144.09 25.8941 144.09Z" fill="#3899A3"/>
<path d="M25.6805 153.447C25.8906 153.447 26.0781 153.307 26.1306 153.096L26.8657 150.221C26.9294 149.969 26.7794 149.716 26.5319 149.652C26.2806 149.584 26.0256 149.739 25.9656 149.987L25.2305 152.863C25.1667 153.115 25.3168 153.368 25.5643 153.432C25.6055 153.443 25.643 153.447 25.6805 153.447Z" fill="#3899A3"/>
<path d="M82.9726 143.585C83.0627 143.585 83.1489 143.558 83.2314 143.505C83.4452 143.362 83.5052 143.072 83.3627 142.857C82.6088 141.715 82.3351 140.234 82.6276 138.9C82.6839 138.648 82.5226 138.399 82.2713 138.343C82.0238 138.286 81.7725 138.448 81.7162 138.701C81.3674 140.302 81.6825 142.006 82.5863 143.377C82.6726 143.509 82.8189 143.585 82.9726 143.585Z" fill="#3899A3"/>
<path d="M67.7567 2.56247C67.4304 1.5412 66.9579 0.391793 65.9377 0.0752367C64.8988 -0.248857 63.7812 0.519924 63.3124 1.50351C62.8436 2.4871 62.8511 3.62143 62.8436 4.7143C62.7761 14.2185 60.0795 23.7605 58.0918 33.0311C56.0252 42.671 53.3962 52.2468 49.2182 61.2009C42.7824 74.9937 32.1385 87.4638 17.9205 92.7473C15.0627 93.81 11.4135 95.5737 11.8823 98.5998C12.3136 101.385 15.899 102.199 18.7044 102.138C27.1767 101.95 35.4502 99.7002 43.7875 98.1626C68.4093 93.6291 92.2997 103.435 117 103.397C119.558 103.393 122.671 102.975 123.661 100.605C124.449 98.7166 123.339 96.4894 121.718 95.2458C120.102 94.0022 118.073 93.467 116.175 92.7322C110.024 90.3505 104.943 85.7189 100.993 80.4166C97.0403 75.118 94.115 69.1336 91.2121 63.1869C86.2127 52.9553 81.2171 42.72 76.2178 32.4884C73.945 27.8343 71.6309 23.915 71.1359 18.7785C70.5996 13.2839 69.4294 7.81957 67.7567 2.56247Z" fill="#3DB287"/>
<path d="M64.61 19.0008C64.8425 19.0008 65.045 18.8237 65.0713 18.5862L66.0426 9.94876C66.0726 9.6925 65.8889 9.45885 65.6301 9.4287C65.3826 9.40609 65.1425 9.58321 65.1125 9.84324L64.1411 18.4807C64.1111 18.737 64.2949 18.9706 64.5537 19.0008C64.5762 19.0008 64.595 19.0008 64.61 19.0008Z" fill="#3AAA8F"/>
<path d="M64.8123 34.5912C65.0486 34.5912 65.2473 34.414 65.2736 34.1729L65.9899 27.6948C66.0162 27.4385 65.8324 27.2048 65.5774 27.1785C65.3298 27.1483 65.0898 27.3367 65.0636 27.593L64.3472 34.0711C64.321 34.3274 64.5047 34.561 64.7598 34.5874C64.7785 34.5912 64.7973 34.5912 64.8123 34.5912Z" fill="#3AAA8F"/>
<path d="M59.678 44.7059C59.873 44.7059 60.0568 44.5815 60.1206 44.3856L62.5471 36.9615C62.6296 36.7166 62.4946 36.449 62.2508 36.3699C62.0033 36.2907 61.7408 36.4226 61.662 36.6676L59.2355 44.0916C59.1529 44.3366 59.288 44.6041 59.5317 44.6833C59.5805 44.6983 59.6293 44.7059 59.678 44.7059Z" fill="#3AAA8F"/>
<path d="M59.3217 59.7839C59.4942 59.7839 59.6593 59.6896 59.7418 59.5238C60.8707 57.2212 61.3807 54.6511 61.2194 52.0885C61.2044 51.8285 60.9907 51.6212 60.7244 51.6514C60.4656 51.6664 60.2743 51.8888 60.2893 52.1488C60.4393 54.5456 59.9593 56.9537 58.9054 59.1093C58.7929 59.3429 58.8867 59.6218 59.1192 59.7386C59.1829 59.7688 59.2505 59.7839 59.3217 59.7839Z" fill="#3AAA8F"/>
<path d="M51.202 71.5416C51.3557 71.5416 51.5095 71.4625 51.5958 71.3231C53.0772 68.964 54.2998 66.4277 55.2225 63.7898C55.3087 63.5448 55.1812 63.2772 54.9374 63.1943C54.6936 63.1077 54.4274 63.2358 54.3449 63.4807C53.4447 66.0509 52.2521 68.523 50.8082 70.8256C50.6694 71.0442 50.7369 71.3344 50.9544 71.4738C51.0294 71.519 51.1194 71.5416 51.202 71.5416Z" fill="#3AAA8F"/>
<path d="M49.2818 82.316C49.3643 82.316 49.4468 82.2934 49.5218 82.2482C51.2207 81.2119 52.3384 79.3314 52.4396 77.3341C52.4509 77.074 52.2559 76.8554 51.9971 76.8441C51.7421 76.814 51.5208 77.0288 51.5095 77.2888C51.427 78.9507 50.4556 80.5825 49.038 81.4493C48.8167 81.585 48.7492 81.8714 48.8805 82.0937C48.9705 82.2369 49.1242 82.316 49.2818 82.316Z" fill="#3AAA8F"/>
<path d="M39.7444 86.8984C39.8794 86.8984 40.0181 86.8381 40.1082 86.7213L42.9735 83.1223C43.1348 82.9188 43.101 82.6249 42.9023 82.4628C42.7035 82.3008 42.4072 82.3347 42.2459 82.5344L39.3806 86.1334C39.2193 86.3369 39.2531 86.6309 39.4518 86.7929C39.5381 86.8645 39.6393 86.8984 39.7444 86.8984Z" fill="#3AAA8F"/>
<path d="M33.2935 95.5321C33.3348 95.5321 33.3761 95.5283 33.4173 95.5132C35.3638 94.9706 37.1415 93.8061 38.4279 92.2422C38.593 92.0424 38.5629 91.7447 38.3642 91.5827C38.1654 91.4168 37.8729 91.447 37.7078 91.6467C36.5452 93.0675 34.9288 94.1189 33.166 94.6126C32.9185 94.6804 32.7722 94.9404 32.8435 95.1891C32.9035 95.3964 33.091 95.5321 33.2935 95.5321Z" fill="#3AAA8F"/>
<path d="M23.745 94.8125C23.85 94.8125 23.9551 94.7786 24.0413 94.707L26.6666 92.5476C26.8654 92.3818 26.8954 92.0878 26.7341 91.8881C26.5691 91.6846 26.2766 91.6582 26.0778 91.8203L23.4525 93.9797C23.2537 94.1455 23.2237 94.4394 23.385 94.6391C23.475 94.756 23.61 94.8125 23.745 94.8125Z" fill="#3AAA8F"/>
<path d="M69.6055 29.549C69.6318 29.549 69.658 29.5453 69.6843 29.5415C69.9393 29.4963 70.1081 29.2551 70.0631 28.9988L68.5816 20.3689C68.5366 20.1126 68.2929 19.943 68.0416 19.9883C67.7865 20.0335 67.6178 20.2747 67.6628 20.5309L69.1442 29.1609C69.1892 29.3907 69.3842 29.549 69.6055 29.549Z" fill="#3AAA8F"/>
<path d="M78.6966 50.1589C78.7978 50.1589 78.9028 50.125 78.9891 50.0572C79.1916 49.8951 79.2216 49.6012 79.0604 49.3977C77.0201 46.8464 75.3924 44.0049 74.2148 40.9524C74.121 40.7112 73.8472 40.5944 73.6109 40.6848C73.3709 40.779 73.2509 41.0504 73.3447 41.2916C74.5561 44.4307 76.2325 47.3551 78.3328 49.9856C78.4228 50.0986 78.5578 50.1589 78.6966 50.1589Z" fill="#3AAA8F"/>
<path d="M71.0306 55.7063C71.0381 55.7063 71.0419 55.7063 71.0494 55.7063C71.3082 55.695 71.507 55.4802 71.4994 55.2201L71.2632 48.9832C71.2519 48.7232 71.0456 48.531 70.7794 48.531C70.5206 48.5423 70.3218 48.7571 70.3293 49.0171L70.5656 55.2541C70.5731 55.5066 70.7794 55.7063 71.0306 55.7063Z" fill="#3AAA8F"/>
<path d="M65.0637 50.9053C65.0862 50.9053 65.1124 50.9053 65.135 50.9015C65.39 50.8639 65.5663 50.6227 65.525 50.3664C65.3037 48.9118 65.4425 47.4081 65.9263 46.0213C66.0126 45.7763 65.885 45.5088 65.6413 45.4221C65.3975 45.3392 65.1312 45.4636 65.0449 45.7085C64.5086 47.2423 64.3549 48.9005 64.5986 50.5058C64.6399 50.7395 64.8387 50.9053 65.0637 50.9053Z" fill="#3AAA8F"/>
<path d="M62.6371 74.1759C62.8547 74.1759 63.0497 74.0214 63.0947 73.799L64.2986 67.8033C64.3511 67.5508 64.1861 67.3021 63.9348 67.2531C63.6873 67.1966 63.436 67.3661 63.3872 67.6186L62.1833 73.6144C62.1308 73.8669 62.2958 74.1156 62.5471 74.1646C62.5771 74.1721 62.6071 74.1759 62.6371 74.1759Z" fill="#3AAA8F"/>
<path d="M71.9947 77.7711C72.0622 77.7711 72.1334 77.7561 72.201 77.7221C72.4335 77.6091 72.5272 77.3302 72.4147 77.0966C71.4734 75.1595 70.9745 72.9926 70.9745 70.8333C70.9745 70.5732 70.7645 70.366 70.5095 70.366C70.2507 70.366 70.0444 70.577 70.0444 70.8333C70.0444 73.1358 70.577 75.4422 71.5784 77.5073C71.6571 77.6731 71.8222 77.7711 71.9947 77.7711Z" fill="#3AAA8F"/>
<path d="M85.1101 73.7011C85.2489 73.7011 85.3839 73.6408 85.4777 73.5239C85.639 73.3204 85.6052 73.0265 85.4027 72.8645C83.7075 71.5153 82.3536 69.7516 81.4797 67.7656C81.3747 67.5282 81.1009 67.4227 80.8646 67.5282C80.6283 67.6337 80.5233 67.9088 80.6284 68.1462C81.5622 70.2717 83.0136 72.1597 84.8251 73.6031C84.9039 73.6671 85.0089 73.7011 85.1101 73.7011Z" fill="#3AAA8F"/>
<path d="M88.1927 66.0359C88.2827 66.0359 88.3689 66.0095 88.4477 65.9605C88.6615 65.8173 88.7215 65.5271 88.5827 65.3123L84.0372 58.3594C83.8946 58.1446 83.6059 58.0843 83.3921 58.2237C83.1783 58.3669 83.1183 58.6571 83.2571 58.8719L87.8026 65.8211C87.8926 65.9605 88.0427 66.0359 88.1927 66.0359Z" fill="#3AAA8F"/>
<path d="M74.9612 67.7017C75.2199 67.7017 75.43 67.4906 75.4262 67.2306L75.415 62.6707C75.415 62.4106 75.2049 62.2034 74.9499 62.2034C74.6911 62.2034 74.4849 62.4144 74.4849 62.6744L74.4961 67.2344C74.4961 67.4944 74.7024 67.7017 74.9612 67.7017Z" fill="#3AAA8F"/>
<path d="M79.3756 90.2564C79.4093 90.2564 79.4431 90.2526 79.4768 90.245C79.7281 90.1885 79.8856 89.9398 79.8331 89.6873L78.8768 85.3686C78.8205 85.1161 78.5767 84.954 78.3217 85.0143C78.0704 85.0709 77.9129 85.3196 77.9654 85.5721L78.9218 89.8908C78.9705 90.1056 79.1618 90.2564 79.3756 90.2564Z" fill="#3AAA8F"/>
<path d="M65.7689 89.0542C65.7877 89.0542 65.8027 89.0542 65.8214 89.0504C66.0765 89.024 66.264 88.7904 66.234 88.5341C66.0502 86.8383 66.2115 85.0746 66.6953 83.4391C66.7665 83.1903 66.6278 82.9303 66.3803 82.8549C66.129 82.7833 65.8739 82.9228 65.7989 83.1715C65.2814 84.9239 65.1088 86.8157 65.3039 88.6359C65.3301 88.877 65.5326 89.0542 65.7689 89.0542Z" fill="#3AAA8F"/>
<path d="M53.2911 93.109C53.4786 93.109 53.6512 92.9959 53.7262 92.8113L55.8189 87.5089C55.9127 87.2678 55.7964 86.9964 55.5564 86.9022C55.3164 86.808 55.0463 86.9248 54.9526 87.166L52.8598 92.4646C52.7661 92.7057 52.8823 92.9771 53.1224 93.0713C53.1749 93.1014 53.2349 93.109 53.2911 93.109Z" fill="#3AAA8F"/>
<path d="M91.557 91.6959C91.6733 91.6959 91.7896 91.6544 91.8796 91.564C92.0671 91.3869 92.0708 91.0891 91.8946 90.9007C89.8806 88.7828 88.3504 86.1938 87.4653 83.4051C87.3865 83.1602 87.124 83.0207 86.8802 83.0998C86.6327 83.179 86.4976 83.4428 86.5764 83.6877C87.5028 86.6121 89.108 89.3292 91.2195 91.5451C91.3095 91.6469 91.4333 91.6959 91.557 91.6959Z" fill="#3AAA8F"/>
<path d="M99.1365 85.4967C99.2265 85.4967 99.3165 85.4704 99.3953 85.4176C99.609 85.2744 99.6653 84.9842 99.5265 84.7656L94.7522 77.5677C94.6097 77.3529 94.3209 77.2964 94.1033 77.4358C93.8896 77.579 93.8333 77.8692 93.9721 78.0878L98.7464 85.2857C98.8364 85.4251 98.9865 85.4967 99.1365 85.4967Z" fill="#3AAA8F"/>
<path d="M110.876 96.512C110.992 96.512 111.105 96.4706 111.195 96.3839C111.382 96.2068 111.39 95.9091 111.213 95.7206L106.923 91.1569C106.746 90.9685 106.45 90.961 106.263 91.1381C106.075 91.3152 106.068 91.6129 106.244 91.8014L110.534 96.3651C110.628 96.4631 110.752 96.512 110.876 96.512Z" fill="#3AAA8F"/>
<path d="M99.6207 98.9088C99.6657 98.9088 99.7107 98.9012 99.752 98.8899C99.9995 98.8146 100.138 98.5545 100.067 98.3058L98.8594 94.232C98.7843 93.9833 98.5256 93.8439 98.278 93.9155C98.0305 93.9908 97.8917 94.2509 97.963 94.4996L99.1706 98.5734C99.2307 98.7769 99.4182 98.9088 99.6207 98.9088Z" fill="#3AAA8F"/>
</svg>
