<svg width="19" height="21" viewBox="0 0 19 21" fill="none" xmlns="http://www.w3.org/2000/svg">
<path d="M18.3967 18.2169L17.9059 18.4135C17.4712 18.59 16.9702 18.4236 16.7247 18.0303L13.749 13.2656L9.76081 14.8589L12.5679 19.3514C12.8798 19.8505 12.6599 20.506 12.1077 20.7278L11.6168 20.9245C11.1822 21.1009 10.6812 20.9345 10.4357 20.5413L7.45995 15.7766L4.70914 16.8757C4.21829 17.0724 3.65585 16.8404 3.45645 16.3514C3.25704 15.8673 3.49224 15.3127 3.9882 15.1161L6.39644 14.153L3.92685 10.1043L1.32943 11.1429C0.838578 11.3396 0.276145 11.1077 0.0767374 10.6186C-0.122671 10.1345 0.112529 9.57992 0.608492 9.38329L2.86334 8.48076L0.153433 4.11942C-0.163575 3.63034 0.0511723 2.97488 0.603379 2.75303L1.06355 2.57152C1.49816 2.39505 1.99412 2.55639 2.24466 2.94967L5.15908 7.56816L9.14724 5.97488L6.43734 1.61354C6.12545 1.11438 6.34531 0.458916 6.89751 0.237067L7.31678 0.0706805C7.75139 -0.100748 8.24735 0.0555545 8.49789 0.448832L11.4123 5.06732L14.1631 3.96816C14.654 3.77152 15.2164 4.00345 15.4158 4.49253C15.6152 4.97656 15.38 5.53118 14.8841 5.72782L12.4758 6.69085L14.9812 10.7245L17.5786 9.68581C18.0695 9.48917 18.6319 9.7211 18.8313 10.2102C19.0307 10.6942 18.7955 11.2488 18.2996 11.4455L16.0447 12.348L18.8518 16.8404C19.1688 17.3396 18.9489 17.995 18.3967 18.2169ZM12.6803 11.6472L10.175 7.61354L6.1868 9.20681L8.69218 13.2404L12.6803 11.6472Z" fill="#96D9C9"/>
</svg>
