<svg width="607" height="449" viewBox="0 0 607 449" fill="none" xmlns="http://www.w3.org/2000/svg">
<path d="M387.677 26.2335C313.188 6.69128 236.21 -11.1414 160.541 10.4906C139.747 16.4339 114.579 17.1969 95.833 27.1025C75.543 37.8254 58.0088 53.664 44.5037 72.1768C18.4516 107.878 2.99651 156.739 0.61006 200.833C0.607477 200.893 0.604894 200.952 0.599729 201.014C-0.701971 225.923 7.75649 250.31 17.9506 273.072C28.2505 296.074 41.0196 318.904 60.9971 334.243C92.8345 358.687 132.818 356.711 169.064 368.773C203.892 380.365 224.18 410.281 254.405 429.213C293.575 453.744 342.991 451.957 385.598 440.156C428.435 428.292 468.075 414.233 494.009 375.11C513.8 345.251 520.143 309.596 540.586 280.078C558.179 254.675 585.675 234.634 598.475 207.11C616.417 168.528 601.6 124.664 584.203 85.8895C582.111 81.2264 579.897 76.4572 576.005 72.7898C563.946 61.4333 556.929 52.0605 538.868 49.7354C513.785 46.505 488.293 47.5344 463.225 44.1877C437.55 40.7608 412.735 32.8079 387.677 26.2335Z" fill="#FFF59B"/>
</svg>
