<svg width="126" height="150" viewBox="0 0 126 150" fill="none" xmlns="http://www.w3.org/2000/svg">
<path d="M24.4749 53.885C24.6028 53.697 24.8277 53.5921 25.0438 53.5265C25.3437 53.4303 25.6656 53.3866 25.9787 53.3997C26.0404 53.3997 26.1154 53.4041 26.1595 53.3603C26.2477 53.2816 26.1816 53.1373 26.1066 53.0455C25.5465 52.359 24.6866 51.9218 23.7958 51.8693C23.6282 51.8605 23.4474 51.8693 23.3195 51.9699C23.2313 52.0398 23.1828 52.1448 23.1519 52.2497C23.0461 52.652 23.2578 53.0936 23.5929 53.3428C23.9281 53.5921 24.3647 53.6752 24.7836 53.6664L24.4749 53.885Z" fill="#FABF89"/>
<path d="M56.2568 93.2689C54.9029 96.0105 53.5799 98.8352 53.0419 101.883C52.6935 103.851 52.6847 105.853 52.8214 107.825C53.2801 114.463 55.3615 120.685 57.0329 126.981C58.6116 132.928 59.8332 139.024 60.6931 145.206C61.5707 145.377 62.4439 145.552 63.3214 145.722C63.5904 145.775 63.8903 145.819 64.1196 145.635C64.3181 145.477 64.4019 145.193 64.4724 144.931C65.8924 139.776 67.3168 134.581 67.8372 129.264C68.3576 123.947 67.9033 118.429 65.7381 113.872C64.8737 112.058 63.7183 110.261 63.8065 108.144C63.8991 105.993 65.253 104.148 66.5363 102.499C69.3145 98.927 72.0884 95.3546 74.8666 91.7822C77.6272 88.2317 80.5995 83.7235 79.4573 79.3641C78.6724 76.3776 76.0308 74.5061 73.3099 74.1651C69.7202 73.7191 66.3114 74.7598 64.2255 78.2841C61.359 83.107 58.7572 88.2011 56.2568 93.2689Z" fill="#FEAB62"/>
<path d="M71.1621 99.29C71.2415 102.342 71.387 105.451 72.3308 108.402C72.9393 110.305 73.8654 112.089 74.9062 113.772C78.412 119.448 83.1615 124.004 87.5803 128.822C91.7565 133.37 95.6813 138.21 99.3327 143.3C100.188 143.051 101.048 142.802 101.904 142.552C102.164 142.478 102.451 142.377 102.57 142.106C102.671 141.875 102.614 141.586 102.556 141.319C101.41 136.098 100.25 130.838 98.2258 125.888C96.2017 120.939 93.2294 116.256 89.1811 113.208C87.5714 111.997 85.706 110.934 84.7976 109.015C83.8759 107.064 84.2155 104.808 84.5815 102.757C85.3753 98.3149 86.1691 93.8767 86.9629 89.4342C87.7522 85.0223 88.2858 79.6571 85.2342 76.3208C83.1439 74.034 79.9291 73.588 77.3581 74.5324C73.9668 75.783 71.4311 78.271 71.2283 82.3506C70.9416 87.9388 71.0122 93.6494 71.1621 99.29Z" fill="#FABF89"/>
<path d="M101.978 142.015C101.639 142.294 101.211 142.434 100.792 142.57C100.413 142.692 100.033 142.815 99.6541 142.937C99.4821 142.994 99.3057 143.051 99.1734 143.173C99.019 143.318 98.9485 143.532 98.8779 143.729C98.3179 145.316 97.2859 146.798 95.7998 147.607C95.8571 148.066 96.2452 148.438 96.695 148.569C97.1404 148.7 97.6255 148.626 98.0621 148.464C98.6001 148.259 99.0852 147.918 99.4556 147.48C99.7246 147.161 99.9363 146.794 100.249 146.523C101.162 145.74 102.701 145.95 103.495 145.049C103.914 144.577 104.011 143.89 103.914 143.265C103.786 142.439 103.292 141.472 102.529 141.07C102.437 141.416 102.265 141.778 101.978 142.015Z" fill="#A53D99"/>
<path d="M55.8294 85.1096C55.5604 86.5176 55.2782 87.9212 54.9827 89.3204C54.6873 90.7196 54.3786 92.1451 54.4976 93.5662C54.4932 93.5356 58.8193 93.4656 59.2162 93.4787C60.4907 93.5312 61.8401 93.8635 63.119 94.0428C65.9811 94.4407 68.8695 95.066 71.4008 96.5046C71.9741 95.8662 72.5474 95.2278 73.1207 94.585C73.8131 93.8111 74.5142 93.0284 74.9993 92.1101C75.2992 91.5373 75.5109 90.9252 75.7225 90.313C76.2694 88.7257 76.8162 87.1385 77.363 85.5513C77.8437 84.152 77.8217 83.0633 78.0113 81.6378C78.4258 78.4677 78.8668 75.1708 78.8007 71.9657C78.7786 70.9425 78.3905 70.1729 78.1789 69.1978C77.8746 67.8117 77.7864 67.1646 76.1988 66.9197C70.682 66.067 64.7816 66.7142 59.7587 64.2961C59.2251 66.0408 58.3519 67.9385 58.1005 69.7444C57.8889 71.266 57.8448 72.8533 57.6243 74.3968C57.1039 77.9867 56.4997 81.5547 55.8294 85.1096Z" fill="#59284E"/>
<path d="M89.5962 98.1399C89.6359 97.8819 80.7235 96.9812 79.912 96.9243C78.3333 96.8194 76.6619 96.9418 75.1052 96.6926C73.7955 96.4827 72.5695 96.6095 71.2465 96.5396C70.0206 91.9964 69.6413 87.2653 68.508 82.696C66.819 75.8922 64.0187 70.925 59.7102 65.4855C60.8127 65.2231 60.9097 65.3543 61.9549 65.7785C64.7419 66.8978 67.7054 67.4226 70.6953 67.5625C74.9994 67.7636 79.5196 66.7798 83.7443 67.1165C85.8301 67.2826 85.1598 66.8279 86.205 68.9661C87.0473 70.6845 88.3967 73.155 88.9259 74.9915C91.0824 82.4861 90.8001 90.5098 89.5962 98.1399Z" fill="#A53D99"/>
<path d="M94.9235 38.8477C98.1956 41.0122 101.635 42.853 105.582 43.7931C110.072 44.86 114.737 44.7551 119.059 43.0542C119.91 42.7175 120.752 42.3283 121.661 42.219C122.926 42.0703 124.214 42.4945 125.268 43.2028C124.148 44.5889 121.648 43.8893 120.404 45.1617C121.167 45.2536 121.934 45.2798 122.702 45.2404C122.04 45.6952 121.277 46.01 120.483 46.1543C119.848 46.2724 119.191 46.2811 118.561 46.4298C117.992 46.5653 117.454 46.8102 116.92 47.0419C111.999 49.1626 106.597 50.1465 101.234 49.9803C97.2916 49.8579 93.7504 49.132 90.1872 47.5098C87.0959 46.1018 85.0232 43.6969 82.1039 41.9916C81.5747 41.6812 81.019 41.3969 80.4104 41.3139C78.5936 41.0603 76.6179 42.6082 75.0392 41.6768C74.0249 41.0778 74.0602 39.355 74.0558 38.3493C74.0469 36.8189 74.0646 35.271 74.4085 33.7755C74.629 32.8223 74.9995 31.6155 75.5904 30.8153C76.1769 30.0195 77.6234 29.779 78.5495 29.6216C79.3344 29.486 80.1459 29.4511 80.9264 29.6129C81.9407 29.8271 82.8535 30.3693 83.7267 30.929C87.5677 33.3908 91.1265 36.3379 94.9235 38.8477Z" fill="#FABF89"/>
<path d="M57.1172 6.12771C55.1856 10.0455 57.7919 15.0215 58.8944 18.9306C59.2384 20.1549 59.5956 21.3924 60.2659 22.4768C62.4267 25.9792 67.11 26.8756 71.251 27.0505C73.1428 27.1292 75.0655 27.1292 76.8912 26.6395C78.717 26.1497 80.4633 25.1178 81.4599 23.5218C82.5448 21.7859 82.6241 19.5646 82.0641 17.597C81.504 15.6293 80.3751 13.8715 79.1535 12.2275C75.3963 7.15964 61.8402 -3.40451 57.1172 6.12771Z" fill="#936037"/>
<path d="M63.2463 31.6855C63.2463 31.8036 63.2552 31.9173 63.2728 32.0266C63.3698 32.5119 63.6785 32.9536 64.0093 33.3384C66.6596 36.4298 69.2306 41.6987 76.0968 34.9956C76.1983 34.8775 76.3041 34.7594 76.3482 34.6108C76.432 34.3134 76.2468 34.0117 76.0792 33.7538C73.6714 30.1464 72.0221 26.1236 70.999 21.9259C70.8402 21.2744 70.7167 20.6098 70.6065 19.9495C70.3463 18.3667 70.1699 16.775 69.8215 15.2097C69.1689 12.2407 67.2197 13.9766 65.0368 14.9342C64.8515 15.0173 64.6575 15.1047 64.534 15.2709C64.3797 15.472 64.3709 15.7519 64.3797 16.0098C64.4282 19.2893 64.9574 22.6736 64.6972 25.9006C64.5781 27.4616 64.265 28.9833 63.6344 30.435C63.458 30.8372 63.2552 31.2483 63.2463 31.6855Z" fill="#FABF89"/>
<path d="M64.5302 14.9341C64.5787 18.2136 65.1079 21.598 64.8477 24.8249C66.8189 25.1704 69.1253 22.8966 70.0735 21.047C70.391 20.4217 70.6159 19.6784 70.7526 18.8738C70.4924 17.291 70.316 15.6993 69.9676 14.134C69.315 11.165 67.3658 12.9009 65.1829 13.8585C64.9977 13.9416 64.8036 14.029 64.6801 14.1952C64.5302 14.3963 64.5214 14.6762 64.5302 14.9341Z" fill="#FEAB62"/>
<path d="M62.5762 21.5674C61.2621 19.7266 60.0405 17.7808 59.335 15.6382C58.625 13.4913 58.4574 11.1126 59.2335 8.99188C59.7804 7.50083 60.8123 6.15407 62.2146 5.38887C63.617 4.62367 65.3986 4.49249 66.8318 5.2096C68.2606 5.92233 69.1999 7.37402 69.6497 8.90005C70.4435 11.6023 70.8316 16.3203 69.4866 18.9482C68.243 21.3706 64.6754 24.5102 62.5762 21.5674Z" fill="#FABF89"/>
<path d="M57.3592 8.39282C57.3681 8.67704 57.3901 8.96125 57.4254 9.24547C57.5312 10.0238 57.7958 10.8546 58.4485 11.3006C58.8895 11.5979 59.4407 11.6766 59.9699 11.7466C61.8794 11.9958 64.027 11.9783 65.8792 12.4593C68.6266 13.172 69.6056 16.5214 70.3861 18.8783C71.1005 21.0252 71.5371 25.0917 73.7112 26.2942C74.6241 26.8014 75.7398 26.7358 76.7849 26.6527C79.594 26.4341 82.6545 26.1061 84.6478 24.1341C85.4769 23.3121 86.0458 22.2583 86.4294 21.1607C87.4128 18.3536 87.1967 15.1572 85.8473 12.503C84.5243 9.89699 82.1959 7.88997 79.6029 6.50387C77.2083 5.2227 74.5226 4.42689 72.3044 2.83527C70.1127 1.26552 69.1514 0.224844 66.1747 0.0193329C63.7448 -0.151198 61.2532 0.815142 59.5862 2.57292C58.1222 4.12081 57.3107 6.26337 57.3592 8.39282Z" fill="#936037"/>
<path d="M60.5475 31.3663C60.4064 31.1695 60.252 30.9771 60.0756 30.7935C59.9257 30.6361 59.7405 30.4787 59.5244 30.4874C59.3436 30.4962 59.1936 30.6186 59.0613 30.741C57.3591 32.2583 55.8906 34.0379 54.7308 35.9969C53.7253 37.6934 52.8742 39.4206 51.688 41.0035C50.6649 42.3721 49.9681 43.9856 48.9273 45.376C47.1149 47.7941 44.8526 51.0473 44.8526 51.0473C39.8606 51.5589 35.1023 51.4976 30.1014 51.2178C28.8534 51.1478 27.5701 51.0691 26.4236 50.5707C25.8988 50.3433 25.4093 50.0285 24.8624 49.8492C23.3587 49.3595 21.6344 50.0372 20.6245 51.2397C21.7446 51.4802 22.9309 51.5239 24.0334 51.7906C25.0432 52.0355 25.4798 52.5208 26.2339 53.3035C28.4433 55.5947 31.6934 56.5305 34.8024 57.2738C37.9952 58.0346 41.21 58.6862 44.4469 59.2327C45.4744 59.4076 46.5328 59.5694 47.5603 59.3814C49.4433 59.036 51.1455 57.2082 52.3671 55.8177C53.8356 54.1431 55.2512 52.4115 56.6491 50.68C58.2411 48.7079 59.5773 46.5129 61.2134 44.6065C62.5319 43.0673 63.8946 41.069 63.6785 38.9527C63.5286 37.466 62.5584 36.5478 62.1086 35.2142C61.6411 33.8499 61.3677 32.5207 60.5475 31.3663Z" fill="#FABF89"/>
<path d="M63.7182 145.18C63.2949 145.303 62.845 145.259 62.4085 145.219C62.0116 145.18 61.6147 145.145 61.2178 145.106C61.037 145.088 60.8518 145.071 60.6798 145.132C60.4769 145.202 60.327 145.368 60.1815 145.526C59.0305 146.759 57.487 147.712 55.798 147.861C55.6657 148.302 55.873 148.801 56.2302 149.098C56.583 149.395 57.0592 149.522 57.5267 149.544C58.1044 149.57 58.6865 149.448 59.2025 149.194C59.5773 149.011 59.9169 148.757 60.3182 148.634C61.4692 148.276 62.7965 149.08 63.8858 148.569C64.4591 148.302 64.8295 147.712 64.9883 147.1C65.2043 146.291 65.1382 145.211 64.6046 144.537C64.3797 144.813 64.0754 145.075 63.7182 145.18Z" fill="#A53D99"/>
<path d="M59.7102 65.4857C64.6052 66.8586 69.5884 67.9081 74.6245 68.6252C78.2142 69.1368 82.236 69.3685 85.0804 67.1429C85.2127 67.0379 83.1886 57.3876 83.1577 56.0365C83.043 51.4716 82.7079 46.9066 82.6814 42.3372C81.5172 41.6682 79.5151 39.1147 79.1799 37.0639C78.6375 33.7408 77.9716 32.7001 79.0432 29.5912C76.6795 29.3726 75.0126 28.6817 72.8032 27.8159C73.1163 27.9384 71.1804 31.2309 70.9466 31.5239C70.2234 32.4465 68.9269 32.993 67.7671 33.0149C66.6205 33.0368 65.3108 32.7526 64.7507 31.76C64.2039 30.7893 64.3582 29.7748 64.3097 28.4193C63.4057 29.2064 61.9063 29.3201 60.7641 29.7092C58.4092 30.5138 57.3553 32.8881 56.7379 35.0963C56.0323 37.6192 56.0323 40.2821 56.2175 42.8707C56.4468 46.1108 56.9584 49.329 57.7434 52.4816C58.8591 56.9416 59.7013 60.8857 59.7102 65.4857Z" fill="#31A18D"/>
<path d="M77.3103 62.674C75.6919 59.8581 75.3258 56.5262 74.9907 53.3036C74.4879 48.4369 73.8794 43.8282 74.5629 38.9135C74.6996 37.9165 74.8892 36.9239 75.1494 35.9489C75.4537 34.7989 75.855 33.6751 76.3754 32.6082C76.6356 32.0747 76.9222 31.5544 77.2441 31.0559C77.5661 30.5531 77.9409 30.1202 78.3025 29.6523C78.3202 29.6261 78.3422 29.5999 78.3422 29.5693C78.3422 29.5037 78.2717 29.4687 78.2099 29.4425C77.5705 29.202 76.9222 28.9571 76.2431 28.8871C76.1505 28.8784 76.0579 28.874 75.9697 28.9003C75.8065 28.9571 75.6433 29.1801 75.5331 29.3025C74.0073 31.0166 72.6931 35.8527 72.036 38.2401C71.6832 39.5256 70.9424 45.1969 71.0306 46.5261C71.0129 46.2375 66.2987 46.583 65.8445 46.6311C65.0948 46.7098 64.4333 46.8016 63.6925 46.701C62.8458 46.5873 61.5713 46.3687 60.6805 46.325C60.5526 42.875 60.7907 39.683 60.6629 36.2287C60.6188 34.9913 60.8216 33.4783 61.0774 32.2671C61.3332 31.0559 61.6727 29.8666 62.6738 29.132C61.7212 28.839 60.6673 29.39 60.0763 30.1902C58.8768 31.8211 58.502 34.2129 58.3741 36.1281C58.2109 38.533 58.1448 40.8024 58.0875 43.2117C57.9772 47.8772 58.4888 52.5428 58.6299 57.2039C58.6828 58.9923 58.8812 60.7545 59.0003 62.5429C59.0665 63.5617 59.1591 64.6461 59.7809 65.4637C60.2748 66.1109 61.0333 66.4913 61.7653 66.8455C64.5083 68.166 67.5335 69.6308 70.616 69.8451C73.6148 70.055 76.6135 70.7808 79.6299 70.0418C80.9617 69.7139 82.3552 69.1804 83.5547 68.5246C84.8557 67.8162 85.2878 67.8293 84.1545 67.4402C81.7114 66.5919 78.6333 64.974 77.3103 62.674Z" fill="#A53D99"/>
<path d="M71.6076 51.8081C71.224 53.2773 71.687 54.8121 71.9693 56.3031C72.2515 57.7942 72.2956 59.5082 71.2681 60.6363C70.589 61.3841 69.5526 61.7207 68.5472 61.8476C66.7215 62.0793 64.8208 61.7207 63.2156 60.8331C62.8584 60.6363 62.5056 60.4046 62.263 60.0767C61.9632 59.6656 61.8661 59.1409 61.7868 58.6381C61.5574 57.1514 61.4163 55.6516 61.3678 54.1474C61.3281 52.8925 61.1253 52.0399 62.5497 51.9218C64.0094 51.8037 65.5661 52.053 67.0346 52.0399C67.4711 52.0311 71.5327 52.0967 71.6076 51.8081Z" fill="#FFDE00"/>
<path d="M22.7149 47.2301C23.0059 47.2694 23.297 47.3132 23.588 47.3656C23.9981 47.4443 24.448 47.5449 24.6861 47.8816C24.9242 48.2183 24.717 48.8348 24.3068 48.7867C24.4744 50.4439 24.6464 52.1055 24.814 53.7627C24.8404 54.0426 24.8493 54.3705 24.6288 54.541C24.4965 54.646 24.3112 54.6591 24.1437 54.6722C23.5439 54.7116 22.9662 54.799 22.3665 54.7946C22.0975 54.7946 21.8064 54.7815 21.6036 54.6066C21.3654 54.3967 21.3522 54.0382 21.3566 53.7234C21.3698 52.8488 21.3831 51.9787 21.4007 51.1042C21.4007 50.9905 21.4051 50.8724 21.361 50.7675C21.3169 50.6582 21.2287 50.5707 21.1405 50.492C20.21 49.67 18.8915 49.67 17.7316 49.4076C16.4087 49.1059 15.0989 48.7211 13.8245 48.2576C13.8686 47.9953 14.0229 47.7635 14.142 47.5274C14.2655 47.2913 14.3537 47.0114 14.2655 46.7578C14.2037 46.5873 14.067 46.4474 14.0405 46.2725C14.0361 46.2462 14.0361 46.2113 14.0538 46.1894C14.0802 46.1544 14.1332 46.1588 14.1773 46.1675C14.9534 46.2987 15.734 46.408 16.4925 46.5873C18.5298 47.0552 20.6466 46.9633 22.7149 47.2301Z" fill="#FC614A"/>
<path d="M21.3742 51.8955C20.8627 51.8955 20.4041 51.7599 20.0469 51.502C19.5044 51.1084 19.3192 50.1989 19.6544 49.5562L20.0557 49.7617C19.822 50.2077 19.9498 50.8767 20.3115 51.1434C20.8142 51.5107 21.4757 51.467 21.8241 51.4101L21.899 51.8518C21.7226 51.878 21.5418 51.8955 21.3742 51.8955Z" fill="#FC614A"/>
<path d="M24.8804 48.3099L15.0683 46.5303C14.4377 46.4166 14.0187 45.8132 14.1334 45.1879C14.2481 44.5626 14.8566 44.1472 15.4872 44.2609L25.2993 46.0406C25.9299 46.1543 26.3489 46.7577 26.2342 47.3829C26.1196 48.0039 25.511 48.4236 24.8804 48.3099Z" fill="#FFDE00"/>
<path d="M14.6672 47.0944C14.6761 46.8277 14.6099 46.5522 14.4511 46.3292C14.3806 46.2286 14.2615 46.1324 14.138 46.1587C14.019 46.1805 13.9528 46.2986 13.9087 46.4035C13.7279 46.8102 13.234 47.8727 13.7676 48.1919C14.3982 48.5723 14.654 47.4704 14.6672 47.0944Z" fill="#D45248"/>
<path d="M13.4059 46.5521C13.2692 46.6046 13.1677 46.727 13.1236 46.8625C13.0795 46.9981 13.0884 47.1511 13.1281 47.2867C13.1457 47.3567 13.1766 47.4266 13.2207 47.4878C13.3 47.5928 13.4279 47.6584 13.5558 47.689C13.6881 47.7196 13.8204 47.7152 13.9527 47.7152C14.0145 47.7152 14.0718 47.7152 14.1335 47.7108C14.16 47.7108 14.1908 47.7108 14.2173 47.6977C14.2526 47.6802 14.2702 47.6452 14.2835 47.6103C14.3672 47.4047 14.4907 46.9194 14.3231 46.7314C14.16 46.539 13.622 46.4734 13.4059 46.5521Z" fill="#A53D99"/>
<path d="M10.2792 45.7653C9.49423 45.4286 8.65194 45.1706 7.79641 45.2012C7.89343 45.328 8.04778 45.4111 8.20654 45.4198C7.95958 45.3455 7.67294 45.4111 7.48331 45.586C7.69499 45.6166 7.90666 45.6472 8.11834 45.6778C7.84933 45.6734 7.58033 45.7609 7.36865 45.9183C7.99927 45.9839 8.62989 46.0801 9.2561 46.2069C9.22082 46.255 9.18113 46.3031 9.14585 46.3512C9.36193 46.5436 9.64858 46.6354 9.9264 46.7185C10.9627 47.0246 12.0343 47.2257 13.1104 47.3175C13.0883 47.3175 12.9384 47.0901 12.9031 47.0552C12.8237 46.9852 12.7311 46.9196 12.6385 46.8671C12.4136 46.736 12.1622 46.6441 11.9285 46.5348C11.3773 46.2812 10.8393 46.0014 10.2792 45.7653Z" fill="#31A18D"/>
<path d="M4.05696 43.1677C3.99081 43.2158 4.06137 43.3164 4.12752 43.3645C4.28628 43.4826 4.44504 43.6006 4.60379 43.7187C4.40094 43.64 4.17603 43.6225 3.96436 43.6793C4.18044 43.7886 4.39653 43.8936 4.61261 44.0029C4.50237 43.9854 4.38771 44.0248 4.31274 44.0991C4.50237 44.169 4.6964 44.2346 4.88603 44.3046C5.50342 44.5232 6.11639 44.7462 6.73378 44.9649C6.50006 44.8031 6.21341 44.6588 6.01497 44.4489C5.86944 44.2915 5.78124 44.1253 5.60925 43.9898C5.14621 43.6312 4.6082 43.3557 4.05696 43.1677Z" fill="#31A18D"/>
<path d="M1.01836 43.9242C0.749359 43.8368 0.475944 43.7449 0.251038 43.5744C0.608241 43.5832 0.961035 43.64 1.3006 43.7406C0.912526 43.5963 0.550912 43.3864 0.233398 43.124C0.484764 43.124 0.731719 43.1503 0.974264 43.2027C0.806688 43.1284 0.643521 43.0366 0.489174 42.9316C0.793458 43.0147 1.07569 43.1634 1.35352 43.3121C2.58388 43.9592 3.84512 44.5451 5.13282 45.0655C5.49884 45.2141 5.9266 45.3541 6.23529 45.6033C5.84722 45.6951 5.64878 45.4677 5.32244 45.3322C4.8594 45.1442 4.36549 45.0174 3.88922 44.8643C2.93227 44.5495 1.97532 44.239 1.01836 43.9242Z" fill="#31A18D"/>
<path d="M22.8208 49.8055C22.7502 49.7837 22.6708 49.7531 22.5959 49.7706C22.4812 49.7968 22.4151 49.9236 22.4239 50.0417C22.4371 50.1597 22.5077 50.2603 22.587 50.3434C22.7193 50.4833 22.8913 50.597 23.081 50.6363C23.1824 50.6538 23.2882 50.6538 23.3896 50.6669C23.8836 50.7325 24.2496 51.161 24.7214 51.3272C24.8581 51.3753 25.0301 51.3972 25.1404 51.301C25.2198 51.231 25.2506 51.1173 25.255 51.008C25.2815 50.6101 25.0345 50.0329 24.62 49.8974C24.0555 49.705 23.4117 49.9936 22.8208 49.8055Z" fill="#FABF89"/>
<path d="M22.1857 51.9043C22.2519 51.9655 22.3136 52.0529 22.3048 52.1448C22.2872 52.3153 22.0579 52.3634 21.8859 52.3503C21.7139 52.3372 21.4978 52.324 21.4096 52.4727C21.7889 52.5995 22.2254 52.7788 22.3313 53.1636C22.3445 53.2117 22.3489 53.2685 22.3225 53.3079C22.2872 53.356 22.2254 53.3647 22.1681 53.3691C21.9741 53.3866 21.78 53.4041 21.586 53.4216C21.93 53.6446 22.4018 53.7101 22.6179 54.0556C22.6532 54.1124 22.6797 54.1824 22.6664 54.248C22.64 54.3704 22.4944 54.4141 22.371 54.4404C21.9697 54.5234 21.5419 54.6065 21.1494 54.4797C21.0259 54.4404 20.9069 54.3748 20.8187 54.2742C20.7217 54.1649 20.6776 54.0206 20.6467 53.8807C20.532 53.3997 20.5497 52.8881 20.6864 52.4115C20.7393 52.2322 20.8187 52.0442 20.973 51.9393C21.3699 51.6507 21.78 51.5326 22.1857 51.9043Z" fill="#FABF89"/>
<path d="M22.1458 51.034C22.1766 51.1171 22.1414 51.2177 22.0752 51.2789C22.0091 51.3401 21.9209 51.3751 21.8371 51.4013C21.546 51.4888 21.2329 51.5106 20.9331 51.4582C20.8096 51.4363 20.6773 51.3969 20.6111 51.2876C20.4127 50.9553 20.9507 50.6886 21.2109 50.7192C21.3432 50.7323 21.4667 50.8285 21.599 50.8504C21.7753 50.8897 22.0708 50.8241 22.1458 51.034Z" fill="#FABF89"/>
<path d="M84.0527 23.0977L83.8499 23.0058C84.9303 20.6315 84.798 17.715 83.4971 15.2052C82.3108 12.9183 80.2073 11.0162 77.5702 9.85313C77.1997 9.68697 76.8072 9.53393 76.4324 9.38526C75.2682 8.92614 74.0643 8.44953 73.147 7.57502C72.6046 7.05468 72.1901 6.42066 71.7888 5.80849C71.5242 5.40622 71.2552 4.99082 70.9509 4.61041C69.694 3.05814 67.7449 2.06557 65.7383 1.965C63.7318 1.86443 61.69 2.64712 60.2789 4.06384L60.1201 3.90642C61.5754 2.44598 63.6833 1.63706 65.7516 1.742C67.8198 1.84694 69.8307 2.87012 71.1273 4.47049C71.4404 4.85527 71.7138 5.27941 71.9828 5.68606C72.3753 6.28948 72.7854 6.91476 73.3102 7.41323C74.1966 8.25714 75.3784 8.725 76.525 9.17538C76.9043 9.32405 77.2967 9.48146 77.6716 9.64762C80.3528 10.8326 82.496 12.7696 83.7088 15.1002C85.0273 17.6713 85.1596 20.6621 84.0527 23.0977Z" fill="#7D4E24"/>
<path d="M80.8333 24.7462C80.8201 24.7462 80.8069 24.7462 80.7981 24.7462L80.8113 24.5232C80.9348 24.5275 81.0274 24.4926 81.1112 24.4095C81.3228 24.1996 81.4066 23.7492 81.389 23.3994C81.2523 19.9582 80.4188 17.7544 78.7651 16.4689C78.1036 15.9573 77.3142 15.6119 76.5469 15.2752C75.7355 14.921 74.8932 14.5537 74.192 13.9853C73.2306 13.2026 72.6132 12.105 72.0179 11.0469C71.4799 10.0893 70.9198 9.10109 70.1128 8.35338C69.0853 7.40453 67.5771 6.81423 65.8617 6.6918C64.2476 6.57811 62.6071 6.86233 61.1916 7.1378L61.1475 6.91917C62.5763 6.63932 64.2344 6.35073 65.8749 6.46879C67.6389 6.5956 69.1956 7.20339 70.2628 8.18722C71.0962 8.95679 71.6607 9.96249 72.2075 10.9332C72.7941 11.9739 73.4026 13.0539 74.3287 13.806C75.0034 14.3569 75.8281 14.7155 76.6307 15.0653C77.4112 15.4063 78.2138 15.7562 78.8974 16.2896C81.142 18.0343 81.5213 21.1738 81.6095 23.3863C81.6271 23.7798 81.5433 24.2914 81.2655 24.5669C81.1464 24.6893 81.0009 24.7462 80.8333 24.7462Z" fill="#7D4E24"/>
<path d="M77.6983 25.5595L77.4866 25.4895C77.6983 24.8467 77.4558 24.0465 76.8428 23.3513C76.5517 23.0234 76.2078 22.7348 75.8726 22.4506C75.5904 22.2101 75.2949 21.9652 75.0303 21.6941C73.8793 20.5048 73.3457 18.9088 72.8298 17.3609C72.5387 16.482 72.2344 15.5769 71.8243 14.7504C70.0692 11.2393 65.9459 9.06172 62.0299 9.57331L61.999 9.35031C66.0165 8.82997 70.2279 11.0556 72.0228 14.6499C72.4417 15.4894 72.746 16.4033 73.0415 17.2909C73.5706 18.8825 74.0734 20.3867 75.1891 21.5367C75.4449 21.799 75.7359 22.0439 76.0137 22.28C76.3533 22.5642 76.7061 22.8616 77.0104 23.2026C77.6763 23.9591 77.932 24.838 77.6983 25.5595Z" fill="#7D4E24"/>
<path d="M84.1099 15.0042C83.863 13.1197 83.0031 11.3138 81.6933 9.92767C80.3792 8.54157 78.6196 7.57523 76.7366 7.21668L76.7807 6.99805C78.7122 7.36972 80.5115 8.35792 81.8565 9.77901C83.2015 11.2001 84.0835 13.0453 84.3349 14.978L84.1099 15.0042Z" fill="#7D4E24"/>
<path d="M60.3802 11.4667C59.6438 11.1344 59.044 10.5222 58.7265 9.7876C58.3252 8.85624 58.3913 7.82869 58.4575 6.83611C58.4884 6.33764 58.5236 5.82167 58.4972 5.32757L58.7221 5.31445C58.7485 5.82167 58.7133 6.34638 58.6824 6.84923C58.6162 7.85929 58.5545 8.81689 58.9338 9.70015C59.2292 10.3866 59.7893 10.9551 60.4728 11.2655L60.3802 11.4667Z" fill="#7D4E24"/>
<path d="M75.8458 25.7344C74.8756 25.4764 73.9584 24.7724 73.266 23.7492C72.653 22.8397 72.2694 21.8034 71.8945 20.8021L72.1062 20.7234C72.4722 21.716 72.8515 22.7391 73.4512 23.6268C74.1127 24.6019 74.9815 25.2752 75.9031 25.5201L75.8458 25.7344Z" fill="#7D4E24"/>
</svg>
