<svg width="504" height="374" viewBox="0 0 504 374" fill="none" xmlns="http://www.w3.org/2000/svg">
<g clip-path="url(#clip0)">
<g filter="url(#filter0_i)">
<path d="M308.663 353.529C249.759 369.008 188.886 383.132 129.049 365.998C112.606 361.291 92.7033 360.687 77.8798 352.841C61.835 344.348 47.9694 331.803 37.2899 317.14C16.6885 288.862 4.46704 250.162 2.57989 215.238C2.57785 215.19 2.57581 215.143 2.57172 215.094C1.54237 195.365 8.23111 176.05 16.2923 158.021C24.4373 139.802 34.5347 121.72 50.3324 109.57C75.5086 90.2099 107.126 91.7749 135.789 82.2208C163.33 73.0394 179.373 49.3445 203.275 34.3495C234.249 14.9196 273.326 16.3351 307.019 25.6824C340.893 35.0788 372.24 46.2144 392.747 77.202C408.398 100.852 413.414 129.092 429.579 152.472C443.492 172.592 465.234 188.466 475.356 210.266C489.545 240.825 477.828 275.568 464.07 306.279C462.416 309.972 460.666 313.75 457.588 316.654C448.052 325.649 442.503 333.073 428.221 334.915C408.385 337.473 388.227 336.658 368.404 339.309C348.101 342.023 328.478 348.322 308.663 353.529Z" fill="#89CBE8"/>
</g>
<g opacity="0.8">
<path d="M212.007 16.3993C216.594 12.3322 223.094 8.04544 228.291 11.2901C230.617 12.7413 231.909 15.3702 233.851 17.3122C241.092 24.553 255.692 21.093 261.078 29.8108C261.267 25.9051 266.945 24.4561 270.16 26.6694C273.374 28.8828 274.596 32.9801 275.601 36.7565C286.055 36.7673 296.507 36.9783 306.952 37.3895C306.881 38.6512 306.81 39.9151 306.737 41.1768C291.344 50.4651 271.85 45.6659 253.996 43.67C219.881 39.8527 181.869 49.1948 149.215 36.0654C163.472 34.0028 177.267 30.9842 191.589 31.9724C191.81 25.1623 192.199 15.0214 199.541 11.7745C201.856 10.7497 215.413 13.3743 212.007 16.3993Z" fill="white"/>
<path d="M407.008 92.8437C410.498 92.9923 414.273 93.0612 417.129 91.0459C415.482 87.517 411.249 85.42 407.453 86.251C406.108 86.546 404.796 87.1661 403.424 87.0498C401.635 86.8991 400.203 85.5491 399 84.2099C394.445 79.1395 389.7 72.536 382.905 72.8956C381.756 72.9559 380.562 73.2228 379.484 72.8181C377.964 72.2453 377.225 70.5681 376.57 69.0803C374.957 65.4201 372.569 61.6609 368.751 60.4982C364.933 59.3356 359.919 62.591 360.9 66.4687C359.751 65.4051 358.254 64.7247 356.7 64.5632C356.584 68.8564 356.468 73.1496 356.352 77.4428C356.148 76.2996 354.271 76.7646 353.756 77.8046C353.24 78.8445 353.195 80.2074 352.252 80.8813C351.282 81.5767 349.95 81.1289 348.816 80.7564C343.109 78.8811 336.92 79.5744 330.956 80.287C326.504 80.821 322.051 81.3528 317.599 81.8868C316.502 82.0181 315.342 82.1753 314.481 82.8664C312.716 84.2831 312.252 86.0207 310.257 87.2178C324.263 86.7226 338.459 89.9371 352.549 90.5335C370.703 91.3043 388.856 92.0729 407.008 92.8437Z" fill="white"/>
<path d="M216.693 39.1378L216.282 38.8321C218.368 36.0159 218.952 32.0219 217.809 28.4091C216.768 25.1128 214.294 22.0705 211.025 20.066L211.292 19.6289C214.715 21.7281 217.201 24.7898 218.297 28.2519C219.488 32.0219 218.872 36.1924 216.693 39.1378Z" fill="#EDEDE0"/>
<path d="M237.637 30.881C237.405 28.3124 236.325 25.8472 234.594 23.9396C234.201 23.5068 233.666 22.9879 233.013 22.8178C232.464 22.6714 231.744 22.8458 231.493 23.3819L231.031 23.1645C231.411 22.3592 232.403 22.131 233.142 22.3226C233.926 22.5272 234.532 23.1106 234.972 23.5972C236.778 25.5867 237.905 28.1574 238.146 30.8358L237.637 30.881Z" fill="#EDEDE0"/>
<path d="M259.854 38.8234L259.373 38.6554C259.845 37.299 259.6 35.6777 258.718 34.3191C257.835 32.9606 256.454 32.08 255.026 31.9658L255.067 31.4556C256.652 31.5826 258.177 32.5493 259.145 34.0414C260.114 35.5292 260.378 37.3184 259.854 38.8234Z" fill="#EDEDE0"/>
<path d="M272.537 41.7819L272.077 41.558C273.132 39.392 273.123 36.705 272.058 34.5433C270.993 32.3838 268.867 30.7453 266.511 30.2673L266.612 29.7656C269.12 30.2737 271.382 32.0156 272.515 34.3151C273.651 36.6145 273.658 39.476 272.537 41.7819Z" fill="#EDEDE0"/>
<path d="M193.985 38.1158L193.487 38.0081C193.655 37.2199 193.174 36.5285 192.669 36.1473C192.162 35.7639 191.37 35.4904 190.659 35.8716L190.418 35.4193C191.189 35.008 192.169 35.1286 192.976 35.7381C193.781 36.3498 194.168 37.2608 193.985 38.1158Z" fill="#EDEDE0"/>
<path d="M356.586 88.6887L356.081 88.6219C356.448 85.8531 354.38 82.9098 351.655 82.3242L351.763 81.8247C354.784 82.4728 356.994 85.6163 356.586 88.6887Z" fill="#EDEDE0"/>
<path d="M360.044 81.4737L359.537 81.4242C359.788 78.8125 358.339 76.1492 356.011 74.9499L356.243 74.4956C358.751 75.7896 360.314 78.6575 360.044 81.4737Z" fill="#EDEDE0"/>
<path d="M367.641 75.0121C367.469 72.0882 366.877 69.9674 365.777 68.3397C364.607 66.6087 362.354 65.0714 359.96 65.5407L359.861 65.0391C362.485 64.5202 364.935 66.1824 366.198 68.0534C367.351 69.7607 367.972 71.9633 368.15 74.9841L367.641 75.0121Z" fill="#EDEDE0"/>
<path d="M387.724 87.3235L387.295 87.0479C388.532 85.108 388.328 82.337 386.82 80.6017C385.315 78.8663 382.604 78.2785 380.519 79.2366L380.307 78.7716C382.592 77.7209 385.557 78.3646 387.207 80.2658C388.854 82.1669 389.077 85.2006 387.724 87.3235Z" fill="#EDEDE0"/>
<path d="M375.982 86.161L375.473 86.1179C375.561 85.0888 375.071 84.0208 374.169 83.2608C373.265 82.5029 372.131 82.208 371.135 82.4771L371.004 81.984C372.159 81.674 373.467 82.0056 374.498 82.8711C375.528 83.7345 376.085 84.966 375.982 86.161Z" fill="#EDEDE0"/>
<path d="M406.218 90.0951C405.181 88.454 402.776 87.8186 401.069 88.7383L400.828 88.286C402.791 87.2307 405.456 87.9328 406.65 89.8195L406.218 90.0951Z" fill="#EDEDE0"/>
<path d="M341.953 85.4335L341.444 85.412C341.453 85.1837 341.257 85.0136 341.088 84.9382C340.918 84.8628 340.663 84.8327 340.499 84.9963L340.139 84.6345C340.422 84.3502 340.875 84.2878 341.292 84.4708C341.708 84.6539 341.968 85.033 341.953 85.4335Z" fill="#EDEDE0"/>
</g>
<path d="M333.35 197.247L328.197 187.75L333.049 178.086C333.602 176.988 332.661 175.723 331.456 175.951L320.886 177.95L313.255 170.323C312.388 169.453 310.907 169.965 310.747 171.187L309.369 181.925L299.802 186.868C298.714 187.429 298.738 189.009 299.845 189.534L309.566 194.168L311.282 204.856C311.478 206.072 312.973 206.535 313.815 205.64L321.2 197.772L331.825 199.432C333.036 199.617 333.94 198.327 333.35 197.247Z" fill="#FAFFBC"/>
<g clip-path="url(#clip1)">
<path d="M289.356 183.566L286.902 178.818L289.213 173.986C289.476 173.436 289.028 172.804 288.454 172.918L283.421 173.918L279.787 170.104C279.374 169.669 278.669 169.925 278.593 170.536L277.937 175.905L273.381 178.376C272.863 178.657 272.874 179.447 273.401 179.709L278.031 182.027L278.847 187.371C278.941 187.979 279.653 188.21 280.054 187.763L283.57 183.829L288.63 184.659C289.207 184.751 289.637 184.106 289.356 183.566Z" fill="#FAFFBC"/>
</g>
</g>
<defs>
<filter id="filter0_i" x="2.4668" y="19.0498" width="483.334" height="358.776" filterUnits="userSpaceOnUse" color-interpolation-filters="sRGB">
<feFlood flood-opacity="0" result="BackgroundImageFix"/>
<feBlend mode="normal" in="SourceGraphic" in2="BackgroundImageFix" result="shape"/>
<feColorMatrix in="SourceAlpha" type="matrix" values="0 0 0 0 0 0 0 0 0 0 0 0 0 0 0 0 0 0 127 0" result="hardAlpha"/>
<feOffset dx="4" dy="4"/>
<feGaussianBlur stdDeviation="6.5"/>
<feComposite in2="hardAlpha" operator="arithmetic" k2="-1" k3="1"/>
<feColorMatrix type="matrix" values="0 0 0 0 0 0 0 0 0 0 0 0 0 0 0 0 0 0 0.25 0"/>
<feBlend mode="normal" in2="shape" result="effect1_innerShadow"/>
</filter>
<clipPath id="clip0">
<rect width="504" height="372.885" fill="white" transform="translate(0 0.94043)"/>
</clipPath>
<clipPath id="clip1">
<rect width="16.4438" height="18.1092" fill="white" transform="matrix(-1 -4.1723e-09 -4.16259e-09 1 289.444 169.888)"/>
</clipPath>
</defs>
</svg>
