<svg width="194" height="236" viewBox="0 0 194 236" fill="none" xmlns="http://www.w3.org/2000/svg">
<g clip-path="url(#clip0)">
<path d="M59.01 63.269L72.28 59.4402L14.74 41.5757L9.72998 47.2439C9.72998 47.2439 33.65 52.4623 40.48 54.1218C47.31 55.7913 59.01 63.269 59.01 63.269Z" fill="#7D4E24"/>
<path d="M185.98 62.4091L181.6 65.7181L115.71 58.3303L124.97 47.1338L185.98 62.4091Z" fill="#7D4E24"/>
<path d="M72.7401 41.5155L72.2901 59.44L11.1201 43.9548L12.5001 37.4468L72.7401 41.5155Z" fill="#936037"/>
<path d="M185.98 54.6716V62.4092L118.55 57.4507L121.62 37.5269L185.98 54.6716Z" fill="#936037"/>
<path d="M133.65 217.021C133.97 217.571 133.99 218.241 133.99 218.881C134 219.6 134 220.33 133.78 221.01C133.47 221.93 132.78 222.67 132.14 223.409C130.57 225.219 129.2 227.198 128.09 229.317C127.7 230.057 127.2 230.907 126.36 230.987C125.65 231.047 125.01 230.457 124.78 229.777C124.55 229.098 124.63 228.368 124.72 227.658C124.87 226.408 125.03 225.129 125.59 223.999C126.14 222.879 127.05 221.98 127.79 220.97C128.61 219.84 129.23 218.581 129.96 217.391C130.75 216.112 132.7 215.372 133.65 217.021Z" fill="#FC614A"/>
<path d="M66.2802 235.196C63.7902 235.965 60.8502 236.155 58.8002 234.556C58.7302 234.506 58.6602 234.446 58.6202 234.356C58.5402 234.176 58.6502 233.966 58.7602 233.796C59.5402 232.616 60.3402 231.407 61.5202 230.617C63.8502 229.058 66.9602 229.557 69.6702 228.808C71.4202 228.328 73.5702 226.928 75.4302 227.678C76.7302 228.208 77.5302 229.797 76.9502 231.117C76.2002 232.826 74.0902 232.646 72.5602 232.996C70.4002 233.516 68.4002 234.536 66.2802 235.196Z" fill="#FC614A"/>
<path d="M75.8602 176.614C77.5102 181.643 79.6102 186.591 82.7502 190.86C85.3302 194.369 88.5702 197.338 91.7802 200.297C99.3402 207.245 106.92 214.213 115 220.571C119.04 223.75 124.6 226.869 129.01 224.219C132.7 221.99 133.23 216.622 131.42 212.743C129.61 208.854 126.12 206.055 122.9 203.196C115.23 196.388 108.45 188.431 104.07 179.203C99.6902 169.976 97.8202 159.399 99.9702 149.433C101.99 140.035 107.46 131.378 107.75 121.771C99.1602 119.972 89.9602 121.601 81.3702 122.681C76.0802 123.351 70.7602 116.603 69.2602 122.091C67.4602 128.659 70.1702 144.824 70.8002 151.472C71.6002 159.979 73.1802 168.457 75.8602 176.614Z" fill="#59284E"/>
<path d="M119.42 136.426C117.97 143.214 114.97 149.552 112.61 156.09C107.67 169.766 101.65 182.422 95.8998 195.788C92.3498 204.035 91.3498 213.612 86.5298 221.18C84.3098 224.679 81.9398 228.308 78.3198 230.337C74.6998 232.367 69.4398 232.147 67.0898 228.738C65.2398 226.068 65.7198 222.49 66.3898 219.321C70.5998 199.467 81.1098 179.813 86.1698 160.159C88.1698 152.371 89.0398 150.342 89.5398 144.824C90.0398 139.305 90.6398 139.225 86.3298 135.716C80.7698 131.198 72.6998 128.609 69.2598 122.331C69.9198 123.53 85.7998 120.061 87.7598 119.911C94.0198 119.431 100.26 118.812 106.47 117.882C111.64 117.102 116.2 110.034 118.66 115.593C120.86 120.611 120.54 131.188 119.42 136.426Z" fill="#A53D99"/>
<path d="M189.01 55.7911C190.19 55.7112 191.44 55.6312 192.48 56.191C193.52 56.7508 194.14 58.2404 193.39 59.1501C192.94 59.6999 192.19 59.8599 191.49 59.9798C189.55 60.3397 187.6 60.6896 185.66 61.0495C185.44 61.5993 185.52 62.2491 185.87 62.729C165.2 58.7802 143.79 62.609 122.87 60.3097C119.48 59.9399 115.96 59.35 113.21 57.3307C106.97 52.7621 110 45.0445 117.16 44.1147C123.06 43.345 130.65 47.6537 136.33 49.1132C153.51 53.5418 171.21 56.9708 189.01 55.7911Z" fill="#FABF89"/>
<path d="M4.58 35.1977C3.06 34.7978 1.53 34.6278 0 34.9877C0.16 36.1674 1.53 36.5572 2.41 37.1071C2.89 37.407 6.35 39.0265 6.37 39.4663C6.39 40.0562 6.08 40.646 5.58 40.9659C26.33 44.4948 45.04 55.5714 65.44 60.7398C68.75 61.5795 72.25 62.2593 75.53 61.3296C82.98 59.2302 82.83 50.9428 76.46 47.5638C71.2 44.7747 62.58 46.1643 56.75 45.5445C56.12 45.4745 55.5 45.4145 54.87 45.3445C47.02 44.4748 39.18 43.3651 31.45 41.7257C29.72 41.3558 28.05 40.8759 26.37 40.4061C24.61 39.9162 22.58 39.9162 20.77 39.6463C16.99 39.0865 13.23 38.3267 9.64 36.9971C7.99 36.3773 6.29 35.6375 4.58 35.1977Z" fill="#FABF89"/>
<path d="M101.83 41.9858C100.25 46.2844 95.9299 49.9633 91.4899 51.123C86.8399 52.3426 81.4099 50.8031 78.6099 46.9043C80.9499 46.3644 83.5899 43.3853 84.4099 41.116C85.2499 38.7968 85.3199 36.5075 85.1399 34.2982V34.2882C84.5899 27.4003 81.7099 21.2522 92.3199 17.4434C92.7099 20.8423 92.9799 24.5712 93.6799 28.17C93.6799 28.18 93.6799 28.18 93.6799 28.18C94.7599 33.7083 96.8299 38.8967 101.83 41.9858Z" fill="#FABF89"/>
<path d="M93.6896 28.1698C93.6896 28.1798 93.6896 28.1798 93.6896 28.1698C93.6396 28.3197 93.5796 28.4697 93.5196 28.6096C92.5796 30.9489 90.8196 33.0683 88.4496 33.928C87.3596 34.3279 86.2396 34.4279 85.1396 34.2879V34.2779C84.5896 27.39 81.7096 21.2419 92.3196 17.4331C92.7096 20.8421 92.9896 24.5809 93.6896 28.1698Z" fill="#FEAB62"/>
<path d="M75.9797 24.1412C78.0097 28.26 82.8897 31.349 87.1997 29.7795C89.5697 28.9098 91.3297 26.8004 92.2697 24.4611C93.2097 22.1219 93.4297 19.5527 93.4897 17.0334C93.5697 13.4345 93.1597 9.41579 90.4797 7.01653C87.0097 3.90749 78.6497 3.78753 75.5297 7.63634C72.4197 11.4652 74.0397 20.1925 75.9797 24.1412Z" fill="#FABF89"/>
<path d="M92.1598 20.1623C92.8998 20.5122 93.8298 20.2123 94.4098 19.6325C94.9898 19.0526 95.2898 18.2429 95.4998 17.4531C96.5398 13.4744 95.6498 9.04573 93.1398 5.78674C92.6198 5.10695 91.5998 4.45715 91.0198 5.07696C90.8498 5.2569 90.7698 5.51682 90.5898 5.68677C90.2298 6.04666 89.5698 5.9067 89.1998 5.54681C88.8198 5.18692 88.6398 4.67708 88.4098 4.21722C87.3098 2.0279 84.7698 0.658322 82.3398 0.948232C79.9098 1.22815 77.7498 3.14755 77.1798 5.52682C75.8898 4.01728 73.3198 4.11725 71.7998 5.40685C70.2798 6.68646 69.6698 8.79581 69.6998 10.7852C69.7198 12.1448 70.0798 13.6543 71.2098 14.4141C72.9998 15.6137 75.3298 14.3141 77.2398 13.3044C80.3798 11.6349 85.7098 9.72552 89.2798 11.0651C92.5798 12.3047 92.0298 17.3432 92.1598 20.1623Z" fill="#936037"/>
<path d="M72.3702 43.8748C67.4502 44.7346 62.4802 45.2844 57.4902 45.5143C56.6702 45.5543 55.7802 45.6143 55.1602 46.1541C54.6102 46.644 54.4201 47.4237 54.2601 48.1435C53.7501 50.4228 53.2402 52.7121 52.7402 54.9914C52.6902 55.2313 52.6301 55.4713 52.6901 55.7112C52.7601 56.0511 53.0402 56.311 53.3102 56.5409C55.4202 58.3404 57.8802 59.7099 60.5202 60.5597C62.3902 61.1595 64.4802 61.5894 65.7102 63.1089C66.7402 64.3985 66.9002 66.158 67.0002 67.8074C67.4302 74.5853 67.8002 81.3533 68.1202 88.1412C68.2802 91.6001 68.1802 95.169 68.5602 98.6079C68.8502 101.237 69.2702 103.177 68.9402 105.916C68.1402 112.434 69.4402 119.571 67.4802 125.859C84.2202 130.658 102.33 130.548 119 125.55C120.01 125.25 121.14 124.81 121.49 123.83C121.7 123.26 121.59 122.631 121.46 122.031C120.48 117.442 119.24 113.443 118.76 108.695C118.27 103.816 117.86 98.8978 116.71 94.1193C114.67 85.6519 113.19 77.0546 112.29 68.3973C112.15 67.0977 113.15 64.6384 113.6 63.4088C114.49 60.9696 115.97 60.0798 118.57 60.0798C119.65 60.0798 121.55 60.7896 122.9 60.3198C123.29 60.1798 123.96 57.3707 124.01 57.0108C124.59 53.002 124.92 48.9633 124.99 44.9245C119.92 43.8049 114.93 42.3153 109.88 41.1957C105.37 40.196 102.29 39.8661 97.8902 38.4365C98.6402 40.196 96.1402 43.0351 94.6902 44.2747C93.2302 45.5143 91.2102 45.9242 89.3102 45.7443C86.5802 45.4943 84.7102 43.9048 84.4402 41.1357C80.4502 42.2453 76.4302 43.1651 72.3702 43.8748Z" fill="#FFDE00"/>
<path d="M181.6 65.7184C159.77 63.759 136.53 63.8989 114.44 63.8989C112.14 60.6499 112.39 61.8296 110.45 58.3507C108.85 55.4915 105.93 51.3928 105.71 48.1538C109.55 49.4134 112.62 49.2435 116.63 49.8333C139.04 53.1023 160.79 56.8511 181.33 60.6799C181.32 60.6899 181.6 63.0092 181.6 65.7184Z" fill="#B17F4A"/>
<path d="M69.6299 41.5158C69.7199 41.4258 69.8099 41.3358 69.9099 41.2358L69.6299 41.5158Z" fill="#B17F4A"/>
<path d="M40.9899 38.5467C38.2999 38.3767 12.4999 37.457 12.4999 37.457C11.9099 38.0468 9.32992 39.6164 9.16992 40.696C24.4699 46.6942 41.6899 50.573 58.1299 50.8929C58.9199 50.9129 60.1599 49.6833 60.8399 49.2934C65.6299 46.6042 70.6199 45.6445 72.7399 41.5158C62.4999 39.4164 51.4199 39.1965 40.9899 38.5467ZM31.9899 42.9753L29.5899 42.2755L31.6899 40.1562L34.1999 40.896L31.9899 42.9753ZM40.9599 45.0747L36.8699 44.175L40.4799 40.896L44.0899 41.1559L40.9599 45.0747ZM45.0299 45.4945L50.0099 41.8957L53.6199 42.2855L49.1299 46.1943L45.0299 45.4945ZM57.2399 47.8538L52.5599 47.264L60.0099 42.2855L64.5699 43.1653L57.2399 47.8538Z" fill="#CA9E67"/>
<path d="M58.1301 50.8827C58.1701 55.8611 58.1201 58.3803 59.0101 63.2688C43.8401 55.3913 28.1801 51.9223 11.5101 48.1335C10.8501 47.9835 10.1201 47.7936 9.72012 47.2438C9.37012 46.7539 9.37012 46.1141 9.38012 45.5143C9.41012 43.9748 9.44012 42.4353 9.47012 40.8857L58.1301 50.8827Z" fill="#B17F4A"/>
<path d="M149.62 44.6647C143.68 42.7153 137.75 41.4657 131.74 39.7362C126.98 38.3566 122.02 37.107 121.61 37.5269C119.85 39.2864 116 43.0252 113.79 44.2948C112.43 45.0846 109.07 47.6438 106.88 48.1336C106.42 48.2436 106.02 48.2536 105.7 48.1536C109.54 49.4132 112.61 49.2433 116.62 49.8331C139.03 53.1021 160.78 56.8509 181.32 60.6797C182.11 58.2105 183.79 56.0412 185.97 54.6616C175.23 51.8025 161.56 48.5835 149.62 44.6647ZM143.56 45.7644L147.08 46.6641L143.17 51.6225L139.17 50.9528L143.56 45.7644ZM133.79 43.8649L137.31 44.7647L133.4 49.7231L129.4 49.0633L133.79 43.8649ZM124.09 40.8459L128.12 42.3154L121.96 48.7034L116.98 47.8537L124.09 40.8459ZM152.31 53.8619L148.3 53.1921L148.32 53.1721L152.7 47.9937L156.22 48.8934L152.46 53.6619L152.31 53.8619ZM161.4 55.6713L157.4 55.0115L157.97 54.3417L161.8 49.8131L165.32 50.7128L162.07 54.8416L161.4 55.6713ZM170.82 57.1708L167.99 56.1911L168.39 55.7013L170.82 52.7422L173.46 53.5919L171.5 56.2511L170.82 57.1708Z" fill="#CA9E67"/>
<path d="M75.5601 11.7949C75.3701 11.7949 75.1801 11.7849 74.9901 11.7749C73.8801 11.6949 73.0801 11.345 72.6201 10.7452C72.3501 10.3853 72.2201 9.95543 72.1101 9.54555C72.0201 9.19566 71.9301 8.78579 71.9801 8.37592C72.0901 7.4562 72.9201 6.65645 73.9501 6.4765C74.7601 6.33655 75.6801 6.53648 76.6201 7.05632C76.7401 7.11631 76.7801 7.26626 76.7101 7.38622C76.6501 7.50619 76.5001 7.54617 76.3801 7.47619C75.7901 7.1463 74.9101 6.7964 74.0301 6.95636C73.3201 7.08631 72.5501 7.63615 72.4601 8.4359C72.4201 8.77579 72.5001 9.12568 72.5801 9.43559C72.6901 9.85546 72.8001 10.1954 73.0101 10.4653C73.3801 10.9551 74.0601 11.245 75.0301 11.305C76.4201 11.405 77.8001 11.1251 79.0501 10.5053C79.1701 10.4453 79.3101 10.4953 79.3701 10.6152C79.4301 10.7352 79.3801 10.8751 79.2601 10.9351C78.1101 11.5049 76.8401 11.7949 75.5601 11.7949Z" fill="#7D4E24"/>
<path d="M83.7701 10.116C83.2101 10.116 82.6101 9.9161 82.0901 9.52622C81.4401 9.04637 80.9901 8.37658 80.6101 7.79676C80.3101 7.3169 79.9701 6.75708 79.8301 6.13727C79.6701 5.42749 79.8101 4.7277 80.2001 4.26785C80.5701 3.82798 81.1201 3.62804 81.5001 3.51808C82.2101 3.30814 83.2801 3.1382 84.3701 3.51808C85.3601 3.86797 86.1401 4.63773 86.4101 5.54745C86.4501 5.67741 86.3801 5.80737 86.2501 5.84736C86.1201 5.88735 85.9901 5.81737 85.9501 5.68741C85.7201 4.92764 85.0501 4.26785 84.2101 3.96794C83.2501 3.62804 82.2801 3.78799 81.6401 3.97794C81.1301 4.12789 80.7901 4.31783 80.5701 4.57775C80.2701 4.92764 80.1701 5.47747 80.3001 6.0373C80.4201 6.58713 80.7201 7.07698 81.0201 7.54683C81.3701 8.09666 81.8001 8.72647 82.3801 9.15634C82.9701 9.5962 83.6701 9.75615 84.2401 9.5862C84.3701 9.54622 84.5001 9.61619 84.5401 9.74615C84.5801 9.87611 84.5101 10.0061 84.3801 10.0461C84.1801 10.086 83.9801 10.116 83.7701 10.116Z" fill="#7D4E24"/>
<path d="M90.3401 11.0551C88.9401 11.0551 88.0901 9.6555 87.7901 9.05569C87.3701 8.21595 87.3801 7.48618 87.8201 7.05631C88.0501 6.82638 88.3601 6.7464 88.5701 6.69642C89.1601 6.56646 89.7301 6.62644 90.1801 6.85637C90.7301 7.14628 91.0701 7.74609 91.0001 8.30592C90.9801 8.43588 90.8601 8.53585 90.7301 8.51586C90.6001 8.49586 90.5001 8.3859 90.5201 8.24594C90.5601 7.87605 90.3301 7.48618 89.9501 7.27624C89.6101 7.0963 89.1601 7.05631 88.6701 7.15628C88.4301 7.20626 88.2601 7.28624 88.1501 7.3962C87.7401 7.79608 88.0901 8.59583 88.2101 8.83576C88.4701 9.3556 89.2001 10.5652 90.3301 10.5652C90.4601 10.5652 90.5701 10.6752 90.5701 10.8051C90.5801 10.9451 90.4801 11.0551 90.3401 11.0551Z" fill="#7D4E24"/>
<path d="M94.5299 15.6835C94.5199 15.6835 94.4999 15.6835 94.4899 15.6835C94.3599 15.6635 94.2699 15.5335 94.2899 15.4036C94.4899 14.2039 94.4399 12.9543 94.1299 11.7747C94.0399 11.4448 93.9199 11.0849 93.6799 10.835C93.4899 10.635 93.1499 10.5051 92.8899 10.635C92.5699 10.805 92.5099 11.2948 92.5199 11.6747C92.5399 12.7044 92.7999 13.7441 93.2599 14.6738C93.3199 14.7938 93.2699 14.9337 93.1499 14.9937C93.0299 15.0537 92.8899 15.0037 92.8299 14.8837C92.3399 13.894 92.0599 12.7844 92.0399 11.6847C92.0199 10.745 92.3699 10.3651 92.6699 10.2052C93.1399 9.96525 93.6999 10.1652 94.0199 10.4951C94.3399 10.825 94.4899 11.2649 94.5899 11.6447C94.9199 12.8844 94.9699 14.2039 94.7599 15.4736C94.7399 15.5935 94.6399 15.6835 94.5299 15.6835Z" fill="#7D4E24"/>
<path d="M94.4502 17.8729C94.6502 17.0731 94.8202 16.2534 94.7602 15.4236C94.7202 14.9238 94.5702 14.4039 94.1702 14.094C93.7902 13.8041 93.2602 13.7841 92.8102 13.9241C92.3602 14.0641 91.9702 14.354 91.5902 14.6439C91.1402 14.9938 90.9902 15.3736 90.9802 15.9335C90.9602 16.6732 90.9902 17.413 91.1302 18.1328C91.2602 18.8126 91.8402 21.5717 92.7002 21.3618C93.1702 21.2518 93.8102 20.4121 93.9202 19.9622C94.0702 19.3624 94.2202 18.7626 94.3802 18.1528C94.4002 18.0728 94.4202 17.9728 94.4502 17.8729Z" fill="#FABF89"/>
</g>
<defs>
<clipPath id="clip0">
<rect width="193.73" height="234.867" fill="white" transform="translate(0 0.908203)"/>
</clipPath>
</defs>
</svg>
