<svg width="107" height="82" viewBox="0 0 107 82" fill="none" xmlns="http://www.w3.org/2000/svg">
<path d="M68.2663 76.4616C55.2152 79.9892 41.7278 83.2082 28.4694 79.3034C24.826 78.2306 20.4161 78.0928 17.1316 76.3048C13.5764 74.3692 10.504 71.5102 8.13753 68.1684C3.57248 61.7239 0.864001 52.904 0.445363 44.9445C0.44491 44.9338 0.444457 44.923 0.443551 44.9118C0.215193 40.4155 1.69694 36.0135 3.48281 31.9047C5.28722 27.7525 7.52426 23.6315 11.0244 20.8626C16.6024 16.4503 23.608 16.807 29.9586 14.6295C36.0608 12.5371 39.6151 7.13693 44.9108 3.71953C51.7736 -0.708624 60.4318 -0.386025 67.8973 1.74425C75.403 3.88573 82.3486 6.42357 86.8928 13.4857C90.3609 18.8756 91.4727 25.3117 95.0548 30.64C98.1377 35.2255 102.956 38.8431 105.199 43.8114C108.343 50.776 105.747 58.694 102.699 65.6931C102.333 66.5348 101.945 67.3957 101.263 68.0577C99.1504 70.1077 97.921 71.7996 94.7565 72.2193C90.3616 72.8024 85.8951 72.6166 81.5029 73.2207C77.0044 73.8393 72.6566 75.2749 68.2663 76.4616Z" fill="#FEF6AC" fill-opacity="0.5"/>
</svg>
