<svg width="85" height="65" viewBox="0 0 85 65" fill="none" xmlns="http://www.w3.org/2000/svg">
<path d="M54.2804 4.28747C43.979 1.50311 33.3333 -1.03768 22.8683 2.04443C19.9925 2.89123 16.5117 2.99994 13.9192 4.41129C11.1131 5.93907 8.68798 8.19574 6.82009 10.8334C3.21684 15.9202 1.07901 22.8818 0.748571 29.1643C0.748213 29.1728 0.747856 29.1813 0.747141 29.1901C0.566895 32.7391 1.73646 36.2137 3.14606 39.4568C4.57031 42.7342 6.33603 45.9869 9.09872 48.1725C13.5015 51.6551 19.0311 51.3736 24.0437 53.0923C28.8603 54.7439 31.6657 59.0063 35.8457 61.7037C41.2625 65.1989 48.0966 64.9442 53.9892 63.2628C59.9135 61.5725 65.3957 59.5693 68.9826 53.9951C71.72 49.7408 72.5975 44.6607 75.4249 40.4551C77.8583 36.8357 81.6611 33.9802 83.4315 30.0587C85.9132 24.5614 83.8644 18.3117 81.4588 12.7872C81.1695 12.1228 80.8635 11.4433 80.3252 10.9208C78.6576 9.30271 77.6872 7.96728 75.1895 7.636C71.7205 7.17575 68.1951 7.32241 64.7283 6.84558C61.1775 6.35732 57.7458 5.22419 54.2804 4.28747Z" fill="#FEF6AC"/>
</svg>
