<svg width="126" height="151" viewBox="0 0 126 151" fill="none" xmlns="http://www.w3.org/2000/svg">
<path d="M100.793 54.6389C100.665 54.4509 100.44 54.346 100.224 54.2804C99.9244 54.1842 99.6025 54.1405 99.2894 54.1536C99.2276 54.1536 99.1527 54.158 99.1086 54.1142C99.0204 54.0355 99.0865 53.8912 99.1615 53.7994C99.7215 53.1129 100.581 52.6757 101.472 52.6232C101.64 52.6144 101.821 52.6232 101.949 52.7238C102.037 52.7937 102.085 52.8987 102.116 53.0036C102.222 53.4059 102.01 53.8475 101.675 54.0968C101.34 54.346 100.903 54.4291 100.484 54.4203L100.793 54.6389Z" fill="#FABF89"/>
<path d="M69.0113 94.01C70.3652 96.7508 71.6881 99.5746 72.2261 102.621C72.5745 104.588 72.5833 106.59 72.4466 108.562C71.988 115.197 69.9065 121.418 68.2352 127.712C66.6564 133.657 65.4349 139.751 64.5749 145.931C63.6974 146.102 62.8242 146.277 61.9466 146.447C61.6776 146.5 61.3778 146.543 61.1484 146.36C60.95 146.202 60.8662 145.918 60.7956 145.656C59.3756 140.502 57.9512 135.309 57.4309 129.994C56.9105 124.679 57.3647 119.162 59.53 114.607C60.3943 112.793 61.5497 110.997 61.4615 108.881C61.3689 106.73 60.0151 104.886 58.7318 103.238C55.9535 99.6664 53.1797 96.0951 50.4015 92.5238C47.6409 88.9744 44.6686 84.4676 45.8107 80.1095C46.5957 77.124 49.2372 75.2531 51.9582 74.9121C55.5478 74.4663 58.9567 75.5066 61.0426 79.0298C63.909 83.8513 66.5109 88.9438 69.0113 94.01Z" fill="#FEAB62"/>
<path d="M54.1057 100.029C54.0263 103.08 53.8808 106.188 52.937 109.139C52.3285 111.04 51.4024 112.824 50.3617 114.507C46.8558 120.18 42.1063 124.735 37.6876 129.552C33.5114 134.098 29.5865 138.937 25.9351 144.025C25.0796 143.776 24.2197 143.527 23.3641 143.278C23.104 143.204 22.8173 143.103 22.6983 142.832C22.5968 142.6 22.6542 142.312 22.7115 142.045C23.8581 136.826 25.0179 131.567 27.042 126.619C29.0662 121.671 32.0385 116.989 36.0868 113.943C37.6964 112.732 39.5618 111.67 40.4702 109.751C41.3919 107.801 41.0523 105.546 40.6863 103.495C39.8925 99.0542 39.0987 94.6174 38.3049 90.1763C37.5156 85.7657 36.982 80.4022 40.0336 77.067C42.1239 74.7808 45.3388 74.3349 47.9097 75.2791C51.301 76.5293 53.8367 79.0165 54.0395 83.0949C54.3262 88.6813 54.2556 94.3901 54.1057 100.029Z" fill="#FABF89"/>
<path d="M23.29 142.74C23.6295 143.02 24.0573 143.16 24.4762 143.295C24.8555 143.418 25.2347 143.54 25.614 143.662C25.786 143.719 25.9624 143.776 26.0947 143.898C26.249 144.043 26.3196 144.257 26.3901 144.454C26.9502 146.04 27.9821 147.522 29.4683 148.331C29.4109 148.79 29.0229 149.161 28.573 149.293C28.1276 149.424 27.6426 149.349 27.206 149.188C26.668 148.982 26.1829 148.641 25.8124 148.204C25.5434 147.885 25.3318 147.518 25.0187 147.247C24.1058 146.464 22.5667 146.674 21.773 145.774C21.354 145.302 21.257 144.615 21.354 143.99C21.4819 143.164 21.9758 142.198 22.7387 141.796C22.8313 142.141 23.0033 142.504 23.29 142.74Z" fill="#A53D99"/>
<path d="M69.4384 85.8534C69.7074 87.261 69.9896 88.6641 70.2851 90.0629C70.5806 91.4617 70.8893 92.8867 70.7702 94.3074C70.7746 94.2768 66.4485 94.2069 66.0516 94.22C64.7771 94.2724 63.4277 94.6046 62.1488 94.7839C59.2868 95.1816 56.3983 95.8067 53.867 97.2449C53.2937 96.6067 52.7204 95.9685 52.1471 95.3259C51.4548 94.5522 50.7536 93.7697 50.2685 92.8518C49.9686 92.2791 49.757 91.6672 49.5453 91.0552C48.9984 89.4684 48.4516 87.8817 47.9048 86.2949C47.4241 84.8961 47.4462 83.8077 47.2565 82.3827C46.842 79.2135 46.401 75.9176 46.4671 72.7135C46.4892 71.6907 46.8773 70.9213 47.0889 69.9465C47.3932 68.5609 47.4814 67.9139 49.069 67.6691C54.5858 66.8167 60.4863 67.4637 65.5092 65.0464C66.0428 66.7905 66.9159 68.6876 67.1673 70.4929C67.379 72.0141 67.4231 73.6009 67.6436 75.1439C68.1639 78.7327 68.7681 82.2996 69.4384 85.8534Z" fill="#59284E"/>
<path d="M35.6716 98.8795C35.6319 98.6216 44.5444 97.7212 45.3558 97.6643C46.9345 97.5594 48.6059 97.6818 50.1626 97.4327C51.4723 97.2228 52.6983 97.3496 54.0213 97.2797C55.2472 92.738 55.6265 88.0083 56.7598 83.4404C58.4488 76.6387 61.2491 71.673 65.5576 66.2352C64.4551 65.9729 64.3581 66.1041 63.313 66.5281C60.5259 67.6471 57.5624 68.1717 54.5725 68.3116C50.2684 68.5126 45.7483 67.5291 41.5236 67.8657C39.4377 68.0318 40.108 67.5772 39.0628 69.7147C38.2205 71.4326 36.8711 73.9024 36.3419 75.7383C34.1855 83.2306 34.4677 91.2518 35.6716 98.8795Z" fill="#A53D99"/>
<path d="M30.3446 39.6058C27.0724 41.7696 23.6327 43.6099 19.6858 44.5497C15.1965 45.6163 10.5308 45.5114 6.20911 43.811C5.35799 43.4744 4.5157 43.0853 3.60726 42.9761C2.34161 42.8274 1.05392 43.2514 -5.34628e-05 43.9596C1.12007 45.3453 3.62049 44.6459 4.86409 45.9179C4.10117 46.0097 3.33385 46.0359 2.56652 45.9966C3.22801 46.4512 3.99092 46.7659 4.78471 46.9102C5.41974 47.0282 6.07681 47.0369 6.70743 47.1855C7.27631 47.321 7.81432 47.5658 8.34792 47.7975C13.2694 49.9176 18.6715 50.9011 24.034 50.735C27.9765 50.6126 31.5176 49.887 35.0808 48.2652C38.1722 46.8577 40.2448 44.4535 43.1642 42.7487C43.6934 42.4384 44.2491 42.1543 44.8576 42.0712C46.6745 41.8177 48.6501 43.3651 50.2289 42.434C51.2432 41.8352 51.2079 40.1129 51.2123 39.1075C51.2211 37.5776 51.2035 36.0302 50.8595 34.5352C50.639 33.5823 50.2686 32.3758 49.6777 31.5759C49.0911 30.7803 47.6447 30.5399 46.7186 30.3825C45.9336 30.247 45.1222 30.2121 44.3417 30.3738C43.3274 30.588 42.4145 31.13 41.5414 31.6895C37.7003 34.1505 34.1415 37.0968 30.3446 39.6058Z" fill="#FABF89"/>
<path d="M68.1511 6.89654C70.0827 10.8132 67.4764 15.7876 66.3739 19.6955C66.03 20.9194 65.6728 22.1565 65.0024 23.2406C62.8416 26.7419 58.1583 27.638 54.0174 27.8129C52.1255 27.8915 50.2028 27.8915 48.3771 27.402C46.5514 26.9124 44.805 25.8808 43.8084 24.2853C42.7235 22.5499 42.6442 20.3293 43.2042 18.3623C43.7643 16.3952 44.8932 14.638 46.1148 12.9944C49.872 7.92815 63.4281 -2.63274 68.1511 6.89654Z" fill="#936037"/>
<path d="M62.0215 32.4455C62.0215 32.5636 62.0127 32.6772 61.995 32.7865C61.898 33.2717 61.5893 33.7132 61.2586 34.0979C58.6082 37.1883 56.0372 42.4557 49.171 35.7546C49.0696 35.6365 48.9637 35.5185 48.9196 35.3699C48.8358 35.0727 49.021 34.771 49.1886 34.5131C51.5964 30.9069 53.2457 26.8853 54.2688 22.689C54.4276 22.0377 54.5511 21.3732 54.6613 20.7132C54.9215 19.1308 55.0979 17.5397 55.4463 15.9748C56.099 13.0067 58.0481 14.7421 60.2311 15.6994C60.4163 15.7824 60.6103 15.8699 60.7338 16.036C60.8881 16.237 60.897 16.5168 60.8881 16.7747C60.8396 20.0531 60.3104 23.4364 60.5706 26.6624C60.6897 28.2229 61.0028 29.7441 61.6334 31.1954C61.8098 31.5975 62.0127 32.0084 62.0215 32.4455Z" fill="#FABF89"/>
<path d="M60.7379 15.6995C60.6894 18.9779 60.1602 22.3613 60.4203 25.5872C58.4491 25.9325 56.1427 23.6595 55.1946 21.8105C54.8771 21.1854 54.6522 20.4423 54.5155 19.638C54.7757 18.0556 54.9521 16.4645 55.3004 14.8996C55.9531 11.9315 57.9023 13.6669 60.0852 14.6242C60.2704 14.7072 60.4644 14.7947 60.5879 14.9608C60.7379 15.1618 60.7467 15.4416 60.7379 15.6995Z" fill="#FEAB62"/>
<path d="M62.6916 22.3308C64.0057 20.4905 65.2273 18.5453 65.9329 16.4034C66.6429 14.2571 66.8104 11.8792 66.0343 9.75912C65.4875 8.26853 64.4555 6.92219 63.0532 6.15723C61.6508 5.39226 59.8692 5.26112 58.436 5.978C57.0072 6.69052 56.0679 8.14176 55.6181 9.66732C54.8243 12.3687 54.4362 17.0853 55.7813 19.7124C57.0248 22.1341 60.5925 25.2726 62.6916 22.3308Z" fill="#FABF89"/>
<path d="M67.9086 9.16025C67.8998 9.44438 67.8777 9.72851 67.8424 10.0126C67.7366 10.7907 67.472 11.6212 66.8193 12.0671C66.3783 12.3644 65.8271 12.443 65.2979 12.513C63.3884 12.7621 61.2408 12.7447 59.3886 13.2255C56.6412 13.938 55.6622 17.2864 54.8817 19.6424C54.1673 21.7887 53.7307 25.854 51.5566 27.056C50.6438 27.5631 49.5281 27.4975 48.4829 27.4145C45.6738 27.1959 42.6133 26.8681 40.62 24.8967C39.791 24.0749 39.2221 23.0214 38.8384 21.9242C37.855 19.1179 38.0711 15.9225 39.4205 13.2692C40.7435 10.6639 43.0719 8.65755 45.665 7.27188C48.0595 5.99111 50.7452 5.19554 52.9634 3.60442C55.1551 2.03515 56.1165 0.994794 59.0932 0.789346C61.523 0.618869 64.0146 1.58491 65.6816 3.34214C67.1457 4.88956 67.9571 7.03146 67.9086 9.16025Z" fill="#936037"/>
<path d="M64.7206 32.1265C64.8617 31.9298 65.0161 31.7375 65.1924 31.5539C65.3424 31.3965 65.5276 31.2392 65.7437 31.2479C65.9245 31.2566 66.0744 31.379 66.2067 31.5014C67.909 33.0183 69.3775 34.7973 70.5373 36.7557C71.5427 38.4517 72.3938 40.1783 73.5801 41.7607C74.6032 43.1289 75.3 44.7419 76.3407 46.1319C78.1532 48.5492 80.4155 51.8014 80.4155 51.8014C85.4075 52.3128 90.1658 52.2517 95.1666 51.9719C96.4147 51.902 97.6979 51.8233 98.8445 51.325C99.3693 51.0976 99.8588 50.7829 100.406 50.6037C101.909 50.1141 103.634 50.7917 104.644 51.9937C103.523 52.2342 102.337 52.2779 101.235 52.5445C100.225 52.7893 99.7882 53.2745 99.0341 54.057C96.8248 56.3475 93.5747 57.2829 90.4657 58.026C87.2729 58.7866 84.0581 59.4379 80.8212 59.9843C79.7937 60.1592 78.7353 60.3209 77.7078 60.133C75.8248 59.7876 74.1225 57.9605 72.901 56.5704C71.4325 54.8962 70.0169 53.1652 68.6189 51.4342C67.027 49.4628 65.6908 47.2685 64.0547 45.3626C62.7361 43.8239 61.3735 41.8263 61.5895 39.7106C61.7395 38.2244 62.7097 37.3064 63.1595 35.9732C63.6269 34.6094 63.9003 33.2805 64.7206 32.1265Z" fill="#FABF89"/>
<path d="M61.5499 145.905C61.9732 146.028 62.423 145.984 62.8596 145.945C63.2565 145.905 63.6534 145.87 64.0503 145.831C64.2311 145.813 64.4163 145.796 64.5883 145.857C64.7911 145.927 64.9411 146.093 65.0866 146.251C66.2376 147.483 67.7811 148.436 69.4701 148.585C69.6024 149.026 69.3951 149.525 69.0379 149.822C68.6851 150.119 68.2088 150.246 67.7414 150.268C67.1637 150.294 66.5816 150.172 66.0656 149.918C65.6908 149.734 65.3512 149.481 64.9499 149.359C63.7989 149 62.4715 149.804 61.3823 149.293C60.809 149.026 60.4386 148.436 60.2798 147.824C60.0637 147.016 60.1299 145.936 60.6635 145.263C60.8884 145.538 61.1927 145.8 61.5499 145.905Z" fill="#A53D99"/>
<path d="M65.5579 66.2353C60.6629 67.6078 55.6797 68.6569 50.6436 69.3738C47.0539 69.8852 43.0321 70.1169 40.1877 67.892C40.0554 67.787 42.0795 58.1397 42.1104 56.789C42.225 52.2255 42.5602 47.6619 42.5866 43.094C43.7509 42.4252 45.753 39.8724 46.0881 37.8223C46.6305 34.5002 47.2964 33.4598 46.2248 30.3519C48.5885 30.1333 50.2555 29.4427 52.4649 28.5771C52.1518 28.6995 54.0877 31.9911 54.3214 32.2839C55.0447 33.2063 56.3412 33.7527 57.501 33.7745C58.6476 33.7964 59.9573 33.5123 60.5174 32.52C61.0642 31.5496 60.9098 30.5355 60.9584 29.1804C61.8624 29.9672 63.3618 30.0808 64.5039 30.4699C66.8588 31.2742 67.9128 33.6478 68.5302 35.8552C69.2358 38.3774 69.2358 41.0395 69.0505 43.6273C68.8212 46.8664 68.3097 50.0836 67.5247 53.2352C66.409 57.6939 65.5667 61.6367 65.5579 66.2353Z" fill="#31A18D"/>
<path d="M47.958 63.4244C49.5765 60.6093 49.9425 57.2784 50.2776 54.0568C50.7804 49.1916 51.3889 44.5844 50.7054 39.6711C50.5687 38.6745 50.3791 37.6822 50.1189 36.7074C49.8146 35.5578 49.4133 34.4344 48.8929 33.3678C48.6327 32.8345 48.3461 32.3143 48.0242 31.816C47.7022 31.3133 47.3274 30.8806 46.9658 30.4128C46.9481 30.3866 46.9261 30.3604 46.9261 30.3298C46.9261 30.2642 46.9967 30.2293 47.0584 30.203C47.6978 29.9626 48.3461 29.7178 49.0252 29.6479C49.1178 29.6391 49.2104 29.6348 49.2986 29.661C49.4618 29.7178 49.625 29.9408 49.7352 30.0631C51.261 31.7767 52.5752 36.6112 53.2323 38.9979C53.5851 40.2831 54.3259 45.9526 54.2377 47.2814C54.2554 46.9929 58.9696 47.3382 59.4238 47.3863C60.1735 47.465 60.835 47.5568 61.5758 47.4563C62.4226 47.3426 63.697 47.124 64.5878 47.0803C64.7157 43.6314 64.4776 40.4404 64.6055 36.9872C64.6496 35.7501 64.4467 34.2377 64.1909 33.0268C63.9352 31.816 63.5956 30.627 62.5945 29.8927C63.5471 29.5998 64.6011 30.1506 65.192 30.9505C66.3915 32.581 66.7663 34.972 66.8942 36.8866C67.0574 39.2908 67.1235 41.5595 67.1809 43.968C67.2911 48.6321 66.7796 53.2962 66.6384 57.9559C66.5855 59.7438 66.3871 61.5054 66.268 63.2932C66.2019 64.3117 66.1092 65.3958 65.4874 66.2132C64.9935 66.8601 64.235 67.2404 63.503 67.5945C60.76 68.9146 57.7348 70.379 54.6523 70.5932C51.6535 70.803 48.6548 71.5286 45.6384 70.7899C44.3066 70.462 42.9131 69.9287 41.7136 69.273C40.4126 68.5649 39.9805 68.578 41.1138 68.189C43.5569 67.341 46.635 65.7236 47.958 63.4244Z" fill="#A53D99"/>
<path d="M53.6607 52.562C54.0443 54.0307 53.5813 55.565 53.2991 57.0556C53.0168 58.5462 52.9727 60.2597 54.0002 61.3875C54.6794 62.135 55.7157 62.4716 56.7212 62.5984C58.5469 62.83 60.4475 62.4716 62.0527 61.5842C62.4099 61.3875 62.7627 61.1559 63.0053 60.828C63.3052 60.4171 63.4022 59.8926 63.4816 59.3899C63.7109 57.9037 63.852 56.4043 63.9005 54.9006C63.9402 53.6461 64.143 52.7937 62.7186 52.6757C61.259 52.5576 59.7023 52.8068 58.2338 52.7937C57.7972 52.7849 53.7356 52.8505 53.6607 52.562Z" fill="#FFDE00"/>
<path d="M102.553 47.9849C102.262 48.0242 101.971 48.0679 101.68 48.1204C101.27 48.1991 100.82 48.2996 100.582 48.6362C100.344 48.9728 100.551 49.5891 100.961 49.541C100.793 51.1977 100.621 52.8588 100.454 54.5155C100.427 54.7952 100.419 55.1231 100.639 55.2936C100.771 55.3985 100.957 55.4116 101.124 55.4247C101.724 55.464 102.302 55.5515 102.901 55.5471C103.17 55.5471 103.461 55.534 103.664 55.3591C103.902 55.1493 103.916 54.7909 103.911 54.4761C103.898 53.6019 103.885 52.732 103.867 51.8578C103.867 51.7441 103.863 51.6261 103.907 51.5212C103.951 51.4119 104.039 51.3245 104.127 51.2458C105.058 50.424 106.376 50.424 107.536 50.1617C108.859 49.8601 110.169 49.4755 111.443 49.0121C111.399 48.7498 111.245 48.5182 111.126 48.2821C111.002 48.0461 110.914 47.7663 111.002 47.5128C111.064 47.3423 111.201 47.2024 111.227 47.0276C111.232 47.0013 111.232 46.9664 111.214 46.9445C111.188 46.9096 111.135 46.9139 111.091 46.9227C110.314 47.0538 109.534 47.1631 108.775 47.3423C106.738 47.81 104.621 47.7182 102.553 47.9849Z" fill="#FC614A"/>
<path d="M103.894 52.6499C104.406 52.6499 104.864 52.5143 105.221 52.2563C105.764 51.8628 105.949 50.9533 105.614 50.3105L105.213 50.5161C105.446 50.9621 105.318 51.6311 104.957 51.8978C104.454 52.2651 103.793 52.2214 103.444 52.1645L103.369 52.6062C103.546 52.6324 103.726 52.6499 103.894 52.6499Z" fill="#FC614A"/>
<path d="M100.388 49.0655L110.2 47.2864C110.831 47.1728 111.25 46.5695 111.135 45.9445C111.02 45.3194 110.412 44.9041 109.781 45.0178L99.969 46.7968C99.3384 46.9105 98.9194 47.5137 99.0341 48.1388C99.1488 48.7595 99.7573 49.1792 100.388 49.0655Z" fill="#FFDE00"/>
<path d="M110.601 47.8503C110.592 47.5835 110.658 47.3081 110.817 47.0851C110.887 46.9845 111.007 46.8883 111.13 46.9145C111.249 46.9364 111.315 47.0545 111.359 47.1594C111.54 47.566 112.034 48.6286 111.5 48.9478C110.87 49.3282 110.614 48.2263 110.601 47.8503Z" fill="#D45248"/>
<path d="M111.862 47.3075C111.999 47.3599 112.1 47.4824 112.144 47.6179C112.189 47.7535 112.18 47.9065 112.14 48.0421C112.122 48.112 112.091 48.182 112.047 48.2432C111.968 48.3481 111.84 48.4137 111.712 48.4443C111.58 48.4749 111.448 48.4706 111.315 48.4706C111.254 48.4706 111.196 48.4706 111.135 48.4662C111.108 48.4662 111.077 48.4662 111.051 48.4531C111.015 48.4356 110.998 48.4006 110.985 48.3656C110.901 48.1601 110.777 47.6748 110.945 47.4867C111.108 47.2943 111.646 47.2288 111.862 47.3075Z" fill="#A53D99"/>
<path d="M114.989 46.5221C115.774 46.1854 116.616 45.9274 117.472 45.958C117.375 46.0848 117.22 46.1679 117.062 46.1767C117.308 46.1023 117.595 46.1679 117.785 46.3428C117.573 46.3734 117.361 46.404 117.15 46.4346C117.419 46.4303 117.688 46.5177 117.899 46.6751C117.269 46.7407 116.638 46.8369 116.012 46.9637C116.047 47.0118 116.087 47.0599 116.122 47.108C115.906 47.3004 115.619 47.3922 115.342 47.4753C114.305 47.7814 113.234 47.9825 112.158 48.0744C112.18 48.0744 112.33 47.847 112.365 47.812C112.444 47.742 112.537 47.6765 112.63 47.624C112.854 47.4928 113.106 47.401 113.34 47.2917C113.891 47.0381 114.429 46.7582 114.989 46.5221Z" fill="#31A18D"/>
<path d="M121.211 43.9248C121.277 43.9729 121.207 44.0735 121.141 44.1216C120.982 44.2396 120.823 44.3577 120.664 44.4757C120.867 44.397 121.092 44.3796 121.304 44.4364C121.088 44.5457 120.872 44.6507 120.655 44.76C120.766 44.7425 120.88 44.7818 120.955 44.8562C120.766 44.9261 120.572 44.9917 120.382 45.0617C119.765 45.2803 119.152 45.5033 118.534 45.7219C118.768 45.5601 119.055 45.4159 119.253 45.206C119.399 45.0486 119.487 44.8824 119.659 44.7469C120.122 44.3883 120.66 44.1128 121.211 43.9248Z" fill="#31A18D"/>
<path d="M124.25 44.6811C124.519 44.5936 124.792 44.5018 125.017 44.3312C124.66 44.34 124.307 44.3968 123.967 44.4974C124.356 44.3531 124.717 44.1432 125.035 43.8809C124.783 43.8809 124.536 43.9071 124.294 43.9596C124.461 43.8852 124.625 43.7934 124.779 43.6885C124.475 43.7716 124.192 43.9202 123.915 44.0689C122.684 44.716 121.423 45.302 120.135 45.8223C119.769 45.971 119.341 46.1109 119.033 46.3601C119.421 46.4519 119.619 46.2246 119.946 46.089C120.409 45.901 120.903 45.7742 121.379 45.6212C122.336 45.3063 123.293 44.9959 124.25 44.6811Z" fill="#31A18D"/>
<path d="M102.448 50.5597C102.518 50.5378 102.597 50.5072 102.672 50.5247C102.787 50.5509 102.853 50.6778 102.844 50.7958C102.831 50.9139 102.761 51.0144 102.681 51.0975C102.549 51.2374 102.377 51.3511 102.187 51.3905C102.086 51.408 101.98 51.408 101.879 51.4211C101.385 51.4867 101.019 51.9152 100.547 52.0814C100.41 52.1294 100.238 52.1513 100.128 52.0551C100.049 51.9852 100.018 51.8715 100.013 51.7622C99.9868 51.3642 100.234 50.7871 100.648 50.6515C101.213 50.4591 101.857 50.7477 102.448 50.5597Z" fill="#FABF89"/>
<path d="M103.083 52.6582C103.016 52.7194 102.955 52.8068 102.963 52.8987C102.981 53.0692 103.21 53.1173 103.382 53.1042C103.554 53.0911 103.771 53.0779 103.859 53.2266C103.479 53.3534 103.043 53.5327 102.937 53.9175C102.924 53.9656 102.919 54.0224 102.946 54.0618C102.981 54.1099 103.043 54.1186 103.1 54.123C103.294 54.1405 103.488 54.158 103.682 54.1755C103.338 54.3985 102.866 54.464 102.65 54.8095C102.615 54.8663 102.589 54.9363 102.602 55.0019C102.628 55.1243 102.774 55.168 102.897 55.1943C103.299 55.2773 103.726 55.3604 104.119 55.2336C104.242 55.1943 104.361 55.1287 104.45 55.0281C104.547 54.9188 104.591 54.7745 104.622 54.6346C104.736 54.1536 104.719 53.642 104.582 53.1654C104.529 52.9861 104.45 52.7981 104.295 52.6932C103.898 52.4046 103.488 52.2865 103.083 52.6582Z" fill="#FABF89"/>
<path d="M103.122 51.7884C103.091 51.8715 103.126 51.9721 103.193 52.0333C103.259 52.0945 103.347 52.1295 103.431 52.1557C103.722 52.2432 104.035 52.265 104.335 52.2126C104.458 52.1907 104.591 52.1513 104.657 52.042C104.855 51.7097 104.317 51.443 104.057 51.4736C103.925 51.4867 103.801 51.5829 103.669 51.6048C103.492 51.6441 103.197 51.5785 103.122 51.7884Z" fill="#FABF89"/>
<path d="M41.2153 23.8611L41.4182 23.7693C40.3378 21.3957 40.4701 18.4801 41.771 15.971C42.9573 13.6849 45.0608 11.7834 47.6979 10.6206C48.0683 10.4545 48.4608 10.3015 48.8357 10.1529C49.9999 9.69394 51.2038 9.21748 52.1211 8.34323C52.6635 7.82306 53.078 7.18923 53.4793 6.57726C53.7439 6.1751 54.0129 5.75984 54.3172 5.37954C55.574 3.82775 57.5232 2.83549 59.5297 2.73495C61.5362 2.63441 63.578 3.41686 64.9892 4.83314L65.1479 4.67577C63.6927 3.21578 61.5847 2.40711 59.5165 2.51202C57.4482 2.61692 55.4373 3.63979 54.1408 5.23966C53.8277 5.62433 53.5543 6.04834 53.2853 6.45486C52.8928 7.05809 52.4827 7.68318 51.9579 8.1815C51.0715 9.02514 49.8896 9.49286 48.7431 9.9431C48.3638 10.0917 47.9713 10.2491 47.5965 10.4152C44.9153 11.5998 42.772 13.5362 41.5593 15.8661C40.2407 18.4364 40.1084 21.4263 41.2153 23.8611Z" fill="#7D4E24"/>
<path d="M44.4347 25.5088C44.448 25.5088 44.4612 25.5088 44.47 25.5088L44.4568 25.2859C44.3333 25.2903 44.2407 25.2553 44.1569 25.1722C43.9452 24.9624 43.8615 24.5122 43.8791 24.1625C44.0158 20.7223 44.8493 18.5192 46.503 17.2341C47.1645 16.7227 47.9538 16.3773 48.7212 16.0408C49.5326 15.6867 50.3749 15.3195 51.0761 14.7512C52.0374 13.9688 52.6548 12.8716 53.2502 11.8138C53.7882 10.8565 54.3482 9.86858 55.1552 9.1211C56.1828 8.17254 57.6909 7.58242 59.4064 7.46003C61.0204 7.34638 62.6609 7.63051 64.0765 7.90589L64.1206 7.68733C62.6918 7.40757 61.0337 7.11907 59.3932 7.2371C57.6292 7.36386 56.0725 7.97146 55.0053 8.95499C54.1718 9.72433 53.6074 10.7297 53.0605 11.7001C52.474 12.7405 51.8654 13.8202 50.9394 14.572C50.2646 15.1228 49.44 15.4812 48.6374 15.8309C47.8568 16.1719 47.0542 16.5216 46.3707 17.0549C44.126 18.799 43.7468 21.9375 43.6586 24.1494C43.641 24.5428 43.7247 25.0542 44.0026 25.3296C44.1216 25.452 44.2672 25.5088 44.4347 25.5088Z" fill="#7D4E24"/>
<path d="M47.5697 26.3218L47.7814 26.2518C47.5698 25.6093 47.8123 24.8093 48.4253 24.1143C48.7163 23.7864 49.0603 23.4979 49.3955 23.2138C49.6777 22.9734 49.9732 22.7286 50.2377 22.4576C51.3887 21.2686 51.9223 19.6731 52.4383 18.1257C52.7293 17.2471 53.0336 16.3422 53.4438 15.5161C55.1989 12.006 59.3222 9.82912 63.2382 10.3406L63.269 10.1176C59.2516 9.59745 55.0401 11.8224 53.2453 15.4155C52.8264 16.2548 52.5221 17.1684 52.2266 18.0558C51.6974 19.6469 51.1947 21.1506 50.079 22.3002C49.8232 22.5625 49.5322 22.8073 49.2543 23.0433C48.9148 23.3275 48.562 23.6247 48.2577 23.9657C47.5918 24.7219 47.336 25.6005 47.5697 26.3218Z" fill="#7D4E24"/>
<path d="M41.1579 15.7693C41.4048 13.8853 42.2648 12.08 43.5745 10.6943C44.8887 9.30867 46.6482 8.34263 48.5312 7.98419L48.4871 7.76562C46.5556 8.13718 44.7564 9.12508 43.4113 10.5457C42.0663 11.9664 41.1843 13.811 40.933 15.7431L41.1579 15.7693Z" fill="#7D4E24"/>
<path d="M64.8879 12.2328C65.6243 11.9006 66.2241 11.2887 66.5416 10.5543C66.9429 9.62321 66.8767 8.59598 66.8106 7.60371C66.7797 7.10539 66.7444 6.58958 66.7709 6.09563L66.546 6.08252C66.5195 6.58958 66.5548 7.11413 66.5857 7.61682C66.6518 8.62657 66.7136 9.58387 66.3343 10.4669C66.0388 11.1531 65.4788 11.7214 64.7952 12.0318L64.8879 12.2328Z" fill="#7D4E24"/>
<path d="M49.4223 26.4967C50.3924 26.2388 51.3097 25.5351 52.0021 24.5122C52.615 23.603 52.9987 22.567 53.3735 21.566L53.1619 21.4873C52.7958 22.4796 52.4166 23.5024 51.8168 24.3898C51.1554 25.3646 50.2866 26.0378 49.3649 26.2825L49.4223 26.4967Z" fill="#7D4E24"/>
</svg>
