<svg width="678" height="465" viewBox="0 0 678 465" fill="none" xmlns="http://www.w3.org/2000/svg">
<g clip-path="url(#clip0)">
<g filter="url(#filter0_i)">
<path d="M419.716 422.824C345.235 442.361 268.264 460.189 192.594 438.562C171.8 432.621 146.632 431.858 127.885 421.955C107.594 411.235 90.0569 395.4 76.5483 376.892C50.4895 341.2 35.0243 292.352 32.6282 248.27C32.6256 248.21 32.623 248.151 32.6178 248.089C31.3106 223.186 39.7633 198.806 49.9518 176.05C60.2462 153.053 73.0096 130.23 92.9827 114.895C124.813 90.4576 164.795 92.433 201.037 80.3736C235.861 68.7848 256.141 38.8767 286.361 19.9498C325.523 -4.57504 374.937 -2.78837 417.545 9.00991C460.383 20.8702 500.024 34.9258 525.965 74.0388C545.762 103.89 552.113 139.536 572.561 169.046C590.159 194.442 617.658 214.478 630.464 241.994C648.414 280.567 633.607 324.419 616.219 363.183C614.128 367.845 611.916 372.613 608.025 376.28C595.969 387.633 588.954 397.004 570.894 399.328C545.813 402.557 520.322 401.528 495.256 404.874C469.583 408.3 444.771 416.251 419.716 422.824Z" fill="#FFF59B"/>
</g>
<g clip-path="url(#clip1)">
<path d="M330.425 164.294L327.34 160.642L329.201 159.389C329.609 159.115 329.743 158.558 329.498 158.142C329.257 157.727 328.731 157.613 328.321 157.891L326.175 159.335L323.415 156.054L325.404 154.716C325.812 154.443 325.947 153.885 325.701 153.469C325.46 153.054 324.934 152.94 324.525 153.218L322.248 154.751L319.052 151.002C318.779 150.683 318.321 150.628 317.958 150.87L317.609 151.104C317.154 151.412 317.05 152.062 317.392 152.469L320.374 156.014L317.079 158.235L313.882 154.486C313.61 154.167 313.151 154.111 312.789 154.354L312.421 154.6C311.966 154.908 311.862 155.557 312.203 155.965L315.186 159.509L313.325 160.762C312.917 161.036 312.783 161.593 313.028 162.009C313.269 162.424 313.795 162.538 314.205 162.261L316.351 160.816L319.079 164.119L317.089 165.456C316.682 165.729 316.547 166.287 316.792 166.703C317.034 167.118 317.56 167.232 317.969 166.954L320.245 165.421L323.516 169.291C323.787 169.614 324.249 169.671 324.608 169.427L325.015 169.153C325.47 168.845 325.574 168.196 325.233 167.788L322.148 164.136L325.447 161.916L328.718 165.786C328.981 166.116 329.443 166.173 329.804 165.934L330.212 165.661C330.666 165.353 330.767 164.702 330.425 164.294ZM320.979 162.838L318.219 159.556L321.514 157.335L324.275 160.616L320.979 162.838Z" fill="#F7CC7F"/>
</g>
</g>
<defs>
<filter id="filter0_i" x="32.4839" y="0.638184" width="610.138" height="451.804" filterUnits="userSpaceOnUse" color-interpolation-filters="sRGB">
<feFlood flood-opacity="0" result="BackgroundImageFix"/>
<feBlend mode="normal" in="SourceGraphic" in2="BackgroundImageFix" result="shape"/>
<feColorMatrix in="SourceAlpha" type="matrix" values="0 0 0 0 0 0 0 0 0 0 0 0 0 0 0 0 0 0 127 0" result="hardAlpha"/>
<feOffset dx="4" dy="4"/>
<feGaussianBlur stdDeviation="6.5"/>
<feComposite in2="hardAlpha" operator="arithmetic" k2="-1" k3="1"/>
<feColorMatrix type="matrix" values="0 0 0 0 0 0 0 0 0 0 0 0 0 0 0 0 0 0 0.25 0"/>
<feBlend mode="normal" in2="shape" result="effect1_innerShadow"/>
</filter>
<clipPath id="clip0">
<rect width="676.856" height="463.746" fill="white" transform="matrix(1 0 0.000222082 1 0.654785 0.575684)"/>
</clipPath>
<clipPath id="clip1">
<rect width="20.9983" height="15.9963" fill="white" transform="matrix(-0.920761 -0.390332 -0.390271 0.920613 334.106 156.854)"/>
</clipPath>
</defs>
</svg>
