<svg width="133" height="273" viewBox="0 0 133 273" fill="none" xmlns="http://www.w3.org/2000/svg">
<path d="M74.5049 269.818C68.5304 269.117 62.3684 270.063 56.874 272.523C57.444 242.772 58.0178 213.017 58.5879 183.267C58.6442 180.32 71.7108 180.347 73.5223 180.874C75.0375 192.802 73.7585 206.033 73.8973 218.088C74.1036 235.335 74.3024 252.579 74.5049 269.818Z" fill="#754922"/>
<path d="M131.501 188.153C130.364 189.494 128.71 190.289 127.049 190.869C120.219 193.269 112.718 192.715 105.592 191.468C98.4666 190.233 91.4044 188.33 84.1736 188.123C76.9239 187.908 70.9269 189.792 65.0387 193.876C59.488 197.718 53.8173 194.991 47.3515 194.286C35.3538 192.975 23.3935 199.414 11.4708 197.549C6.32892 196.754 0.845749 193.612 0.0806427 188.439C0.0168915 187.991 -0.0131226 187.531 0.00563049 187.079C0.0506439 184.081 1.69334 181.183 3.83861 179.04C6.31017 176.576 9.4268 174.869 12.3372 172.948C24.8375 164.712 34.2249 151.862 38.3579 137.44C38.5829 136.683 38.7854 135.922 38.973 135.154C41.2495 125.886 41.8758 115.258 48.9079 108.839C53.3672 104.77 59.7843 103.27 65.755 104.069C70.5706 104.717 75.1199 106.721 79.1779 109.438C82.6021 109.841 85.7825 110.956 88.1603 113.42C91.1719 116.532 92.0983 121.037 93.1034 125.257C95.0799 133.504 97.9002 141.543 101.482 149.229C104.617 155.995 108.357 162.49 112.64 168.6C113.123 169.294 113.618 169.987 114.132 170.661C117.23 174.749 120.913 178.497 125.747 179.902C128.2 180.615 131.223 180.942 132.363 183.24C133.162 184.819 132.641 186.816 131.501 188.153Z" fill="#3793A0"/>
<path d="M118.622 185.749C118.457 185.749 118.296 185.659 118.209 185.501L116.537 182.385C116.417 182.159 116.499 181.873 116.728 181.749C116.953 181.628 117.238 181.711 117.362 181.941L119.034 185.06C119.154 185.286 119.072 185.572 118.843 185.693C118.776 185.731 118.697 185.749 118.622 185.749Z" fill="#34998D"/>
<path d="M106.14 188.646C105.934 188.646 105.746 188.507 105.69 188.296L104.43 183.519C104.362 183.27 104.512 183.01 104.76 182.946C105.011 182.879 105.263 183.029 105.33 183.278L106.59 188.059C106.658 188.307 106.508 188.564 106.26 188.631C106.219 188.643 106.178 188.646 106.14 188.646Z" fill="#34998D"/>
<path d="M101.711 171.814C101.553 171.814 101.4 171.735 101.31 171.588L98.6917 167.263C98.5567 167.04 98.6279 166.754 98.8492 166.619C99.0705 166.483 99.3593 166.554 99.4905 166.777L102.108 171.102C102.243 171.324 102.172 171.61 101.951 171.746C101.88 171.791 101.793 171.814 101.711 171.814Z" fill="#34998D"/>
<path d="M90.5984 173.521C90.3471 173.521 90.1371 173.317 90.1333 173.061L89.9345 164.426C89.927 164.166 90.1333 163.952 90.3921 163.948C90.6321 163.967 90.8647 164.147 90.8684 164.407L91.0672 173.042C91.0747 173.302 90.8684 173.517 90.6096 173.521C90.6059 173.521 90.6021 173.521 90.5984 173.521Z" fill="#34998D"/>
<path d="M93.0735 160.086C92.8672 160.086 92.6797 159.95 92.6235 159.739L91.1983 154.574L90.8682 154.529C90.6132 154.495 90.4332 154.262 90.4669 154.005C90.5007 153.749 90.737 153.553 90.9883 153.602L91.9559 153.727L93.5236 159.491C93.5911 159.739 93.4448 159.999 93.1973 160.067C93.156 160.082 93.1148 160.086 93.0735 160.086Z" fill="#34998D"/>
<path d="M95.4625 183.832C95.2713 183.832 95.0875 183.711 95.0237 183.515L93.1148 178C93.0285 177.755 93.1598 177.487 93.4035 177.405C93.6473 177.322 93.9136 177.45 93.9961 177.695L95.9051 183.21C95.9914 183.455 95.8601 183.722 95.6163 183.805C95.5638 183.824 95.5113 183.832 95.4625 183.832Z" fill="#34998D"/>
<path d="M112.407 177.123C112.272 177.123 112.137 177.062 112.047 176.949L108.942 173.114C108.777 172.914 108.811 172.617 109.009 172.455C109.212 172.293 109.505 172.323 109.666 172.523L112.771 176.358C112.936 176.557 112.902 176.855 112.704 177.017C112.614 177.089 112.509 177.123 112.407 177.123Z" fill="#34998D"/>
<path d="M102.866 163.684C102.72 163.684 102.574 163.612 102.483 163.484L100.811 161.084C100.665 160.873 100.713 160.579 100.927 160.432C101.137 160.286 101.43 160.335 101.576 160.549L103.249 162.949C103.395 163.16 103.346 163.454 103.132 163.601C103.05 163.657 102.956 163.684 102.866 163.684Z" fill="#34998D"/>
<path d="M126.734 187.671C126.501 187.671 126.299 187.497 126.273 187.256C126.149 186.217 125.507 185.245 124.604 184.717C124.382 184.585 124.304 184.299 124.435 184.077C124.566 183.851 124.847 183.775 125.072 183.907C126.224 184.578 127.041 185.817 127.199 187.143C127.229 187.4 127.049 187.633 126.79 187.663C126.771 187.671 126.753 187.671 126.734 187.671Z" fill="#34998D"/>
<path d="M82.0923 179.514C82.081 179.514 82.0735 179.514 82.0623 179.514C81.8035 179.499 81.6085 179.277 81.6235 179.017L81.8635 175.178C81.8785 174.918 82.096 174.715 82.3586 174.741C82.6173 174.756 82.8086 174.978 82.7936 175.238L82.5536 179.074C82.5423 179.322 82.336 179.514 82.0923 179.514Z" fill="#34998D"/>
<path d="M65.6877 186.74C65.6277 186.74 65.564 186.729 65.504 186.703C65.2677 186.601 65.1589 186.326 65.2564 186.088C66.2541 183.745 66.9254 181.27 67.2554 178.738C67.2892 178.482 67.5217 178.286 67.7768 178.335C68.0318 178.369 68.2118 178.603 68.1781 178.859C67.8405 181.473 67.1467 184.031 66.1153 186.454C66.044 186.635 65.8715 186.74 65.6877 186.74Z" fill="#34998D"/>
<path d="M47.4492 189.577C47.3854 189.577 47.3179 189.562 47.2542 189.536C47.0179 189.426 46.9166 189.148 47.0254 188.914L49.662 183.161C49.7707 182.924 50.0483 182.822 50.2808 182.932C50.5171 183.041 50.6183 183.32 50.5096 183.553L47.873 189.306C47.7942 189.479 47.6255 189.577 47.4492 189.577Z" fill="#34998D"/>
<path d="M28.1981 184.841C28.1043 184.841 28.0105 184.815 27.9318 184.759C27.7217 184.608 27.6692 184.318 27.8155 184.107L30.8609 179.748C31.0071 179.537 31.2997 179.484 31.5097 179.635C31.7197 179.782 31.7722 180.076 31.6222 180.287L28.5769 184.646C28.4868 184.77 28.3443 184.841 28.1981 184.841Z" fill="#34998D"/>
<path d="M11.8911 186.71C11.7974 186.71 11.7036 186.684 11.6248 186.627C11.4148 186.48 11.3623 186.186 11.5086 185.975L13.1813 183.576C13.3313 183.361 13.6201 183.312 13.8301 183.459C14.0402 183.606 14.0927 183.9 13.9464 184.111L12.2737 186.51C12.1837 186.638 12.0374 186.71 11.8911 186.71Z" fill="#34998D"/>
<path d="M19.8008 192.96C19.737 192.96 19.6733 192.949 19.6132 192.919C19.377 192.813 19.272 192.538 19.377 192.301C20.0633 190.745 20.2921 188.963 20.0145 187.279C19.9733 187.023 20.1458 186.781 20.4008 186.74C20.6559 186.699 20.8959 186.872 20.9371 187.128C21.2409 188.989 20.9934 190.959 20.2321 192.681C20.1496 192.854 19.977 192.96 19.8008 192.96Z" fill="#34998D"/>
<path d="M34.8138 191.747C34.555 191.747 34.3487 191.536 34.3487 191.28V187.441C34.3487 187.181 34.5587 186.974 34.8138 186.974C35.0725 186.974 35.2788 187.185 35.2788 187.441V191.28C35.2788 191.536 35.0725 191.747 34.8138 191.747Z" fill="#34998D"/>
<path d="M35.035 175.664C34.93 175.664 34.825 175.63 34.7387 175.559C34.54 175.393 34.51 175.099 34.6712 174.9C35.5676 173.799 36.1677 172.477 36.4039 171.076C36.4452 170.823 36.689 170.65 36.944 170.695C37.1991 170.74 37.3678 170.981 37.3228 171.238C37.0565 172.797 36.389 174.267 35.3913 175.495C35.3051 175.604 35.17 175.664 35.035 175.664Z" fill="#34998D"/>
<path d="M25.0249 176.158C24.8787 176.158 24.7324 176.086 24.6424 175.958C24.4961 175.743 24.5486 175.453 24.7587 175.306C26.1951 174.304 27.3802 172.952 28.1941 171.396C28.3141 171.166 28.5954 171.079 28.8242 171.2C29.0529 171.32 29.1392 171.603 29.0192 171.833C28.1378 173.521 26.8477 174.986 25.2912 176.075C25.2087 176.128 25.1149 176.158 25.0249 176.158Z" fill="#34998D"/>
<path d="M46.2751 178.795C46.2039 178.795 46.1326 178.78 46.0651 178.746C45.8363 178.629 45.7426 178.35 45.8551 178.117C46.5527 176.708 46.8677 175.133 46.7627 173.562C46.7439 173.302 46.939 173.08 47.1977 173.065C47.4415 173.046 47.6778 173.242 47.6928 173.502C47.8091 175.242 47.464 176.983 46.6877 178.539C46.6089 178.701 46.4439 178.795 46.2751 178.795Z" fill="#34998D"/>
<path d="M59.8855 178.317C59.6267 178.317 59.4205 178.106 59.4205 177.849V171.132C59.4205 170.872 59.6305 170.665 59.8855 170.665C60.1443 170.665 60.3506 170.876 60.3506 171.132V177.849C60.3506 178.106 60.1406 178.317 59.8855 178.317Z" fill="#34998D"/>
<path d="M72.0635 173.039C71.8159 173.039 71.6096 172.843 71.5984 172.59C71.5009 170.488 71.0321 168.446 70.2032 166.517C70.1019 166.28 70.2107 166.005 70.447 165.899C70.687 165.798 70.9571 165.907 71.0621 166.144C71.9359 168.175 72.431 170.33 72.5323 172.545C72.5435 172.805 72.3447 173.023 72.0897 173.035C72.0747 173.039 72.071 173.039 72.0635 173.039Z" fill="#34998D"/>
<path d="M81.826 170.16C81.5785 170.16 81.3684 169.964 81.3609 169.712C81.2709 167.542 80.7234 165.364 79.7745 163.417C79.662 163.183 79.7557 162.904 79.9883 162.791C80.217 162.678 80.4983 162.773 80.6108 163.006C81.616 165.071 82.1973 167.376 82.2911 169.674C82.3023 169.934 82.0998 170.149 81.8447 170.16C81.8372 170.16 81.8297 170.16 81.826 170.16Z" fill="#34998D"/>
<path d="M83.2848 159.608C83.056 159.608 82.8572 159.442 82.8235 159.208C82.5235 157.166 81.8034 155.155 80.7382 153.388C80.6032 153.165 80.6745 152.879 80.8957 152.744C81.117 152.608 81.4021 152.679 81.5371 152.902C82.666 154.774 83.4311 156.906 83.7499 159.073C83.7874 159.329 83.6111 159.566 83.3561 159.604C83.3298 159.604 83.3073 159.608 83.2848 159.608Z" fill="#34998D"/>
<path d="M71.1558 159.14C71.1183 159.14 71.0808 159.137 71.0395 159.125C70.792 159.061 70.6382 158.805 70.702 158.556L72.6335 150.886C72.6972 150.637 72.9485 150.479 73.1998 150.547C73.4473 150.611 73.6011 150.863 73.5373 151.116L71.6058 158.786C71.5533 158.997 71.3621 159.14 71.1558 159.14Z" fill="#34998D"/>
<path d="M61.8135 158.651C61.7797 158.651 61.7422 158.647 61.7085 158.639C61.4572 158.579 61.2996 158.33 61.3597 158.078L62.7998 151.843C62.8598 151.59 63.1111 151.428 63.3587 151.493C63.6099 151.553 63.7675 151.801 63.7075 152.054L62.2673 158.289C62.2185 158.504 62.0272 158.651 61.8135 158.651Z" fill="#34998D"/>
<path d="M47.1979 162.464C47.1004 162.464 47.0067 162.433 46.9204 162.373C46.7141 162.219 46.6691 161.925 46.8191 161.718C48.7206 159.118 50.2471 156.262 51.3497 153.23C51.436 152.985 51.706 152.857 51.946 152.951C52.1898 153.041 52.3136 153.309 52.2236 153.55C51.0909 156.666 49.5232 159.597 47.5692 162.271C47.483 162.396 47.3442 162.464 47.1979 162.464Z" fill="#34998D"/>
<path d="M35.59 164.449C35.4887 164.449 35.3874 164.415 35.3049 164.351C35.1024 164.193 35.0649 163.899 35.2224 163.692L39.5055 158.165C39.663 157.962 39.9593 157.928 40.1618 158.082C40.3643 158.24 40.4018 158.534 40.2443 158.741L35.9613 164.268C35.8637 164.389 35.7287 164.449 35.59 164.449Z" fill="#34998D"/>
<path d="M53.6745 171.121C53.4158 171.121 53.2095 170.91 53.2095 170.653V165.138C53.2095 164.878 53.4195 164.671 53.6745 164.671C53.9333 164.671 54.1396 164.882 54.1396 165.138V170.653C54.1433 170.91 53.9333 171.121 53.6745 171.121Z" fill="#34998D"/>
<path d="M58.5165 193.194C58.494 193.194 58.4715 193.194 58.449 193.19C58.194 193.152 58.0177 192.915 58.0552 192.659L58.7828 187.622C58.8203 187.366 59.0678 187.189 59.3116 187.226C59.5667 187.264 59.7429 187.501 59.7054 187.757L58.9778 192.794C58.9441 193.028 58.7416 193.194 58.5165 193.194Z" fill="#34998D"/>
<path d="M75.8251 185.994C75.5813 185.994 75.3751 185.806 75.3601 185.557L75.1388 182.197C75.1238 181.941 75.3151 181.715 75.5738 181.699C75.8289 181.681 76.0539 181.877 76.0689 182.137L76.2902 185.497C76.3052 185.753 76.1139 185.979 75.8551 185.994C75.8439 185.994 75.8364 185.994 75.8251 185.994Z" fill="#34998D"/>
<path d="M114.14 170.669C112.673 170.94 110.959 170.435 109.493 169.9C96.2724 165.074 82.4932 161.212 68.4365 161.092C54.3685 160.971 39.888 164.916 29.2742 174.176C25.58 177.401 22.4071 181.206 18.5553 184.231C13.4134 188.281 5.42872 190.538 0.00930023 187.09C0.054306 184.092 1.69701 181.195 3.84227 179.051C6.31383 176.587 9.43047 174.88 12.3408 172.959C24.8411 164.724 34.2285 151.873 38.3615 137.452C53.5509 133.3 69.9142 133.741 84.4097 139.784C90.4255 142.296 96.0249 145.668 101.493 149.24C104.628 156.006 108.368 162.501 112.651 168.612C113.131 169.301 113.626 169.994 114.14 170.669Z" fill="#2B747E"/>
<path d="M110.824 156.703C107.775 159.235 103.23 158.361 99.4905 157.05C92.7359 154.68 86.2813 151.297 79.2455 149.956C69.6818 148.128 59.8218 150.227 50.5132 153.056C41.1933 155.897 32.0309 159.495 22.3847 160.787C19.2231 161.209 15.6039 161.228 13.3348 158.967C11.0883 156.718 11.0958 152.932 12.431 150.035C13.7661 147.149 16.1627 144.919 18.3829 142.639C24.1774 136.743 29.2218 130.12 33.3848 122.977C37.3415 116.211 40.5032 108.985 42.7685 101.481C44.4749 95.8486 45.6901 90.0393 47.7303 84.5465C48.1504 83.3937 48.6079 82.2597 49.1217 81.1446C52.0621 74.6798 56.9602 68.6708 63.6923 66.4895C68.1066 65.0541 73.3685 65.7323 77.1827 68.4109C81.8558 71.6998 82.3246 77.7539 84.0123 82.87C84.5336 84.4636 85.0774 86.0572 85.6363 87.6508C88.7416 96.6021 92.2783 105.418 96.2051 114.041C97.1014 116.008 98.0165 117.967 98.9467 119.918C102.251 126.798 105.803 133.552 109.609 140.16C111.109 142.783 112.677 145.446 113.24 148.407C113.798 151.38 113.146 154.782 110.824 156.703Z" fill="#389E8A"/>
<path d="M96.2051 114.045C91.1007 111.72 85.9326 109.622 80.4381 108.695C68.1779 106.623 55.6326 110.605 44.625 116.407C40.7807 118.43 37.0603 120.672 33.3848 122.985C37.3415 116.219 40.5032 108.993 42.7685 101.488C44.4749 95.856 45.6901 90.0467 47.7303 84.5539C60.1744 80.8807 74.0286 81.8753 85.6363 87.6544C88.7417 96.6019 92.2783 105.421 96.2051 114.045Z" fill="#307D6E"/>
<path d="M89.5218 113.661C89.3455 113.661 89.173 113.559 89.0943 113.386L85.7713 105.941C85.6663 105.704 85.7713 105.429 86.0076 105.324C86.2439 105.218 86.5177 105.324 86.6227 105.561L89.9456 113.005C90.0506 113.243 89.9456 113.518 89.7093 113.623C89.6531 113.646 89.5856 113.661 89.5218 113.661Z" fill="#3899A3"/>
<path d="M81.0832 120.156C80.832 120.156 80.6257 119.956 80.6182 119.7L80.3932 112.026C80.3856 111.766 80.5882 111.551 80.847 111.543C80.8507 111.543 80.8582 111.543 80.862 111.543C81.1132 111.543 81.3195 111.743 81.327 111.999L81.552 119.673C81.5595 119.933 81.357 120.148 81.0982 120.156C81.0945 120.156 81.087 120.156 81.0832 120.156Z" fill="#3899A3"/>
<path d="M92.6233 129.973C92.4395 129.973 92.267 129.864 92.192 129.683L89.6979 123.633C89.6004 123.396 89.7129 123.121 89.9492 123.023C90.1855 122.925 90.4592 123.038 90.5568 123.275L93.0508 129.325C93.1483 129.563 93.0358 129.838 92.7995 129.936C92.7433 129.962 92.6833 129.973 92.6233 129.973Z" fill="#3899A3"/>
<path d="M99.5092 139.584C99.3404 139.584 99.1791 139.49 99.0966 139.332L95.5149 132.377C95.3987 132.147 95.4849 131.865 95.7137 131.744C95.9425 131.627 96.2238 131.714 96.3438 131.944L99.9255 138.898C100.042 139.128 99.9555 139.411 99.7267 139.531C99.6517 139.565 99.5804 139.584 99.5092 139.584Z" fill="#3899A3"/>
<path d="M102.13 150.619C101.943 150.619 101.763 150.502 101.692 150.314L100.019 145.755C99.9289 145.514 100.053 145.243 100.296 145.152C100.533 145.066 100.807 145.186 100.897 145.431L102.569 149.99C102.659 150.231 102.536 150.502 102.292 150.593C102.239 150.608 102.183 150.619 102.13 150.619Z" fill="#3899A3"/>
<path d="M87.8076 148.938C87.56 148.938 87.3575 148.746 87.3425 148.498L87.1025 144.18C87.0875 143.92 87.2863 143.702 87.5413 143.687C87.7926 143.664 88.0176 143.871 88.0326 144.128L88.2726 148.445C88.2876 148.705 88.0889 148.923 87.8338 148.938C87.8226 148.938 87.8151 148.938 87.8076 148.938Z" fill="#3899A3"/>
<path d="M78.2928 138.39C78.274 138.39 78.259 138.39 78.2403 138.386C77.9852 138.356 77.8015 138.122 77.8315 137.866L78.5441 131.631C78.5741 131.375 78.8103 131.183 79.0616 131.221C79.3167 131.251 79.5004 131.48 79.4704 131.74L78.7578 137.975C78.7278 138.213 78.5291 138.39 78.2928 138.39Z" fill="#3899A3"/>
<path d="M57.5565 131.684C57.5265 131.684 57.4965 131.68 57.4664 131.676C57.2152 131.627 57.0501 131.379 57.0989 131.126L58.2765 125.129C58.3253 124.876 58.5766 124.711 58.8241 124.76C59.0754 124.809 59.2404 125.057 59.1917 125.31L58.014 131.307C57.969 131.53 57.774 131.684 57.5565 131.684Z" fill="#3899A3"/>
<path d="M67.034 115.119C66.7752 115.119 66.5689 114.908 66.5689 114.652V109.373C66.5689 109.113 66.7789 108.906 67.034 108.906C67.2927 108.906 67.499 109.117 67.499 109.373V114.652C67.499 114.908 67.2927 115.119 67.034 115.119Z" fill="#3899A3"/>
<path d="M74.9735 111.291C74.9473 111.291 74.9248 111.291 74.8985 111.284C74.6435 111.242 74.471 111.001 74.5122 110.745L75.4536 104.984C75.4949 104.728 75.7349 104.555 75.9899 104.596C76.245 104.638 76.4175 104.879 76.3762 105.135L75.4349 110.896C75.3936 111.129 75.1986 111.291 74.9735 111.291Z" fill="#3899A3"/>
<path d="M68.2301 132.867C68.2226 132.867 68.2151 132.867 68.2039 132.867C67.9451 132.852 67.7501 132.633 67.7651 132.373L68.1814 124.695C68.1964 124.439 68.3951 124.221 68.6727 124.254C68.9315 124.27 69.1265 124.488 69.1115 124.748L68.6952 132.426C68.6839 132.675 68.4777 132.867 68.2301 132.867Z" fill="#3899A3"/>
<path d="M60.3464 147.737C60.0876 147.737 59.8814 147.526 59.8814 147.27V143.672C59.8814 143.412 60.0914 143.205 60.3464 143.205C60.6052 143.205 60.8115 143.416 60.8115 143.672V147.27C60.8152 147.53 60.6052 147.737 60.3464 147.737Z" fill="#3899A3"/>
<path d="M41.9617 150.136C41.8717 150.136 41.778 150.11 41.6992 150.053C41.4854 149.906 41.4292 149.616 41.5754 149.402L45.1571 144.123C45.3034 143.909 45.596 143.856 45.806 143.999C46.0198 144.146 46.076 144.436 45.9297 144.651L42.348 149.929C42.258 150.065 42.1118 150.136 41.9617 150.136Z" fill="#3899A3"/>
<path d="M26.9604 153.282C26.8704 153.282 26.7803 153.256 26.7016 153.203C26.4878 153.06 26.4278 152.77 26.5703 152.555L29.9045 147.514C30.047 147.296 30.3395 147.239 30.5495 147.383C30.7633 147.526 30.8233 147.816 30.6808 148.031L27.3467 153.071C27.2604 153.211 27.1104 153.282 26.9604 153.282Z" fill="#3899A3"/>
<path d="M18.3228 151.575C18.2253 151.575 18.1278 151.545 18.0415 151.481C17.8353 151.327 17.794 151.033 17.9478 150.826L21.5295 146.03C21.687 145.823 21.9795 145.781 22.182 145.936C22.3883 146.09 22.4296 146.384 22.2758 146.591L18.6941 151.387C18.6041 151.511 18.4653 151.575 18.3228 151.575Z" fill="#3899A3"/>
<path d="M36.7227 137.904C36.4902 137.904 36.2877 137.73 36.2614 137.493C35.9726 135.12 36.5652 132.618 37.8891 130.633C38.0317 130.418 38.3204 130.358 38.538 130.504C38.7518 130.648 38.808 130.938 38.6655 131.156C37.4653 132.957 36.9253 135.229 37.1878 137.384C37.2178 137.64 37.0378 137.873 36.7827 137.907C36.7602 137.9 36.7415 137.904 36.7227 137.904Z" fill="#3899A3"/>
<path d="M51.0342 134.064C51.023 134.064 51.008 134.064 50.9967 134.064C50.7379 134.046 50.5467 133.82 50.5692 133.563L51.0455 127.328C51.0642 127.068 51.293 126.888 51.5443 126.899C51.8031 126.918 51.9943 127.144 51.9718 127.4L51.4955 133.635C51.4805 133.88 51.2743 134.064 51.0342 134.064Z" fill="#3899A3"/>
<path d="M50.1378 120.646C50.1078 120.646 50.0778 120.642 50.0478 120.638C49.7965 120.589 49.6315 120.34 49.6803 120.088C50.1678 117.575 51.518 115.292 53.4795 113.657C53.6783 113.491 53.9708 113.518 54.1358 113.717C54.3008 113.917 54.2746 114.211 54.0758 114.377C52.3056 115.854 51.0379 118.001 50.5991 120.265C50.5504 120.491 50.3553 120.646 50.1378 120.646Z" fill="#3899A3"/>
<path d="M40.0566 122.797C39.9666 122.797 39.8729 122.77 39.7941 122.714C39.5803 122.567 39.5278 122.277 39.6741 122.062C41.0243 120.076 41.6018 117.575 41.2568 115.194C41.2193 114.938 41.3956 114.7 41.6506 114.663C41.9094 114.625 42.1419 114.802 42.1794 115.058C42.5582 117.669 41.9281 120.412 40.4429 122.589C40.3529 122.725 40.2067 122.797 40.0566 122.797Z" fill="#3899A3"/>
<path d="M52.9394 108.164C52.7106 108.164 52.5081 107.991 52.4781 107.757L51.7618 102.242C51.728 101.985 51.908 101.752 52.1631 101.718C52.4143 101.684 52.6506 101.865 52.6844 102.121L53.4007 107.636C53.4345 107.893 53.2545 108.126 52.9994 108.16C52.9807 108.164 52.9582 108.164 52.9394 108.164Z" fill="#3899A3"/>
<path d="M60.864 111.999C60.6127 111.999 60.4064 111.8 60.3989 111.547L60.1739 105.312C60.1664 105.052 60.3652 104.837 60.624 104.826C60.8602 104.841 61.0965 105.018 61.1078 105.278L61.3328 111.513C61.3403 111.773 61.1415 111.988 60.8827 111.999C60.8752 111.999 60.8715 111.999 60.864 111.999Z" fill="#3899A3"/>
<path d="M61.6105 122.763C61.4305 122.763 61.2579 122.657 61.1829 122.476L59.964 119.609C59.8628 119.372 59.9715 119.097 60.2116 118.995C60.4478 118.897 60.7216 119.003 60.8229 119.244L62.0418 122.111C62.143 122.348 62.0343 122.623 61.7943 122.725C61.7342 122.751 61.6742 122.763 61.6105 122.763Z" fill="#3899A3"/>
<path d="M71.5718 142.462C71.3618 142.462 71.1705 142.319 71.118 142.108L70.4017 139.23C70.3379 138.981 70.4917 138.725 70.743 138.661C70.9905 138.597 71.2455 138.751 71.3093 139.004L72.0256 141.882C72.0894 142.131 71.9356 142.387 71.6843 142.451C71.6468 142.458 71.6093 142.462 71.5718 142.462Z" fill="#3899A3"/>
<path d="M74.9026 126.628C74.8764 126.628 74.8501 126.628 74.8239 126.62C74.5688 126.579 74.4 126.334 74.4413 126.081C74.6401 124.887 74.4976 123.61 74.0363 122.491C73.9387 122.254 74.0513 121.979 74.2875 121.877C74.5238 121.779 74.7976 121.888 74.8989 122.13C75.4277 123.41 75.5927 124.868 75.3639 126.236C75.3227 126.47 75.1239 126.628 74.9026 126.628Z" fill="#3899A3"/>
<path d="M87.8116 137.663C87.6053 137.663 87.4178 137.524 87.3615 137.316L85.4525 130.121C85.385 129.872 85.5351 129.616 85.7826 129.548C86.0301 129.48 86.2889 129.631 86.3527 129.88L88.2616 137.075C88.3291 137.324 88.1791 137.58 87.9316 137.648C87.8903 137.659 87.8491 137.663 87.8116 137.663Z" fill="#3899A3"/>
<path d="M67.6978 104.793C67.6603 104.793 67.6228 104.789 67.5853 104.778C67.334 104.717 67.184 104.461 67.244 104.209C67.5928 102.788 67.4128 101.225 66.7452 99.9252C66.6252 99.6954 66.7152 99.4128 66.9477 99.296C67.1765 99.1755 67.4578 99.2659 67.574 99.4995C68.3429 100.999 68.5529 102.8 68.1516 104.438C68.0991 104.649 67.9078 104.793 67.6978 104.793Z" fill="#3899A3"/>
<path d="M81.3495 103.605C81.0945 103.605 80.8882 103.402 80.8844 103.142C80.8619 101.624 80.3931 100.086 79.5643 98.8207C79.4218 98.6059 79.4818 98.3121 79.6993 98.1727C79.9131 98.0333 80.2056 98.0898 80.3444 98.3083C81.2707 99.7248 81.7921 101.439 81.8183 103.131C81.8221 103.39 81.6158 103.601 81.357 103.605C81.3533 103.605 81.3533 103.605 81.3495 103.605Z" fill="#3899A3"/>
<path d="M107.374 144.87C107.213 144.87 107.055 144.783 106.969 144.632L103.86 139.121C103.732 138.895 103.811 138.608 104.036 138.48C104.261 138.352 104.546 138.431 104.674 138.657L107.783 144.169C107.91 144.395 107.831 144.681 107.606 144.809C107.531 144.847 107.453 144.87 107.374 144.87Z" fill="#3899A3"/>
<path d="M107.588 154.224C107.377 154.224 107.19 154.084 107.137 153.873L106.402 150.999C106.339 150.747 106.489 150.494 106.736 150.43C106.987 150.362 107.242 150.517 107.302 150.765L108.038 153.64C108.101 153.892 107.951 154.145 107.704 154.209C107.663 154.22 107.625 154.224 107.588 154.224Z" fill="#3899A3"/>
<path d="M50.2952 144.365C50.2052 144.365 50.1189 144.339 50.0364 144.286C49.8226 144.143 49.7626 143.853 49.9051 143.638C50.659 142.496 50.9328 141.016 50.6402 139.682C50.584 139.43 50.7452 139.181 50.9965 139.125C51.2441 139.068 51.4953 139.23 51.5516 139.482C51.9004 141.084 51.5853 142.786 50.6815 144.158C50.5952 144.29 50.4489 144.365 50.2952 144.365Z" fill="#3899A3"/>
<path d="M65.5114 3.3859C65.8377 2.36494 66.3102 1.21589 67.3303 0.899432C68.3692 0.575438 69.4869 1.34398 69.9557 2.32727C70.4245 3.31055 70.417 4.44453 70.4245 5.53706C70.492 15.0384 73.1886 24.5774 75.1763 33.8451C77.2428 43.482 79.8719 53.0549 84.0499 62.0062C90.4857 75.7947 101.13 88.261 115.348 93.5428C118.205 94.6052 121.855 96.3683 121.386 99.3935C120.954 102.178 117.369 102.991 114.564 102.931C106.091 102.743 97.8179 100.494 89.4806 98.9565C64.8588 94.4244 40.9683 104.227 16.2678 104.189C13.71 104.186 10.5971 103.767 9.60695 101.398C8.81935 99.5103 9.92949 97.2838 11.5497 96.0406C13.1661 94.7974 15.1951 94.2624 17.0929 93.5278C23.2436 91.1468 28.3255 86.5167 32.2747 81.216C36.2277 75.9191 39.1531 69.9365 42.056 63.9916C47.0553 53.7632 52.0509 43.531 57.0503 33.3026C59.3231 28.6499 61.6371 24.7318 62.1322 19.5969C62.6685 14.1041 63.8387 8.64138 65.5114 3.3859Z" fill="#3DB287"/>
<path d="M68.6579 19.8191C68.4253 19.8191 68.2228 19.642 68.1966 19.4047L67.2252 10.7699C67.1952 10.5137 67.379 10.2801 67.6377 10.25C67.8853 10.2274 68.1253 10.4045 68.1553 10.6644L69.1267 19.2992C69.1567 19.5554 68.9729 19.789 68.7141 19.8191C68.6916 19.8191 68.6729 19.8191 68.6579 19.8191Z" fill="#3AAA8F"/>
<path d="M68.4558 35.4048C68.2195 35.4048 68.0207 35.2277 67.9945 34.9866L67.2781 28.5105C67.2519 28.2543 67.4357 28.0208 67.6907 27.9944C67.9382 27.9642 68.1782 28.1526 68.2045 28.4088L68.9208 34.8849C68.9471 35.1411 68.7633 35.3747 68.5083 35.401C68.4895 35.4048 68.4708 35.4048 68.4558 35.4048Z" fill="#3AAA8F"/>
<path d="M73.5898 45.5165C73.3948 45.5165 73.211 45.3922 73.1473 45.1963L70.7207 37.7746C70.6382 37.5297 70.7732 37.2622 71.017 37.1831C71.2645 37.104 71.5271 37.2358 71.6058 37.4807L74.0324 44.9024C74.1149 45.1473 73.9799 45.4148 73.7361 45.4939C73.6873 45.509 73.6386 45.5165 73.5898 45.5165Z" fill="#3AAA8F"/>
<path d="M73.9464 60.5894C73.7738 60.5894 73.6088 60.4953 73.5263 60.3295C72.3974 58.0276 71.8873 55.4583 72.0486 52.8965C72.0636 52.6365 72.2774 52.4293 72.5437 52.4595C72.8025 52.4745 72.9937 52.6968 72.9787 52.9568C72.8287 55.3528 73.3088 57.7602 74.3627 59.9151C74.4752 60.1487 74.3814 60.4274 74.1489 60.5442C74.0851 60.5744 74.0176 60.5894 73.9464 60.5894Z" fill="#3AAA8F"/>
<path d="M82.0661 72.344C81.9123 72.344 81.7586 72.2649 81.6723 72.1255C80.1909 69.7671 78.9682 67.2317 78.0456 64.5945C77.9593 64.3496 78.0869 64.0821 78.3306 63.9993C78.5744 63.9126 78.8407 64.0407 78.9232 64.2856C79.8233 66.8549 81.016 69.3263 82.4599 71.6282C82.5987 71.8467 82.5312 72.1368 82.3136 72.2762C82.2386 72.3214 82.1486 72.344 82.0661 72.344Z" fill="#3AAA8F"/>
<path d="M83.9861 83.1146C83.9036 83.1146 83.821 83.092 83.746 83.0468C82.0471 82.0108 80.9294 80.1309 80.8282 78.1342C80.8169 77.8742 81.012 77.6557 81.2707 77.6444C81.5258 77.6143 81.747 77.829 81.7583 78.089C81.8408 79.7504 82.8122 81.3817 84.2299 82.2482C84.4511 82.3838 84.5186 82.6701 84.3874 82.8924C84.2974 83.0355 84.1436 83.1146 83.9861 83.1146Z" fill="#3AAA8F"/>
<path d="M93.5237 87.6961C93.3887 87.6961 93.2499 87.6358 93.1599 87.519L90.2946 83.9212C90.1333 83.7177 90.167 83.4239 90.3658 83.2619C90.5646 83.0999 90.8609 83.1338 91.0221 83.3335L93.8875 86.9313C94.0488 87.1347 94.015 87.4286 93.8162 87.5906C93.73 87.6622 93.6287 87.6961 93.5237 87.6961Z" fill="#3AAA8F"/>
<path d="M99.9748 96.327C99.9335 96.327 99.8923 96.3232 99.851 96.3081C97.9045 95.7656 96.1268 94.6015 94.8404 93.0381C94.6754 92.8384 94.7054 92.5408 94.9041 92.3788C95.1029 92.213 95.3954 92.2431 95.5605 92.4428C96.7231 93.8631 98.3396 94.9142 100.102 95.4077C100.35 95.4755 100.496 95.7355 100.425 95.9841C100.365 96.1913 100.177 96.327 99.9748 96.327Z" fill="#3AAA8F"/>
<path d="M109.523 95.6084C109.418 95.6084 109.313 95.5745 109.227 95.5029L106.601 93.3435C106.403 93.1777 106.373 92.8837 106.534 92.684C106.699 92.4805 106.991 92.4541 107.19 92.6162L109.816 94.7756C110.014 94.9414 110.044 95.2353 109.883 95.435C109.793 95.5519 109.658 95.6084 109.523 95.6084Z" fill="#3AAA8F"/>
<path d="M63.6623 30.3639C63.636 30.3639 63.6098 30.3602 63.5835 30.3564C63.3285 30.3112 63.1597 30.0701 63.2047 29.8139L64.6862 21.1866C64.7312 20.9304 64.975 20.7609 65.2262 20.8061C65.4813 20.8513 65.65 21.0924 65.605 21.3486L64.1236 29.9759C64.0786 30.2057 63.8836 30.3639 63.6623 30.3639Z" fill="#3AAA8F"/>
<path d="M54.5713 50.9675C54.47 50.9675 54.365 50.9336 54.2787 50.8658C54.0762 50.7038 54.0462 50.4099 54.2075 50.2065C56.2477 47.656 57.8754 44.8154 59.0531 41.7638C59.1468 41.5227 59.4206 41.4059 59.6569 41.4963C59.8969 41.5905 60.0169 41.8618 59.9232 42.1029C58.7118 45.2411 57.0353 48.1646 54.9351 50.7942C54.845 50.9072 54.71 50.9675 54.5713 50.9675Z" fill="#3AAA8F"/>
<path d="M62.2374 56.5134C62.2299 56.5134 62.2262 56.5134 62.2187 56.5134C61.9599 56.5021 61.7611 56.2874 61.7686 56.0274L62.0049 49.7924C62.0161 49.5325 62.2224 49.3403 62.4887 49.3403C62.7475 49.3516 62.9463 49.5664 62.9388 49.8263L62.7025 56.0613C62.695 56.3137 62.4887 56.5134 62.2374 56.5134Z" fill="#3AAA8F"/>
<path d="M68.2041 51.7137C68.1816 51.7137 68.1554 51.7137 68.1329 51.7099C67.8778 51.6722 67.7016 51.4311 67.7428 51.1749C67.9641 49.7207 67.8253 48.2176 67.3415 46.8312C67.2553 46.5863 67.3828 46.3188 67.6266 46.2321C67.8703 46.1493 68.1366 46.2736 68.2229 46.5185C68.7592 48.0518 68.913 49.7094 68.6692 51.3143C68.6279 51.5479 68.4292 51.7137 68.2041 51.7137Z" fill="#3AAA8F"/>
<path d="M70.6312 74.9775C70.4136 74.9775 70.2186 74.823 70.1736 74.6007L68.9697 68.6068C68.9172 68.3544 69.0822 68.1058 69.3335 68.0568C69.581 68.0003 69.8323 68.1698 69.8811 68.4222L71.085 74.4161C71.1375 74.6685 70.9725 74.9172 70.7212 74.9662C70.6912 74.9737 70.6612 74.9775 70.6312 74.9775Z" fill="#3AAA8F"/>
<path d="M61.2734 78.5713C61.2059 78.5713 61.1346 78.5563 61.0671 78.5224C60.8346 78.4093 60.7408 78.1306 60.8533 77.897C61.7947 75.9605 62.2935 73.7943 62.2935 71.6356C62.2935 71.3757 62.5035 71.1685 62.7586 71.1685C63.0174 71.1685 63.2236 71.3794 63.2236 71.6356C63.2236 73.9375 62.6911 76.2431 61.6897 78.3076C61.6109 78.4734 61.4459 78.5713 61.2734 78.5713Z" fill="#3AAA8F"/>
<path d="M48.1582 74.5024C48.0194 74.5024 47.8844 74.4421 47.7906 74.3253C47.6294 74.1219 47.6631 73.828 47.8656 73.666C49.5608 72.3173 50.9148 70.5542 51.7886 68.5688C51.8936 68.3314 52.1674 68.2259 52.4037 68.3314C52.64 68.4369 52.745 68.7119 52.64 68.9493C51.7061 71.0741 50.2547 72.9615 48.4432 74.4044C48.3644 74.4685 48.2594 74.5024 48.1582 74.5024Z" fill="#3AAA8F"/>
<path d="M45.0751 66.8394C44.9851 66.8394 44.8989 66.813 44.8201 66.764C44.6063 66.6209 44.5463 66.3308 44.6851 66.116L49.2307 59.1652C49.3732 58.9505 49.662 58.8902 49.8757 59.0296C50.0895 59.1728 50.1495 59.4629 50.0108 59.6776L45.4652 66.6246C45.3752 66.764 45.2252 66.8394 45.0751 66.8394Z" fill="#3AAA8F"/>
<path d="M58.3069 68.5049C58.0481 68.5049 57.8381 68.2939 57.8418 68.034L57.8531 63.4755C57.8531 63.2155 58.0631 63.0083 58.3181 63.0083C58.5769 63.0083 58.7832 63.2193 58.7832 63.4792L58.772 68.0377C58.772 68.2977 58.5657 68.5049 58.3069 68.5049Z" fill="#3AAA8F"/>
<path d="M53.8922 91.0523C53.8585 91.0523 53.8247 91.0486 53.791 91.041C53.5397 90.9845 53.3822 90.7359 53.4347 90.4835L54.3911 86.1661C54.4473 85.9136 54.6911 85.7516 54.9461 85.8119C55.1974 85.8684 55.3549 86.1171 55.3024 86.3695L54.346 90.6869C54.2973 90.9016 54.106 91.0523 53.8922 91.0523Z" fill="#3AAA8F"/>
<path d="M67.4994 89.8508C67.4806 89.8508 67.4656 89.8508 67.4469 89.8471C67.1918 89.8207 67.0043 89.5871 67.0343 89.3309C67.2181 87.6356 67.0568 85.8725 66.573 84.2375C66.5018 83.9888 66.6405 83.7289 66.8881 83.6535C67.1393 83.5819 67.3944 83.7213 67.4694 83.97C67.9869 85.7218 68.1595 87.613 67.9644 89.4327C67.9382 89.6738 67.7357 89.8508 67.4994 89.8508Z" fill="#3AAA8F"/>
<path d="M79.9772 93.9044C79.7897 93.9044 79.6171 93.7914 79.5421 93.6068L77.4494 88.3061C77.3556 88.065 77.4719 87.7937 77.7119 87.6996C77.9519 87.6054 78.222 87.7222 78.3157 87.9633L80.4085 93.2602C80.5023 93.5013 80.386 93.7726 80.146 93.8667C80.0935 93.8969 80.0334 93.9044 79.9772 93.9044Z" fill="#3AAA8F"/>
<path d="M41.7113 92.4916C41.595 92.4916 41.4788 92.4501 41.3887 92.3597C41.2012 92.1826 41.1975 91.885 41.3737 91.6966C43.3877 89.5794 44.9179 86.9912 45.8031 84.2033C45.8818 83.9585 46.1443 83.8191 46.3881 83.8982C46.6357 83.9773 46.7707 84.241 46.6919 84.4859C45.7655 87.4094 44.1603 90.1256 42.0488 92.3409C41.9588 92.4426 41.835 92.4916 41.7113 92.4916Z" fill="#3AAA8F"/>
<path d="M34.1313 86.2943C34.0413 86.2943 33.9513 86.2679 33.8726 86.2152C33.6588 86.072 33.6025 85.7819 33.7413 85.5634L38.5156 78.3677C38.6582 78.153 38.947 78.0965 39.1645 78.2358C39.3783 78.379 39.4345 78.6691 39.2957 78.8876L34.5214 86.0833C34.4314 86.2227 34.2814 86.2943 34.1313 86.2943Z" fill="#3AAA8F"/>
<path d="M22.3923 97.3062C22.276 97.3062 22.1635 97.2648 22.0735 97.1781C21.886 97.0011 21.8785 96.7035 22.0548 96.5151L26.3453 91.9528C26.5216 91.7644 26.8179 91.7569 27.0054 91.934C27.1929 92.111 27.2004 92.4086 27.0241 92.597L22.7336 97.1593C22.6398 97.2573 22.5161 97.3062 22.3923 97.3062Z" fill="#3AAA8F"/>
<path d="M33.6474 99.7029C33.6024 99.7029 33.5574 99.6954 33.5161 99.6841C33.2686 99.6087 33.1298 99.3488 33.2011 99.1001L34.4087 95.0276C34.4837 94.7789 34.7425 94.6395 34.99 94.7111C35.2376 94.7865 35.3763 95.0464 35.3051 95.2951L34.0974 99.3676C34.0374 99.571 33.8499 99.7029 33.6474 99.7029Z" fill="#3AAA8F"/>
</svg>
