<svg width="578" height="429" viewBox="0 0 578 429" fill="none" xmlns="http://www.w3.org/2000/svg">
<path d="M369.062 403.946C298.09 422.612 224.746 439.645 152.65 418.983C132.838 413.306 108.858 412.577 90.9976 403.115C71.6657 392.873 54.9594 377.745 42.0919 360.062C17.2699 325.961 2.54456 279.291 0.270787 237.174C0.268326 237.117 0.265866 237.06 0.260944 237.001C-0.979294 213.209 7.07979 189.916 16.7925 168.174C26.6062 146.203 38.7723 124.397 57.8065 109.745C88.1407 86.3978 126.236 88.2852 160.771 76.7634C193.955 65.6912 213.284 37.1166 242.083 19.0335C279.403 -4.39785 326.485 -2.69083 367.081 8.58143C407.896 19.913 445.664 33.3419 470.373 70.711C489.23 99.2313 495.273 133.288 514.751 161.482C531.513 185.746 557.711 204.889 569.907 231.178C587.002 268.031 572.884 309.928 556.308 346.964C554.315 351.418 552.206 355.974 548.498 359.477C537.008 370.324 530.322 379.276 513.114 381.497C489.215 384.583 464.927 383.6 441.043 386.796C416.58 390.069 392.937 397.666 369.062 403.946Z" fill="#6BE6C8" fill-opacity="0.5"/>
</svg>
