<svg width="597" height="375" viewBox="0 0 597 375" fill="none" xmlns="http://www.w3.org/2000/svg">
<path d="M243.841 273.625L243.404 271.674L243.841 273.625ZM417 141L418.233 142.575L417 141ZM0.374199 294.9C3.22928 295.84 6.56997 296.632 10.3313 297.287L11.0179 293.346C7.38739 292.714 4.2457 291.964 1.62572 291.101L0.374199 294.9ZM25.4274 299.068C31.5299 299.523 38.2822 299.773 45.5768 299.83L45.6078 295.83C38.3826 295.774 31.7212 295.526 25.7248 295.079L25.4274 299.068ZM60.6539 299.692C67.0413 299.536 73.7377 299.26 80.6893 298.868L80.464 294.874C73.5507 295.264 66.897 295.539 60.5563 295.693L60.6539 299.692ZM95.6996 297.871C102.202 297.378 108.879 296.795 115.692 296.126L115.301 292.145C108.516 292.812 101.869 293.392 95.3971 293.883L95.6996 297.871ZM130.634 294.544C137.183 293.802 143.828 292.986 150.537 292.099L150.012 288.133C143.328 289.017 136.708 289.83 130.184 290.569L130.634 294.544ZM165.424 290.028C171.998 289.069 178.611 288.045 185.234 286.959L184.587 283.011C177.987 284.094 171.397 285.114 164.847 286.07L165.424 290.028ZM200.055 284.425C206.642 283.253 213.22 282.021 219.759 280.732L218.985 276.807C212.471 278.092 205.918 279.319 199.354 280.487L200.055 284.425ZM234.486 277.714C237.766 277.016 241.031 276.304 244.277 275.577L243.404 271.674C240.172 272.397 236.92 273.106 233.653 273.802L234.486 277.714ZM244.277 275.577C247.887 274.769 251.373 273.942 254.739 273.094L253.763 269.215C250.432 270.054 246.981 270.873 243.404 271.674L244.277 275.577ZM270.343 268.779C277.731 266.533 284.461 264.17 290.624 261.696L289.134 257.984C283.088 260.411 276.468 262.736 269.179 264.952L270.343 268.779ZM305.378 255.04C312.347 251.506 318.458 247.782 323.927 243.881L321.605 240.624C316.304 244.405 310.366 248.025 303.569 251.472L305.378 255.04ZM336.556 233.612C342.027 228.56 346.815 223.283 351.308 217.814L348.217 215.275C343.809 220.641 339.146 225.776 333.842 230.674L336.556 233.612ZM361.176 205.076C365.318 199.507 369.426 193.823 373.921 187.951L370.744 185.52C366.23 191.418 362.064 197.179 357.967 202.689L361.176 205.076ZM383.879 175.555C388.19 170.48 392.923 165.304 398.285 160.038L395.482 157.184C390.024 162.545 385.209 167.81 380.83 172.965L383.879 175.555ZM409.997 149.309C412.605 147.08 415.346 144.835 418.233 142.575L415.767 139.425C412.835 141.72 410.05 144.002 407.398 146.269L409.997 149.309ZM418.233 142.575C421.049 140.371 423.93 138.303 426.872 136.357L424.665 133.021C421.637 135.023 418.67 137.153 415.767 139.425L418.233 142.575ZM440.675 128.299C446.959 125.065 453.484 122.237 460.237 119.699L458.83 115.955C451.956 118.538 445.286 121.427 438.845 124.742L440.675 128.299ZM475.467 114.537C482.19 112.474 489.102 110.598 496.194 108.811L495.216 104.933C488.081 106.731 481.1 108.624 474.293 110.713L475.467 114.537ZM511.914 105.021C518.811 103.413 525.805 101.831 532.977 100.169L532.074 96.2726C524.947 97.9235 517.888 99.5207 511.006 101.125L511.914 105.021ZM548.766 96.4193C555.656 94.7291 562.654 92.9255 569.745 90.9402L568.666 87.0883C561.627 89.0591 554.673 90.8517 547.813 92.5345L548.766 96.4193ZM585.335 86.3017C588.756 85.2191 592.195 84.0844 595.653 82.8904L594.347 79.1095C590.924 80.2915 587.517 81.4153 584.128 82.4881L585.335 86.3017Z" fill="#3AAA8F"/>
</svg>
