<svg width="379" height="332" viewBox="0 0 379 332" fill="none" xmlns="http://www.w3.org/2000/svg">
<g clip-path="url(#clip0)">
<g filter="url(#filter0_i)">
<path d="M119.017 251.09C150.095 273.275 182.628 295.104 221.518 298.371C232.205 299.269 244.006 303.343 254.442 302.041C265.739 300.63 276.661 296.358 286.187 290.135C304.562 278.135 320.348 258.157 329.235 238.095C329.247 238.068 329.258 238.04 329.272 238.012C334.27 226.671 334.653 213.854 333.945 201.487C333.229 188.989 331.339 176.138 324.786 165.497C314.343 148.54 295.462 142.422 280.79 130.441C266.692 118.928 262.568 101.461 251.899 87.3485C238.072 69.0607 214.852 61.1955 193.021 59.1802C171.072 57.1531 150.218 56.7088 131.294 70.319C116.852 80.7066 107.62 96.1529 92.9361 106.267C80.2988 114.972 64.0178 119.443 53.2282 129.976C38.1035 144.741 37.2312 167.724 38.453 188.797C38.5998 191.331 38.7841 193.936 39.9411 196.325C43.5264 203.722 45.1251 209.311 53.0862 213.569C64.1426 219.483 76.1398 223.491 87.1684 229.456C98.4642 235.566 108.563 243.627 119.017 251.09Z" fill="#6BE6C8"/>
</g>
<g clip-path="url(#clip1)">
<path d="M157.71 167.89C156.334 174.075 150.425 177.92 144.509 176.481C138.594 175.042 134.914 168.863 136.29 162.683C137.666 156.498 143.576 152.653 149.491 154.092C155.407 155.531 159.086 161.711 157.71 167.89Z" fill="#FFE8BF"/>
<path d="M140.877 165.666C140.138 168.972 142.11 172.273 145.273 173.042C148.437 173.811 151.6 171.757 152.333 168.45L140.877 165.666Z" fill="#6BE5C8"/>
</g>
<g clip-path="url(#clip2)">
<path d="M114.025 155.558L108.44 147.754L102.409 151.313L96.6434 143.813L90.314 146.326L85.2885 141.276L83.4573 143.485L90.1772 150.238L96.1769 147.859L102.177 155.656L108.103 152.161L113.166 159.233L114.025 155.558Z" fill="#9BC1F9"/>
</g>
</g>
<defs>
<filter id="filter0_i" x="38.0669" y="58.1196" width="300.151" height="248.176" filterUnits="userSpaceOnUse" color-interpolation-filters="sRGB">
<feFlood flood-opacity="0" result="BackgroundImageFix"/>
<feBlend mode="normal" in="SourceGraphic" in2="BackgroundImageFix" result="shape"/>
<feColorMatrix in="SourceAlpha" type="matrix" values="0 0 0 0 0 0 0 0 0 0 0 0 0 0 0 0 0 0 127 0" result="hardAlpha"/>
<feOffset dx="4" dy="4"/>
<feGaussianBlur stdDeviation="6.5"/>
<feComposite in2="hardAlpha" operator="arithmetic" k2="-1" k3="1"/>
<feColorMatrix type="matrix" values="0 0 0 0 0 0 0 0 0 0 0 0 0 0 0 0 0 0 0.25 0"/>
<feBlend mode="normal" in2="shape" result="effect1_innerShadow"/>
</filter>
<clipPath id="clip0">
<rect width="315.988" height="233.937" fill="white" transform="matrix(-0.934896 -0.354921 -0.355113 0.934823 378.49 112.988)"/>
</clipPath>
<clipPath id="clip1">
<rect width="21.9985" height="22.9945" fill="white" transform="translate(136 153.79)"/>
</clipPath>
<clipPath id="clip2">
<rect width="29.8023" height="20.9314" fill="white" transform="matrix(0.483494 0.875232 -0.856289 0.516691 100.923 131.842)"/>
</clipPath>
</defs>
</svg>
