<svg width="16" height="17" viewBox="0 0 16 17" fill="none" xmlns="http://www.w3.org/2000/svg">
<path d="M0.026334 8.16548C-0.336607 12.2541 3.03918 15.9879 6.79102 16.6701C10.6741 17.375 14.1329 14.7463 15.4666 11.0261C18.099 3.69032 10.3811 -2.09919 6.19633 2.33959C2.28706 6.48275 3.52456 12.6406 7.74429 12.6452C9.33598 12.6452 11.8984 11.2581 10.8796 9.25243C10.6522 8.80219 10.0094 8.83402 9.77326 9.25243C9.26164 10.1575 9.301 10.1939 9.0605 10.394C8.68006 10.7123 8.15533 10.8169 7.6787 10.8078C3.38463 10.7305 6.24005 0.511319 11.3037 2.98539C14.0848 4.34522 14.9025 7.63337 13.9405 10.5031C13.0091 13.2683 10.521 15.4103 7.63497 15.2148C4.19359 14.9874 1.30319 11.6901 1.08017 8.16093C1.03645 7.456 0.0919257 7.4651 0.026334 8.16548Z" fill="#357A89"/>
</svg>
