<svg width="1244" height="1024" viewBox="0 0 1244 1024" fill="none" xmlns="http://www.w3.org/2000/svg">
<path d="M669.727 907.268C534.133 907.08 395.099 902.809 276.538 831.031C243.958 811.308 201.548 798.534 174.279 772.906C144.764 745.165 122.297 709.85 107.912 671.754C80.1571 598.285 76.4914 506.931 92.8257 429.752C92.8488 429.648 92.8719 429.544 92.8918 429.435C102.198 385.858 127.845 347.625 155.69 312.986C183.826 277.98 216.077 244.397 257.112 227.02C322.507 199.333 389.526 220.945 456.687 216.63C521.221 212.482 569.522 170.093 629.63 151.183C707.524 126.682 892.31 143.948 959.245 183.71C1026.54 223.684 1007.93 280.026 1033.9 359.346C1053.72 419.883 1025.81 478.581 1046.9 538.825C1065.04 590.672 1102.49 637.774 1111.51 691.098C1124.16 765.848 1078.7 834.798 1031.21 893.789C1025.5 900.884 1019.54 908.106 1011.23 912.663C985.488 926.771 969.232 939.751 937.47 935.541C893.359 929.696 850.524 916.315 806.386 910.678C761.179 904.903 715.34 907.33 669.727 907.268Z" fill="#FFF59D"/>
</svg>
