<svg width="1189" height="783" viewBox="0 0 1189 783" fill="none" xmlns="http://www.w3.org/2000/svg">
<path d="M760.35 43.8071C614.411 10.7656 463.581 -19.3855 315.118 17.1893C274.321 27.2382 224.973 28.5282 188.171 45.2763C148.337 63.4063 113.88 90.1858 87.3092 121.487C36.0519 181.85 5.50386 264.463 0.601695 339.016C0.59633 339.117 0.590965 339.217 0.580524 339.322C-2.09773 381.437 14.362 422.669 34.2326 461.155C54.3096 500.048 79.2283 538.647 118.317 564.582C180.612 605.911 259.012 602.57 330.013 622.965C398.237 642.564 437.859 693.145 497.023 725.155C573.693 766.632 777.532 796.11 861.126 776.157C945.171 756.098 941.555 700.036 992.596 633.887C1031.55 583.402 1018.62 522.909 1058.85 473.001C1093.47 430.051 1147.48 396.165 1172.71 349.629C1208.09 284.394 1179.26 210.23 1145.35 144.672C1141.27 136.788 1136.95 128.724 1129.34 122.523C1105.76 103.322 1092.05 87.4746 1056.65 83.5434C1007.49 78.0817 957.505 79.8221 908.374 74.1636C858.055 68.3695 809.444 54.9229 760.35 43.8071Z" fill="#FFFBCF"/>
</svg>
