<svg width="875" height="656" viewBox="0 0 875 656" fill="none" xmlns="http://www.w3.org/2000/svg">
<path d="M551.239 618.084C442.778 646.664 330.807 672.744 222.635 641.107C192.909 632.415 156.618 631.3 130.04 616.813C101.273 601.131 76.7307 577.967 58.1331 550.892C22.2569 498.679 2.31257 427.22 1.00063 362.733C0.999776 362.646 0.998927 362.559 0.994473 362.468C0.320339 326.039 13.7085 290.375 29.5232 257.085C45.5024 223.444 65.0371 190.056 94.6139 167.622C141.749 131.874 199.365 134.764 252.265 117.122C303.096 100.169 333.825 56.4176 378.367 28.7299C436.091 -7.1468 507.329 -4.53312 568.257 12.7263C629.513 30.0765 686.048 50.6379 721.588 107.855C748.71 151.524 756.141 203.669 784.22 246.838C808.385 283.99 847.103 313.3 864.247 353.553C888.278 409.98 864.77 474.131 837.784 530.837C834.539 537.657 831.113 544.632 825.318 549.995C807.363 566.604 796.781 580.312 770.6 583.712C734.239 588.437 697.495 586.931 661.15 591.826C623.926 596.838 587.724 608.469 551.239 618.084Z" fill="#5BB0A1"/>
</svg>
