<svg width="41" height="30" viewBox="0 0 41 30" fill="none" xmlns="http://www.w3.org/2000/svg">
<g clip-path="url(#clip0)">
<path d="M39.8169 15.396L31.5373 11.3889L33.9135 7.89859C34.4352 7.13614 34.253 6.08565 33.4996 5.55193C32.7544 5.01821 31.7277 5.20459 31.2061 5.97552L28.4656 9.99957L21.0471 6.39063L23.5889 2.66308C24.1105 1.90063 23.9284 0.850139 23.1749 0.316422C22.4298 -0.217295 21.4031 -0.0309175 20.8815 0.740007L17.9754 5.00974L9.42258 0.917913C8.69398 0.570573 7.8329 0.807781 7.36925 1.48552L6.92215 2.13784C6.34258 2.99348 6.64893 4.17952 7.56796 4.62852L15.5826 8.5255L11.3766 14.7098L2.82377 10.618C2.09516 10.2707 1.23409 10.5079 0.770433 11.1856L0.298498 11.8718C-0.281071 12.7275 0.0252716 13.9135 0.944304 14.3625L8.95893 18.2595L6.58269 21.7498C6.06108 22.5123 6.24323 23.5628 6.99667 24.0965C7.74183 24.6302 8.7685 24.4438 9.29011 23.6729L12.0306 19.6488L19.4077 23.3171L16.8659 27.0446C16.3443 27.8071 16.5265 28.8576 17.2799 29.3913C18.0251 29.925 19.0517 29.7386 19.5733 28.9677L22.4795 24.698L31.2558 28.9423C31.9844 29.2981 32.8538 29.0609 33.3091 28.3832L33.8307 27.6207C34.4103 26.7651 34.104 25.579 33.1849 25.13L24.9054 21.1229L29.1197 14.9386L37.896 19.1829C38.6163 19.5556 39.4857 19.3184 39.9493 18.6492L40.471 17.8867C41.0505 17.0311 40.7359 15.845 39.8169 15.396ZM21.8337 19.7505L14.4152 16.1416L18.6212 9.95721L26.0397 13.5662L21.8337 19.7505Z" fill="#F7CC7F"/>
</g>
<defs>
<clipPath id="clip0">
<rect width="40.7603" height="29.6933" fill="white" transform="matrix(-1 4.16744e-09 4.16744e-09 1 40.7603 0.0112305)"/>
</clipPath>
</defs>
</svg>
