<svg width="164" height="266" viewBox="0 0 164 266" fill="none" xmlns="http://www.w3.org/2000/svg">
<g clip-path="url(#clip0)" filter="url(#filter0_d)">
<path d="M27.6251 170.673C27.6 170.708 27.5749 170.748 27.5498 170.783C25.502 173.848 22.0588 176.496 21.4364 180.276C21.3862 180.577 21.346 180.892 21.4163 181.188C21.4866 181.483 21.6923 181.768 21.9885 181.848C22.2846 181.929 22.651 181.733 22.6761 181.428C22.4804 181.768 22.651 182.259 23.0124 182.409C23.3738 182.559 23.8406 182.329 23.946 181.949C23.7954 182.439 24.0765 183.025 24.5533 183.215C25.0302 183.406 25.6375 183.18 25.8684 182.72C25.6475 183.12 26.024 183.651 26.4757 183.726C26.9274 183.806 27.3792 183.576 27.7506 183.3C28.5236 182.735 29.0355 181.994 29.4722 181.157C29.2062 182.044 28.9954 182.82 29.3718 183.726C29.4973 184.026 29.683 184.327 29.9791 184.462C30.2753 184.602 30.6919 184.512 30.8224 184.217C30.8927 184.061 30.8726 183.886 30.8625 183.716C30.3857 177.848 32.9857 172.616 36.5494 168.08C38.7026 165.341 41.142 162.848 43.4458 160.234C45.6091 157.776 47.3357 155.097 49.3384 152.508C53.6399 146.946 58.1974 141.584 62.8051 136.276C66.2383 132.321 76.844 125.066 65.8267 117.31C58.1121 111.878 56.4005 119.719 54.1218 123.389C48.5504 132.356 42.6829 141.188 38.02 150.676C36.3486 154.081 34.3208 157.365 32.7197 160.77C31.1185 164.179 29.7131 167.519 27.6251 170.673Z" fill="#FABF89"/>
<path d="M67.8522 167.258C67.8522 167.258 65.6454 178.537 64.6473 184.794C63.6493 191.05 65.9714 197.667 78.5251 197.667C91.0788 197.667 116.798 199.528 119.918 192.005C122.907 184.794 117.47 170.599 117.47 170.599L67.8522 167.258Z" fill="#238E79"/>
<path d="M77.9664 68.1205C78.296 67.1854 79.3547 66.5004 80.2985 66.8004C80.9726 67.0154 81.437 67.6604 81.6268 68.3405C81.9714 69.5756 82.291 72.8458 80.3035 72.4257C78.2461 71.9907 77.9664 69.7406 77.9664 68.1205Z" fill="#FABF89"/>
<path d="M99.4392 66.9554C100.133 66.2503 101.387 66.0803 102.111 66.7554C102.63 67.2354 102.775 68.0204 102.655 68.7155C102.44 69.9806 101.342 73.0758 99.7189 71.8457C98.046 70.5756 98.7501 68.4255 99.4392 66.9554Z" fill="#FABF89"/>
<path d="M101.132 95.9022C98.4254 99.2924 94.1908 101.633 89.8613 101.313C85.5417 100.993 81.4269 97.5873 80.9825 93.277C82.0012 90.7569 82.7752 88.1467 83.3045 85.4865C83.4294 84.8515 83.5442 84.2064 83.6391 83.5564C83.744 82.8613 83.8339 82.1613 83.9088 81.4613C84.0037 80.5362 83.694 78.3061 84.2933 77.561C84.3832 77.446 84.538 77.396 84.7527 77.381C86.0061 77.306 89.1272 78.7511 90.4206 78.7461C91.1396 78.7411 97.5116 78.041 97.5715 77.496C97.3918 79.2811 97.3618 81.0812 97.4866 82.8713C97.7863 87.3966 99.0247 91.8769 101.132 95.9022Z" fill="#FABF89"/>
<path d="M80.0038 67.4704L80.628 64.6152C80.5081 65.4303 80.3883 66.2603 80.2784 67.0854C80.1886 67.2104 80.0937 67.3404 80.0038 67.4704Z" fill="#FABF89"/>
<path d="M97.4918 82.8612C95.6791 85.0414 93.0774 86.5965 90.2759 86.6215C87.7241 86.6465 85.407 85.4114 83.6443 83.5513C83.7491 82.8562 83.839 82.1562 83.9139 81.4561C84.0088 80.5311 83.6992 78.3009 84.2984 77.5559C84.3883 77.4409 84.5431 77.3909 84.7579 77.3759C86.0113 77.3009 89.1323 78.746 90.4257 78.741C91.1448 78.736 97.5168 78.0359 97.5767 77.4909C97.3969 79.276 97.3669 81.0761 97.4918 82.8612Z" fill="#FEAB62"/>
<path d="M80.628 59.4999C79.9589 64.0352 79.3047 68.7405 80.5931 73.1408C81.8815 77.541 85.6967 81.5513 90.2759 81.5063C93.7515 81.4713 96.9025 79.0961 98.6503 76.086C100.398 73.0758 100.947 69.5155 101.107 66.0403C101.317 61.51 100.473 56.2047 96.518 53.9846C93.5567 52.3194 89.7216 53.0545 86.8851 54.9196C84.0487 56.7847 81.9963 59.5999 80.0088 62.3551L80.628 59.4999Z" fill="#FABF89"/>
<path d="M93.7114 53.6344C94.8101 58.5197 91.6291 63.9851 86.8451 65.4352C85.0274 65.9902 82.9051 66.1002 81.6217 67.5053C80.8177 68.3854 80.4382 69.6904 79.3795 70.2355C77.8515 71.0255 76.0438 69.6604 75.2548 68.1353C73.9614 65.6352 74.1012 62.445 75.6143 60.0698C76.613 58.4997 78.1261 57.3047 79.1049 55.7196C80.1735 53.9894 80.5431 51.8743 81.7466 50.2292C83.4993 47.8341 86.6404 46.934 89.5817 46.534C91.709 46.244 94.1259 46.214 95.7039 47.674C96.7576 48.6541 97.242 50.1392 98.3306 51.0843C99.4142 52.0243 100.917 52.2693 102.201 52.9144C104.713 54.1795 106.231 57.0546 106.171 59.8748C106.106 62.69 104.598 65.3752 102.41 67.1503C101.162 68.1603 99.1646 68.8354 98.0809 67.6503C97.3169 66.8103 97.4717 65.5202 97.5866 64.3901C97.7064 63.26 97.6265 61.895 96.6477 61.3149C95.9936 60.9249 95.1696 61.0499 94.4156 60.9399C93.6615 60.8299 92.8226 60.2148 93.0273 59.4798L93.7114 53.6344Z" fill="#936037"/>
<path d="M77.8914 68.0404C77.8315 68.0404 77.7715 68.0254 77.7216 67.9854C77.5868 67.8904 77.5568 67.7054 77.6517 67.5704L80.4182 63.6451C80.6279 63.3501 80.8626 63.0101 81.2122 62.7851C81.6966 62.4701 82.2809 62.4301 82.7553 62.3951L87.5142 62.065C87.9287 62.035 88.3931 62.005 88.7327 61.78C89.0473 61.57 89.2471 61.195 89.4168 60.825C90.2907 58.8848 90.5704 56.6597 90.1959 54.5646C90.1659 54.4046 90.2758 54.2495 90.4355 54.2195C90.5953 54.1895 90.7502 54.2995 90.7801 54.4596C91.1746 56.6747 90.88 59.0198 89.9562 61.07C89.7614 61.5 89.5017 61.985 89.0623 62.28C88.5929 62.5951 88.0186 62.6351 87.5542 62.6651L82.7952 62.9951C82.3707 63.0251 81.8913 63.0551 81.5418 63.2901C81.2871 63.4551 81.0924 63.7301 80.9076 63.9952L78.1411 67.9204C78.0762 67.9954 77.9863 68.0404 77.8914 68.0404Z" fill="#7D4E24"/>
<path d="M76.2934 64.4751C76.2734 64.4751 76.2584 64.4751 76.2384 64.4701C76.0786 64.4401 75.9688 64.2851 75.9987 64.1251C76.3283 62.31 76.7778 60.4599 78.2759 59.4848C78.5505 59.3048 78.8501 59.1698 79.1348 59.0398C79.4544 58.8948 79.759 58.7547 80.0237 58.5597C80.9325 57.8997 81.2521 56.7596 81.5867 55.5495C81.6866 55.1945 81.7864 54.8395 81.8963 54.5045C82.3907 53.0294 83.2546 51.6943 84.3931 50.6392C85.0423 50.0392 85.6765 49.6242 86.3357 49.3741C87.9237 48.7741 89.8163 49.1591 91.0447 50.3342C91.1646 50.4492 91.1696 50.6342 91.0547 50.7542C90.9399 50.8742 90.7501 50.8792 90.6353 50.7642C89.5666 49.7442 87.9237 49.4091 86.5454 49.9342C85.9612 50.1542 85.3919 50.5292 84.7976 51.0793C83.734 52.0693 82.925 53.3194 82.4606 54.6945C82.3507 55.0245 82.2558 55.3645 82.156 55.7095C81.8064 56.9646 81.4419 58.2597 80.3682 59.0398C80.0536 59.2648 79.7091 59.4248 79.3745 59.5798C79.0948 59.7098 78.8302 59.8298 78.5905 59.9848C77.2921 60.8299 76.8826 62.55 76.573 64.2351C76.558 64.3751 76.4332 64.4751 76.2934 64.4751Z" fill="#7D4E24"/>
<path d="M84.3783 57.6896C84.3034 57.6896 84.2235 57.6596 84.1635 57.5996C84.0487 57.4796 84.0487 57.2946 84.1685 57.1796C85.0874 56.2795 85.6916 55.0345 85.8264 53.7594C85.8414 53.5944 85.9962 53.4744 86.156 53.4944C86.3208 53.5144 86.4357 53.6594 86.4207 53.8244C86.2659 55.2545 85.6167 56.5996 84.588 57.6046C84.5281 57.6596 84.4532 57.6896 84.3783 57.6896Z" fill="#7D4E24"/>
<path d="M99.8037 65.6153C99.7388 65.6153 99.6739 65.5953 99.6189 65.5503C99.4891 65.4453 99.4691 65.2603 99.574 65.1303C100.153 64.4102 100.388 63.4152 100.223 62.4001C100.053 61.38 99.5091 60.515 98.7251 60.025C98.2207 59.7099 97.6564 59.5299 97.0522 59.3399C96.5878 59.1949 96.1134 59.0399 95.6589 58.8199C94.5304 58.2698 93.5616 57.0298 93.986 55.8197C94.041 55.6647 94.2108 55.5847 94.3656 55.6397C94.5204 55.6947 94.6003 55.8647 94.5453 56.0197C94.2457 56.8747 95.0048 57.8398 95.9186 58.2848C96.3331 58.4849 96.7675 58.6249 97.232 58.7699C97.8412 58.9649 98.4754 59.1649 99.0397 59.5199C99.9685 60.1 100.613 61.115 100.807 62.3001C101.002 63.4852 100.723 64.6553 100.033 65.5053C99.9735 65.5803 99.8886 65.6153 99.8037 65.6153Z" fill="#7D4E24"/>
<path d="M103.984 64.85C103.939 64.85 103.894 64.84 103.854 64.82C103.704 64.745 103.644 64.57 103.719 64.42C104.832 62.1549 104.728 59.2847 103.444 57.1095C103.03 56.3995 102.316 55.4994 101.292 55.2044C100.937 55.1044 100.568 55.0794 100.173 55.0494C99.9037 55.0294 99.624 55.0144 99.3444 54.9644C97.7015 54.6944 96.2683 53.4393 95.7739 51.8492C95.7239 51.6942 95.8138 51.5242 95.9686 51.4792C96.1284 51.4292 96.2932 51.5192 96.3382 51.6742C96.7626 53.0593 98.0111 54.1444 99.4343 54.3794C99.684 54.4194 99.9386 54.4394 100.208 54.4544C100.618 54.4794 101.037 54.5094 101.452 54.6294C102.665 54.9794 103.479 56.0045 103.954 56.8045C105.332 59.1497 105.447 62.2399 104.248 64.68C104.198 64.79 104.093 64.85 103.984 64.85Z" fill="#7D4E24"/>
<path d="M102.136 62.055C102.131 62.055 102.121 62.055 102.116 62.055C101.951 62.045 101.826 61.905 101.836 61.7399C101.926 60.2899 101.427 58.8398 100.463 57.7547C100.353 57.6297 100.363 57.4447 100.488 57.3347C100.613 57.2247 100.798 57.2347 100.907 57.3597C101.976 58.5597 102.53 60.1698 102.431 61.7749C102.426 61.93 102.296 62.055 102.136 62.055Z" fill="#7D4E24"/>
<path d="M146.22 160.726C146.241 160.764 146.262 160.806 146.283 160.844C147.984 164.103 151.11 167.099 151.326 170.918C151.344 171.222 151.35 171.539 151.249 171.825C151.149 172.111 150.915 172.373 150.613 172.421C150.312 172.469 149.97 172.236 149.978 171.931C150.135 172.289 149.914 172.759 149.541 172.869C149.168 172.98 148.73 172.702 148.666 172.313C148.763 172.816 148.423 173.368 147.931 173.507C147.439 173.645 146.862 173.357 146.683 172.875C146.859 173.296 146.43 173.783 145.975 173.81C145.52 173.842 145.098 173.565 144.759 173.252C144.055 172.609 143.626 171.818 143.283 170.942C143.452 171.85 143.579 172.643 143.11 173.503C142.954 173.788 142.739 174.067 142.432 174.17C142.124 174.278 141.721 174.144 141.623 173.837C141.57 173.675 141.609 173.503 141.637 173.335C142.73 167.559 140.711 162.087 137.666 157.205C135.825 154.257 133.676 151.523 131.674 148.683C129.794 146.013 128.369 143.17 126.662 140.387C122.995 134.407 119.054 128.599 115.058 122.84C112.08 118.549 102.356 110.22 114.076 103.686C122.282 99.1091 123.146 107.077 125.012 110.963C129.574 120.458 134.444 129.85 138.053 139.766C139.346 143.325 141.004 146.801 142.228 150.352C143.451 153.907 144.488 157.373 146.22 160.726Z" fill="#FABF89"/>
<path d="M92.0405 100.739C95.6736 99.8706 99.4214 96.4764 99.546 92.6877C101.041 94.1203 102.501 94.5496 104.565 94.6444C108.571 94.8291 112.828 94.0205 116.64 95.6627C120.622 97.3798 122.999 101.433 125.107 105.227C127.425 109.41 129.797 113.747 130.211 118.514C125.013 119.243 119.042 120.032 114.906 124.18C114.158 124.928 114.971 133.564 116.216 138.585C117.627 144.94 117.796 151.074 119.017 157.384C120.517 165.151 120.458 170.062 120.084 177.944C106.394 185.147 89.768 186.52 75.086 181.663C72.2752 180.734 69.4445 179.526 67.4161 177.37C63.8278 173.551 63.6983 175.708 64.4259 170.512C65.2382 164.711 65.4724 156.52 66.8778 148.813C67.735 144.116 69.8033 136.06 69.1654 131.323C68.3181 125.068 61.0669 122.388 55.829 122.148C56.0084 116.378 58.5302 110.647 61.934 105.985C64.6153 102.317 65.8761 100.564 69.9129 98.483C71.8665 97.4747 73.855 96.5412 75.8086 95.528C77.7473 94.5197 79.2175 93.9955 81.196 93.1919C81.9485 95.3283 82.3821 96.1719 84.0317 98.0188C85.5418 99.7059 87.6798 100.869 89.9673 100.959C90.67 100.974 91.3677 100.899 92.0405 100.739Z" fill="#FFDE00"/>
<path d="M120.053 108.783C120.287 108.783 120.522 108.783 120.757 108.783C121.446 108.783 122.11 108.173 122.075 107.463C122.045 106.748 121.496 106.143 120.757 106.143C120.522 106.143 120.287 106.143 120.053 106.143C119.364 106.143 118.699 106.753 118.734 107.463C118.764 108.178 119.314 108.783 120.053 108.783Z" fill="#31A18D"/>
<path d="M113.366 103.848C113.486 103.848 113.601 103.848 113.721 103.848C114.41 103.848 115.074 103.238 115.039 102.528C115.009 101.813 114.46 101.208 113.721 101.208C113.601 101.208 113.486 101.208 113.366 101.208C112.677 101.208 112.013 101.818 112.048 102.528C112.078 103.243 112.622 103.848 113.366 103.848Z" fill="#31A18D"/>
<path d="M107.029 120.069C108.727 120.069 108.732 117.423 107.029 117.423C105.326 117.423 105.326 120.069 107.029 120.069Z" fill="#31A18D"/>
<path d="M101.746 109.843C103.444 109.843 103.449 107.198 101.746 107.198C100.048 107.198 100.043 109.843 101.746 109.843Z" fill="#31A18D"/>
<path d="M116.183 117.248C117.88 117.248 117.885 114.603 116.183 114.603C114.48 114.603 114.48 117.248 116.183 117.248Z" fill="#31A18D"/>
<path d="M110.899 110.548C112.597 110.548 112.602 107.903 110.899 107.903C109.201 107.903 109.196 110.548 110.899 110.548Z" fill="#31A18D"/>
<path d="M102.095 97.8572C102.33 97.8572 102.565 97.8572 102.8 97.8572C103.489 97.8572 104.153 97.2472 104.118 96.5371C104.088 95.8221 103.539 95.217 102.8 95.217C102.565 95.217 102.33 95.217 102.095 95.217C101.406 95.217 100.742 95.8271 100.777 96.5371C100.807 97.2472 101.356 97.8572 102.095 97.8572Z" fill="#31A18D"/>
<path d="M90.1256 113.718C90.2455 113.718 90.3603 113.718 90.4802 113.718C91.1693 113.718 91.8335 113.108 91.7985 112.398C91.7685 111.683 91.2192 111.078 90.4802 111.078C90.3603 111.078 90.2455 111.078 90.1256 111.078C89.4365 111.078 88.7723 111.688 88.8073 112.398C88.8373 113.113 89.3866 113.718 90.1256 113.718Z" fill="#31A18D"/>
<path d="M80.2681 107.023C80.5028 107.023 80.7375 107.023 80.9722 107.023C81.6613 107.023 82.3255 106.413 82.2905 105.703C82.2605 104.988 81.7112 104.383 80.9722 104.383C80.7375 104.383 80.5028 104.383 80.2681 104.383C79.5789 104.383 78.9148 104.993 78.9497 105.703C78.9797 106.418 79.529 107.023 80.2681 107.023Z" fill="#31A18D"/>
<path d="M94.0006 107.023C95.6985 107.023 95.7035 104.378 94.0006 104.378C92.2978 104.378 92.2978 107.023 94.0006 107.023Z" fill="#31A18D"/>
<path d="M97.1664 120.069C97.2863 120.069 97.4011 120.069 97.521 120.069C98.2101 120.069 98.8743 119.459 98.8393 118.749C98.8093 118.034 98.26 117.428 97.521 117.428C97.4011 117.428 97.2863 117.428 97.1664 117.428C96.4773 117.428 95.8131 118.039 95.8481 118.749C95.8781 119.464 96.4274 120.069 97.1664 120.069Z" fill="#31A18D"/>
<path d="M82.73 128.174C84.4279 128.174 84.4329 125.529 82.73 125.529C81.0322 125.534 81.0322 128.174 82.73 128.174Z" fill="#31A18D"/>
<path d="M98.5747 135.579C100.273 135.579 100.278 132.934 98.5747 132.934C96.8769 132.934 96.8719 135.579 98.5747 135.579Z" fill="#31A18D"/>
<path d="M88.3626 126.059C88.4825 126.059 88.5973 126.059 88.7172 126.059C89.4063 126.059 90.0705 125.449 90.0355 124.739C90.0056 124.024 89.4563 123.419 88.7172 123.419C88.5973 123.419 88.4825 123.419 88.3626 123.419C87.6735 123.419 87.0093 124.029 87.0443 124.739C87.0742 125.454 87.6235 126.059 88.3626 126.059Z" fill="#31A18D"/>
<path d="M105.266 130.994C105.386 130.994 105.501 130.994 105.621 130.994C106.31 130.994 106.974 130.384 106.939 129.674C106.909 128.959 106.36 128.354 105.621 128.354C105.501 128.354 105.386 128.354 105.266 128.354C104.577 128.354 103.913 128.964 103.948 129.674C103.978 130.389 104.527 130.994 105.266 130.994Z" fill="#31A18D"/>
<path d="M111.604 130.289C113.301 130.289 113.306 127.644 111.604 127.644C109.906 127.649 109.901 130.289 111.604 130.289Z" fill="#31A18D"/>
<path d="M110.55 144.745C112.247 144.745 112.252 142.1 110.55 142.1C108.847 142.105 108.847 144.745 110.55 144.745Z" fill="#31A18D"/>
<path d="M98.5747 145.45C100.273 145.45 100.278 142.805 98.5747 142.805C96.8769 142.81 96.8719 145.45 98.5747 145.45Z" fill="#31A18D"/>
<path d="M107.733 138.755C109.431 138.755 109.436 136.11 107.733 136.11C106.03 136.11 106.03 138.755 107.733 138.755Z" fill="#31A18D"/>
<path d="M112.307 166.957C114.005 166.957 114.01 164.312 112.307 164.312C110.61 164.317 110.605 166.957 112.307 166.957Z" fill="#31A18D"/>
<path d="M103.419 157.176C103.419 156.941 103.419 156.706 103.419 156.471C103.419 155.781 102.81 155.116 102.1 155.151C101.386 155.181 100.782 155.731 100.782 156.471C100.782 156.706 100.782 156.941 100.782 157.176C100.782 157.866 101.391 158.531 102.1 158.496C102.815 158.466 103.419 157.916 103.419 157.176Z" fill="#31A18D"/>
<path d="M111.339 155.411C111.339 155.531 111.339 155.646 111.339 155.766C111.339 156.456 111.948 157.121 112.657 157.086C113.371 157.056 113.975 156.506 113.975 155.766C113.975 155.646 113.975 155.531 113.975 155.411C113.975 154.721 113.366 154.056 112.657 154.091C111.943 154.121 111.339 154.671 111.339 155.411Z" fill="#31A18D"/>
<path d="M102.8 170.132C104.498 170.132 104.503 167.487 102.8 167.487C101.102 167.487 101.102 170.132 102.8 170.132Z" fill="#31A18D"/>
<path d="M115.479 178.242C117.177 178.242 117.182 175.597 115.479 175.597C113.776 175.597 113.776 178.242 115.479 178.242Z" fill="#31A18D"/>
<path d="M117.94 170.837C119.638 170.837 119.643 168.192 117.94 168.192C116.243 168.192 116.238 170.837 117.94 170.837Z" fill="#31A18D"/>
<path d="M104.912 178.592C106.61 178.592 106.615 175.947 104.912 175.947C103.214 175.947 103.214 178.592 104.912 178.592Z" fill="#31A18D"/>
<path d="M83.6637 180.217C83.5439 180.097 83.429 179.982 83.3092 179.862C82.8198 179.372 81.9259 179.337 81.4415 179.862C80.9571 180.392 80.9172 181.208 81.4415 181.733C81.5614 181.853 81.6762 181.968 81.7961 182.088C82.2855 182.578 83.1793 182.613 83.6637 182.088C84.1481 181.558 84.1881 180.738 83.6637 180.217Z" fill="#31A18D"/>
<path d="M87.8885 168.687C88.0084 168.567 88.1232 168.452 88.2431 168.332C88.7325 167.842 88.7674 166.947 88.2431 166.462C87.7137 165.977 86.8998 165.937 86.3754 166.462C86.2556 166.582 86.1407 166.697 86.0209 166.817C85.5315 167.307 85.4965 168.202 86.0209 168.687C86.5502 169.172 87.3692 169.212 87.8885 168.687Z" fill="#31A18D"/>
<path d="M97.5213 175.422C99.2192 175.422 99.2242 172.777 97.5213 172.777C95.8184 172.777 95.8184 175.422 97.5213 175.422Z" fill="#31A18D"/>
<path d="M87.9232 156.471C87.9232 156.351 87.9232 156.236 87.9232 156.116C87.9232 155.426 87.314 154.761 86.6049 154.796C85.8908 154.826 85.2865 155.376 85.2865 156.116C85.2865 156.236 85.2865 156.351 85.2865 156.471C85.2865 157.161 85.8958 157.826 86.6049 157.791C87.319 157.761 87.9232 157.211 87.9232 156.471Z" fill="#31A18D"/>
<path d="M88.2427 143.3C88.3626 143.18 88.4775 143.065 88.5973 142.945C89.0867 142.455 89.1216 141.56 88.5973 141.075C88.068 140.59 87.254 140.55 86.7297 141.075C86.6098 141.195 86.495 141.31 86.3751 141.43C85.8857 141.92 85.8508 142.815 86.3751 143.3C86.9044 143.785 87.7184 143.825 88.2427 143.3Z" fill="#31A18D"/>
<path d="M89.776 137.695C90.0107 137.695 90.2454 137.695 90.4801 137.695C91.1692 137.695 91.8334 137.085 91.7984 136.375C91.7684 135.659 91.2191 135.054 90.4801 135.054C90.2454 135.054 90.0107 135.054 89.776 135.054C89.0868 135.054 88.4227 135.664 88.4577 136.375C88.4876 137.09 89.0319 137.695 89.776 137.695Z" fill="#31A18D"/>
<path d="M90.9194 152.591C90.9194 152.711 90.9194 152.826 90.9194 152.946C90.9194 153.636 91.5286 154.301 92.2377 154.266C92.9518 154.236 93.556 153.686 93.556 152.946C93.556 152.826 93.556 152.711 93.556 152.591C93.556 151.901 92.9468 151.236 92.2377 151.271C91.5236 151.301 90.9194 151.851 90.9194 152.591Z" fill="#31A18D"/>
<path d="M93.2966 166.252C94.9945 166.252 94.9995 163.606 93.2966 163.606C91.5938 163.611 91.5938 166.252 93.2966 166.252Z" fill="#31A18D"/>
<path d="M69.7012 174.362C71.399 174.362 71.404 171.717 69.7012 171.717C68.0033 171.717 68.0033 174.362 69.7012 174.362Z" fill="#31A18D"/>
<path d="M72.5225 155.326C72.6424 155.326 72.7572 155.326 72.8771 155.326C73.5662 155.326 74.2304 154.716 74.1954 154.006C74.1654 153.291 73.6161 152.686 72.8771 152.686C72.7572 152.686 72.6424 152.686 72.5225 152.686C71.8334 152.686 71.1692 153.296 71.2042 154.006C71.2342 154.716 71.7785 155.326 72.5225 155.326Z" fill="#31A18D"/>
<path d="M77.891 164.932C77.891 165.052 77.891 165.167 77.891 165.282C77.891 165.972 78.5002 166.637 79.2093 166.602C79.9234 166.572 80.5276 166.022 80.5276 165.282C80.5276 165.162 80.5276 165.047 80.5276 164.932C80.5276 164.241 79.9184 163.576 79.2093 163.611C78.4952 163.641 77.891 164.191 77.891 164.932Z" fill="#31A18D"/>
<path d="M82.9947 149.42C82.9947 149.305 82.9947 149.185 82.9947 149.07C82.9947 148.38 82.3854 147.715 81.6763 147.75C80.9623 147.78 80.358 148.33 80.358 149.07C80.358 149.19 80.358 149.305 80.358 149.42C80.358 150.111 80.9672 150.776 81.6763 150.741C82.3904 150.711 82.9947 150.161 82.9947 149.42Z" fill="#31A18D"/>
<path d="M73.5766 141.575C75.2745 141.575 75.2795 138.93 73.5766 138.93C71.8787 138.93 71.8737 141.575 73.5766 141.575Z" fill="#31A18D"/>
<path d="M80.6173 136.99C80.852 136.99 81.0867 136.99 81.3214 136.99C82.0105 136.99 82.6747 136.38 82.6397 135.67C82.6098 134.955 82.0605 134.35 81.3214 134.35C81.0867 134.35 80.852 134.35 80.6173 134.35C79.9282 134.35 79.264 134.96 79.2989 135.67C79.3289 136.385 79.8782 136.99 80.6173 136.99Z" fill="#31A18D"/>
<path d="M72.7823 125.794C72.7823 125.674 72.7823 125.559 72.7823 125.439C72.7823 124.749 72.1731 124.084 71.464 124.119C70.7499 124.149 70.1456 124.699 70.1456 125.439C70.1456 125.559 70.1456 125.674 70.1456 125.794C70.1456 126.484 70.7549 127.149 71.464 127.114C72.1781 127.084 72.7823 126.539 72.7823 125.794Z" fill="#31A18D"/>
<path d="M77.8309 119.239C78.8646 119.549 79.7435 118.694 79.7685 117.689C79.7935 116.673 78.8247 115.843 77.8309 116.138C77.1668 116.333 76.6874 117.079 76.9071 117.764C77.1218 118.434 77.8209 118.899 78.5301 118.689C78.2854 118.764 78.0556 118.719 77.8459 118.554C77.5812 118.524 77.3865 118.394 77.2666 118.174C77.1867 118.054 77.1468 117.929 77.1418 117.789C77.1268 117.639 77.1218 117.604 77.1268 117.689C77.1268 117.704 77.1268 117.714 77.1268 117.729C77.1218 117.539 77.1718 117.369 77.2716 117.204C77.5313 116.808 78.0706 116.548 78.535 116.683C77.8709 116.483 77.0669 116.923 76.9121 117.609C76.7473 118.324 77.1218 119.024 77.8309 119.239Z" fill="#31A18D"/>
<path d="M69.7012 109.138C71.399 109.138 71.404 106.493 69.7012 106.493C68.0033 106.493 68.0033 109.138 69.7012 109.138Z" fill="#31A18D"/>
<path d="M76.3927 99.6172C76.5076 99.6172 76.6274 99.6172 76.7473 99.6172C77.4364 99.6172 78.1006 99.0072 78.0656 98.2971C78.0357 97.5821 77.4864 96.9771 76.7473 96.9771C76.6274 96.9771 76.5126 96.9771 76.3927 96.9771C75.7036 96.9771 75.0394 97.5871 75.0744 98.2971C75.1044 99.0122 75.6537 99.6172 76.3927 99.6172Z" fill="#31A18D"/>
<path d="M64.0683 119.009C65.7661 119.009 65.7711 116.364 64.0683 116.364C62.3704 116.364 62.3654 119.009 64.0683 119.009Z" fill="#31A18D"/>
<path d="M61.9561 114.073C62.0759 114.073 62.1908 114.073 62.3106 114.073C62.9998 114.073 63.6639 113.463 63.629 112.753C63.599 112.038 63.0497 111.433 62.3106 111.433C62.1908 111.433 62.0759 111.433 61.9561 111.433C61.2669 111.433 60.6028 112.043 60.6377 112.753C60.6677 113.468 61.217 114.073 61.9561 114.073Z" fill="#31A18D"/>
<path d="M72.5225 119.009C72.6424 119.009 72.7572 119.009 72.8771 119.009C73.5662 119.009 74.2304 118.399 74.1954 117.689C74.1654 116.973 73.6161 116.368 72.8771 116.368C72.7572 116.368 72.6424 116.368 72.5225 116.368C71.8334 116.368 71.1692 116.978 71.2042 117.689C71.2342 118.404 71.7785 119.009 72.5225 119.009Z" fill="#31A18D"/>
<path d="M96.113 127.824C97.8109 127.824 97.8159 125.179 96.113 125.179C94.4102 125.179 94.4102 127.824 96.113 127.824Z" fill="#31A18D"/>
<path d="M70.76 166.957C72.4578 166.957 72.4628 164.312 70.76 164.312C69.0621 164.317 69.0571 166.957 70.76 166.957Z" fill="#31A18D"/>
<path d="M74.2804 176.302C74.1605 176.302 74.0457 176.302 73.9258 176.302C73.2367 176.302 72.5726 176.912 72.6075 177.622C72.6375 178.337 73.1868 178.942 73.9258 178.942C74.0457 178.942 74.1605 178.942 74.2804 178.942C74.9695 178.942 75.6337 178.332 75.5987 177.622C75.5688 176.907 75.0195 176.302 74.2804 176.302Z" fill="#31A18D"/>
<path d="M91.5336 182.118C93.2315 182.118 93.2365 179.472 91.5336 179.472C89.8358 179.477 89.8308 182.118 91.5336 182.118Z" fill="#31A18D"/>
<path d="M115.419 123.144C115.279 123.144 115.159 123.039 115.144 122.894C115.009 121.679 114.88 120.284 114.745 118.803C114.35 114.533 113.906 109.693 113.067 106.348C113.027 106.198 113.122 106.048 113.267 106.013C113.416 105.973 113.566 106.068 113.601 106.213C114.45 109.603 114.895 114.463 115.294 118.753C115.429 120.229 115.559 121.624 115.694 122.834C115.709 122.984 115.599 123.124 115.449 123.139C115.439 123.144 115.429 123.144 115.419 123.144Z" fill="#FFD000"/>
<path d="M69.8015 125.784C69.7865 125.784 69.7715 125.784 69.7565 125.779C69.6067 125.754 69.5019 125.614 69.5268 125.459L71.3795 113.823C71.4044 113.673 71.5493 113.573 71.6991 113.593C71.8489 113.618 71.9538 113.758 71.9288 113.913L70.0761 125.549C70.0562 125.689 69.9363 125.784 69.8015 125.784Z" fill="#FFD000"/>
<path d="M90.3306 102.772C90.2058 102.772 90.0859 102.772 89.9611 102.767C85.4568 102.597 81.2321 99.3472 79.9088 95.032C79.8638 94.8869 79.9487 94.7319 80.0936 94.6819C80.2434 94.6369 80.3982 94.7169 80.4431 94.8669C81.6965 98.9622 85.7115 102.047 89.9861 102.207C94.2706 102.372 98.4953 99.5872 100.048 95.597C100.103 95.452 100.268 95.387 100.408 95.437C100.553 95.492 100.623 95.652 100.568 95.797C98.9647 99.8923 94.7051 102.772 90.3306 102.772Z" fill="#FFD000"/>
<path d="M66.4407 238.426C66.9351 242.056 67.5842 244.542 67.8938 247.102C71.1697 245.952 75.1996 244.602 75.3195 241.126C75.4493 237.371 75.5542 232.661 75.5442 229.186C75.4993 212.275 75.8288 195.353 75.4144 178.447C75.0848 164.917 57.6268 164.877 56.3734 177.102C55.9239 181.503 57.3971 191.383 57.9813 195.689C59.839 209.309 66.0012 224.69 66.4407 238.426Z" fill="#FABF89"/>
<path d="M65.8314 242.857C65.0973 243.177 64.5081 243.682 63.9338 244.177C62.8551 245.107 61.7765 246.037 60.6929 246.967C60.2035 247.387 59.6841 247.862 59.6342 248.422C59.5593 249.297 60.6329 249.892 61.6517 250.147C63.5043 250.617 65.5967 250.542 67.4643 249.942C69.7015 249.222 71.0748 247.637 73.1122 246.752C74.5803 246.117 76.473 245.912 77.0273 244.402C77.5017 243.107 76.4979 240.936 75.5391 239.931C74.5554 241.371 73.1521 242.747 71.1946 243.082C70.1409 243.262 69.322 243.197 68.3732 242.927C67.4643 242.667 66.7452 242.307 66.5954 242.492C66.5854 242.507 65.8514 242.852 65.8314 242.857Z" fill="#D45248"/>
<path d="M106.845 239.656C106.72 243.231 106.635 242.466 109.182 244.977C112.528 244.412 113.681 244.812 115.239 241.796C116.797 238.781 118.535 229.101 119.099 225.75C121.926 209.039 124.907 194.898 127.968 178.767C130.455 165.662 111.329 165.231 109.407 174.912C108.568 179.147 108.293 189.618 108.143 193.858C107.679 207.279 108.213 226.1 106.845 239.656Z" fill="#FABF89"/>
<path d="M116.203 242.026C116.912 242.351 117.481 242.856 118.036 243.347C119.074 244.272 120.113 245.197 121.152 246.122C121.621 246.542 122.121 247.012 122.161 247.562C122.22 248.417 121.162 248.977 120.163 249.212C118.345 249.642 116.303 249.532 114.49 248.917C112.318 248.177 111.005 246.607 109.032 245.712C107.609 245.067 105.766 244.837 105.247 243.352C104.807 242.081 105.821 239.976 106.775 239.011C107.714 240.431 109.062 241.796 110.965 242.156C111.993 242.351 112.792 242.296 113.721 242.051C114.615 241.811 115.319 241.471 115.464 241.656C115.474 241.671 116.183 242.016 116.203 242.026Z" fill="#D45248"/>
<g clip-path="url(#clip1)">
<path d="M24.7678 215.704C24.7678 215.704 27.1097 216.97 27.1903 217.69C27.2708 218.415 26.5918 219.057 25.9819 219.14C25.3662 219.218 25.3662 219.218 25.3662 219.218C25.3662 219.218 26.8508 217.712 25.9819 217.461C25.113 217.21 24.7678 217.461 24.7678 217.461C24.7678 217.461 25.5791 218.978 24.7678 218.253C23.9564 217.528 23.7895 216.58 23.7895 216.58L20.2622 215.174L20.7168 213.875C20.7225 213.869 22.5121 215.888 24.7678 215.704Z" fill="#472B20"/>
<path d="M21.131 216.044C21.131 216.044 23.145 217.751 23.0759 218.476C23.0011 219.202 22.1955 219.692 21.5798 219.648C20.9641 219.603 20.9641 219.603 20.9641 219.603C20.9641 219.603 22.7364 218.432 21.9481 218.008C21.154 217.584 20.7627 217.762 20.7627 217.762C20.7627 217.762 21.2346 219.408 20.5901 218.538C19.9514 217.668 19.9916 216.703 19.9916 216.703L16.8383 214.617L17.5634 213.434C17.5634 213.434 18.8811 215.771 21.131 216.044Z" fill="#472B20"/>
<path d="M3.31586 203.288C9.73759 207.36 16.4067 198.424 21.1425 195.479C24.5145 193.382 28.7668 191.815 32.5934 193.717C34.1068 194.47 35.7697 195.468 36.7595 196.835C36.9781 197.141 36.6156 197.454 36.3106 197.404C35.1253 197.208 35.0274 198.787 34.9814 199.529C34.9296 200.298 34.8548 201.074 34.7455 201.838C34.5268 203.327 34.1643 204.794 33.5601 206.183C30.05 214.237 18.3402 217.846 10.8769 212.949C7.45316 210.701 4.83498 207.371 2.40094 204.181C1.99814 203.651 2.78072 202.948 3.31586 203.288Z" fill="#F0731C"/>
<path d="M3.31598 203.288C3.97772 203.707 4.63945 203.985 5.30119 204.147C5.38175 204.231 5.46231 204.32 5.54287 204.404C7.6259 206.568 10.1347 208.409 12.9255 209.63C14.2318 210.199 15.6013 210.64 17.0168 210.863C18.4726 211.092 19.9284 211.047 21.3843 210.874C24.8368 210.472 28.3814 209.446 31.1837 207.393C32.1792 206.663 33.1402 205.826 34.0206 204.945C33.8825 205.363 33.7328 205.77 33.5545 206.177C30.0501 214.237 18.3403 217.846 10.877 212.949C7.45327 210.701 4.83509 207.371 2.40105 204.181C1.99826 203.651 2.78084 202.948 3.31598 203.288Z" fill="#ECECEE"/>
<path d="M32.6797 202.691C31.8108 201.866 30.6197 201.425 29.5264 200.957C28.1051 200.354 26.6608 199.679 25.7746 198.391C25.0381 197.32 24.9 196.026 25.3315 194.821C25.5445 194.235 25.8609 193.694 26.2522 193.209C28.3525 192.685 30.5334 192.701 32.5934 193.722C34.1068 194.475 35.7697 195.474 36.7595 196.84C36.9781 197.141 36.6156 197.454 36.3106 197.404C35.1253 197.208 35.0274 198.787 34.9814 199.529C34.9296 200.298 34.8548 201.074 34.7455 201.838C34.5441 203.204 34.2218 204.554 33.704 205.843C33.7845 204.683 33.5716 203.545 32.6797 202.691Z" fill="#E9B722"/>
<path d="M29.889 195.133C29.8947 195.044 29.912 194.96 29.9465 194.877C30.0961 194.442 30.5219 194.129 30.988 194.023C32.4496 193.689 33.5487 195.083 33.9745 196.249C34.1701 196.79 34.2449 197.459 33.8421 197.883C33.5774 198.157 33.1631 198.257 32.7776 198.212C32.3921 198.168 32.0411 197.989 31.7188 197.783C31.1607 197.42 30.6773 196.946 30.309 196.405C30.0501 196.026 29.8429 195.568 29.889 195.133Z" fill="#472B20"/>
<path d="M17.9086 201.62C20.6361 200.522 23.3291 199.35 26.2522 198.91C27.7368 198.687 29.5436 198.804 30.4068 200.187C31.6036 202.1 30.6254 204.582 29.5149 206.3C28.8761 207.282 28.0821 208.219 27.1096 208.905C26.1601 209.574 25.0668 210.015 23.939 210.305C21.6431 210.896 19.1803 210.935 16.844 210.556C14.5481 210.182 12.304 209.457 10.2439 208.403C8.36807 207.444 5.69235 205.915 4.65084 204.064C6.80292 204.024 8.77662 204.186 10.9345 203.74C13.3109 203.249 15.6702 202.524 17.9086 201.62Z" fill="#472B20"/>
<path d="M7.14274 204.058C8.20728 206.055 10.1234 208.018 12.2467 206.484C12.0684 207.377 13.3401 207.516 14.0823 207.438C14.7901 207.366 15.6935 207.137 16.338 206.674C16.3323 206.774 16.3438 206.875 16.384 206.975C16.5221 207.354 16.9537 207.577 17.3508 207.572C18.306 207.561 19.1979 206.864 19.9804 206.362C19.8423 206.891 19.7042 207.756 20.389 207.862C20.717 207.912 21.0622 207.801 21.3902 207.622C21.3212 207.695 21.2579 207.762 21.1946 207.834C21.0277 208.029 20.7803 208.33 20.8896 208.609C20.9989 208.883 21.373 208.938 21.6262 208.972C22.1613 209.039 22.6964 208.966 23.2086 208.805C24.3652 208.448 26.1835 207.912 27.1445 207.215C28.0766 206.54 28.2205 205.709 29.1412 205.017C29.6993 204.605 30.269 204.153 30.7466 203.628C30.4877 204.593 30.0101 205.519 29.5095 206.295C28.8707 207.276 28.0766 208.213 27.1042 208.899C26.1547 209.569 25.0614 210.009 23.9336 210.299C21.6377 210.891 19.1748 210.93 16.8386 210.55C14.5427 210.177 12.2985 209.452 10.2385 208.397C8.36264 207.438 5.68692 205.91 4.64541 204.058C5.50854 204.047 6.32564 204.063 7.14274 204.058Z" fill="#EB5803"/>
<path d="M35.8619 195.842C35.9655 195.942 37.8068 196.801 39.1188 197.85C40.143 198.67 40.2236 199.35 40.2236 199.35C40.2236 199.35 38.4513 198.53 37.1796 198.82C35.9079 199.11 34.9757 199.523 34.9757 199.523C34.9757 199.523 34.3197 198.134 34.9757 197.682C35.6317 197.236 35.8619 195.842 35.8619 195.842Z" fill="#E2DAE4"/>
<path d="M34.9757 197.682C35.0218 197.655 35.062 197.621 35.1023 197.582C35.7238 197.56 36.351 197.56 36.9667 197.616C38.2211 197.727 39.2741 198.452 40.1373 199.3C40.1603 199.322 40.1948 199.328 40.2178 199.317C40.2236 199.339 40.2236 199.35 40.2236 199.35C40.2236 199.35 38.4513 198.53 37.1796 198.82C35.9079 199.11 34.9757 199.523 34.9757 199.523C34.9757 199.523 34.3197 198.134 34.9757 197.682Z" fill="#ECECEE"/>
<path d="M33.0481 195.836C33.0654 196.104 32.7604 196.26 32.5245 196.165C32.3231 196.082 32.2483 195.881 32.254 195.68C32.2598 195.596 32.2885 195.507 32.3518 195.446C32.4151 195.39 32.5072 195.34 32.5935 195.351C32.7086 195.362 32.8179 195.39 32.8985 195.474C32.956 195.535 33.0136 195.613 33.0251 195.697C33.0366 195.792 33.0366 195.87 32.9906 195.959C32.9388 196.054 32.8409 196.104 32.7374 196.121C32.5302 196.149 32.3461 195.992 32.3403 195.792C32.3403 195.786 32.3403 195.78 32.3403 195.775C32.3461 195.803 32.3461 195.836 32.3518 195.864C32.3518 195.853 32.3461 195.847 32.3461 195.836C32.3576 195.864 32.3691 195.892 32.3806 195.914C32.3633 195.886 32.3749 195.898 32.4094 195.948C32.4612 195.981 32.4727 195.992 32.4439 195.976C32.4727 195.987 32.4957 195.998 32.5245 196.009C32.513 196.004 32.5072 196.004 32.4957 195.998C32.6338 195.92 32.7719 195.847 32.91 195.769C32.91 195.78 32.9042 195.792 32.9042 195.803C32.91 195.775 32.91 195.747 32.9157 195.713C32.91 195.741 32.91 195.764 32.9157 195.792C32.91 195.764 32.91 195.736 32.9042 195.708C32.9042 195.725 32.9215 195.764 32.8985 195.713C32.8755 195.658 32.8064 195.596 32.7431 195.58C32.7144 195.574 32.6856 195.574 32.6568 195.568C32.6626 195.568 32.6741 195.568 32.6798 195.568C32.6511 195.574 32.6223 195.574 32.5935 195.58C32.6223 195.574 32.6856 195.563 32.7028 195.563C32.7086 195.563 32.7086 195.563 32.7144 195.563C32.6741 195.563 32.6338 195.574 32.5993 195.596C32.8179 195.496 33.0308 195.613 33.0481 195.836Z" fill="#ECECEE"/>
</g>
</g>
<defs>
<filter id="filter0_d" x="0" y="0.0637207" width="167.725" height="273.313" filterUnits="userSpaceOnUse" color-interpolation-filters="sRGB">
<feFlood flood-opacity="0" result="BackgroundImageFix"/>
<feColorMatrix in="SourceAlpha" type="matrix" values="0 0 0 0 0 0 0 0 0 0 0 0 0 0 0 0 0 0 127 0"/>
<feOffset dy="4"/>
<feGaussianBlur stdDeviation="2"/>
<feColorMatrix type="matrix" values="0 0 0 0 0 0 0 0 0 0 0 0 0 0 0 0 0 0 0.25 0"/>
<feBlend mode="normal" in2="BackgroundImageFix" result="effect1_dropShadow"/>
<feBlend mode="normal" in="SourceGraphic" in2="effect1_dropShadow" result="shape"/>
</filter>
<clipPath id="clip0">
<rect width="159.725" height="265.313" fill="white" transform="translate(4 0.0637207)"/>
</clipPath>
<clipPath id="clip1">
<rect width="37.9319" height="26.7901" fill="white" transform="matrix(-1 0 0 1 40.2236 192.863)"/>
</clipPath>
</defs>
</svg>
