<svg width="953" height="667" viewBox="0 0 953 667" fill="none" xmlns="http://www.w3.org/2000/svg">
<path d="M384.775 612.763C486.179 633.384 590.769 651.451 690.201 615.464C717.525 605.576 751.153 602.434 775.393 587.278C801.63 570.872 823.737 547.675 840.219 521.142C872.016 469.974 888.491 401.627 887.882 340.91C887.88 340.828 887.879 340.747 887.88 340.661C887.474 306.366 874.047 273.6 858.437 243.208C842.664 212.495 823.601 182.225 795.534 162.834C750.805 131.937 697.449 137.977 647.886 124.438C600.261 111.427 570.522 72.057 528.426 48.5893C473.873 18.1811 407.874 24.7471 351.854 44.4908C295.531 64.3387 243.677 86.9342 212.335 142.789C188.416 185.417 183 234.88 158.18 277.094C136.819 313.424 101.739 343.219 86.9773 382.06C66.2861 436.507 89.9056 495.476 116.54 547.244C119.743 553.47 123.117 559.832 128.644 564.541C145.767 579.124 155.969 591.404 180.348 593.092C214.206 595.437 248.243 591.903 282.091 594.409C316.758 596.976 350.663 605.825 384.775 612.763Z" fill="#CDEFFE" fill-opacity="0.7"/>
<g opacity="0.8">
<path d="M421.692 21.9136C431.564 13.2041 445.555 4.02432 456.74 10.9725C461.746 14.0801 464.528 19.7097 468.706 23.8685C484.292 39.374 515.717 31.9647 527.309 50.6331C527.715 42.2695 539.936 39.1665 546.855 43.9062C553.774 48.646 556.404 57.42 558.567 65.507C581.067 65.5301 603.562 65.9819 626.043 66.8625C625.891 69.5644 625.738 72.2708 625.581 74.9726C592.451 94.8629 550.492 84.5858 512.065 80.3117C438.641 72.1371 356.827 92.1426 286.545 64.027C317.23 59.61 346.922 53.1459 377.746 55.2622C378.222 40.6788 379.059 18.9627 394.861 12.0099C399.844 9.81526 429.022 15.4356 421.692 21.9136Z" fill="white"/>
<path d="M841.395 185.614C848.906 185.932 857.031 186.079 863.178 181.764C859.633 174.207 850.524 169.716 842.352 171.496C839.459 172.128 836.634 173.456 833.681 173.207C829.831 172.884 826.748 169.993 824.16 167.125C814.357 156.267 804.142 142.126 789.518 142.896C787.045 143.025 784.475 143.597 782.155 142.73C778.883 141.504 777.293 137.912 775.883 134.726C772.412 126.888 767.272 118.838 759.055 116.348C750.837 113.859 740.044 120.83 742.157 129.134C739.684 126.856 736.462 125.399 733.116 125.053C732.866 134.247 732.617 143.44 732.367 152.634C731.928 150.186 727.889 151.182 726.779 153.409C725.67 155.635 725.573 158.554 723.544 159.997C721.455 161.486 718.589 160.527 716.149 159.73C703.863 155.714 690.543 157.198 677.708 158.725C668.126 159.868 658.54 161.007 648.959 162.15C646.597 162.432 644.101 162.768 642.248 164.248C638.449 167.282 637.45 171.003 633.156 173.566C663.301 172.506 693.857 179.389 724.182 180.667C763.256 182.317 802.326 183.963 841.395 185.614Z" fill="white"/>
<path d="M476.855 52.9246C476.356 47.4241 474.031 42.145 470.306 38.06C469.46 37.1332 468.309 36.0221 466.904 35.6578C465.721 35.3443 464.173 35.7178 463.632 36.8658L462.638 36.4001C463.456 34.6758 465.591 34.187 467.181 34.5974C468.868 35.0354 470.172 36.2849 471.119 37.3269C475.006 41.5871 477.433 47.0922 477.951 52.8278L476.855 52.9246Z" fill="#EDEDE0"/>
<path d="M524.674 69.9333L523.639 69.5737C524.656 66.669 524.129 63.1972 522.229 60.2879C520.33 57.3786 517.358 55.4929 514.284 55.2485L514.372 54.1558C517.783 54.4278 521.064 56.498 523.149 59.6931C525.234 62.8791 525.802 66.7105 524.674 69.9333Z" fill="#EDEDE0"/>
<path d="M551.972 76.2681L550.982 75.7885C553.252 71.1502 553.233 65.3962 550.941 60.7671C548.648 56.1427 544.073 52.634 539.002 51.6104L539.22 50.5361C544.618 51.6242 549.485 55.3542 551.925 60.2784C554.37 65.2025 554.384 71.3301 551.972 76.2681Z" fill="#EDEDE0"/>
<path d="M732.871 176.715L731.785 176.572C732.575 170.643 728.124 164.34 722.259 163.086L722.49 162.017C728.993 163.404 733.749 170.136 732.871 176.715Z" fill="#EDEDE0"/>
<path d="M740.313 161.265L739.222 161.159C739.763 155.566 736.643 149.863 731.633 147.295L732.132 146.322C737.53 149.093 740.895 155.234 740.313 161.265Z" fill="#EDEDE0"/>
<path d="M756.665 147.429C756.295 141.167 755.02 136.626 752.653 133.14C750.134 129.433 745.286 126.141 740.132 127.147L739.92 126.072C745.568 124.961 750.841 128.52 753.559 132.527C756.041 136.183 757.377 140.9 757.76 147.369L756.665 147.429Z" fill="#EDEDE0"/>
<path d="M799.89 173.792L798.966 173.202C801.628 169.048 801.189 163.114 797.944 159.398C794.704 155.682 788.871 154.423 784.383 156.475L783.925 155.479C788.843 153.229 795.226 154.608 798.776 158.679C802.321 162.75 802.802 169.246 799.89 173.792Z" fill="#EDEDE0"/>
<path d="M774.617 171.302L773.521 171.21C773.711 169.006 772.657 166.719 770.716 165.092C768.77 163.469 766.33 162.837 764.185 163.414L763.903 162.358C766.39 161.694 769.205 162.404 771.423 164.257C773.642 166.106 774.839 168.743 774.617 171.302Z" fill="#EDEDE0"/>
<path d="M701.377 169.744L700.281 169.698C700.3 169.209 699.879 168.845 699.514 168.684C699.149 168.522 698.599 168.458 698.248 168.808L697.471 168.033C698.081 167.425 699.057 167.291 699.953 167.683C700.85 168.075 701.409 168.886 701.377 169.744Z" fill="#EDEDE0"/>
</g>
<g opacity="0.8">
<path d="M930.459 316.456C937.97 316.774 946.095 316.921 952.242 312.606C948.697 305.049 939.587 300.558 931.416 302.338C928.522 302.969 925.698 304.297 922.745 304.048C918.895 303.726 915.812 300.835 913.223 297.967C903.42 287.109 893.206 272.968 878.582 273.738C876.109 273.867 873.539 274.439 871.219 273.572C867.947 272.346 866.357 268.754 864.947 265.568C861.476 257.73 856.336 249.68 848.118 247.19C839.9 244.7 829.108 251.672 831.22 259.975C828.748 257.698 825.526 256.241 822.18 255.895C821.93 265.089 821.681 274.282 821.431 283.476C820.992 281.028 816.952 282.023 815.843 284.25C814.734 286.477 814.637 289.396 812.608 290.839C810.518 292.328 807.653 291.369 805.212 290.572C792.927 286.556 779.607 288.04 766.771 289.566C757.19 290.71 747.604 291.849 738.023 292.992C735.661 293.273 733.165 293.61 731.312 295.09C727.512 298.124 726.514 301.844 722.22 304.408C752.365 303.348 782.921 310.231 813.245 311.508C852.32 313.159 891.389 314.805 930.459 316.456Z" fill="white"/>
<path d="M821.935 307.557L820.849 307.414C821.639 301.485 817.188 295.182 811.323 293.928L811.554 292.859C818.057 294.246 822.813 300.978 821.935 307.557Z" fill="#EDEDE0"/>
<path d="M829.376 292.107L828.286 292.001C828.826 286.408 825.707 280.705 820.696 278.137L821.196 277.164C826.594 279.935 829.959 286.076 829.376 292.107Z" fill="#EDEDE0"/>
<path d="M845.729 278.27C845.359 272.009 844.083 267.468 841.717 263.982C839.198 260.275 834.35 256.983 829.196 257.988L828.983 256.914C834.632 255.803 839.905 259.362 842.623 263.369C845.105 267.025 846.441 271.742 846.824 278.21L845.729 278.27Z" fill="#EDEDE0"/>
<path d="M888.954 304.634L888.029 304.044C890.692 299.89 890.253 293.956 887.008 290.24C883.768 286.524 877.935 285.265 873.447 287.317L872.989 286.321C877.907 284.071 884.29 285.449 887.84 289.52C891.385 293.592 891.866 300.088 888.954 304.634Z" fill="#EDEDE0"/>
<path d="M863.681 302.144L862.585 302.052C862.775 299.848 861.721 297.561 859.78 295.934C857.834 294.311 855.394 293.679 853.249 294.255L852.967 293.2C855.454 292.536 858.268 293.246 860.487 295.099C862.706 296.948 863.903 299.585 863.681 302.144Z" fill="#EDEDE0"/>
<path d="M790.441 300.586L789.345 300.54C789.364 300.051 788.943 299.687 788.578 299.525C788.213 299.364 787.663 299.299 787.312 299.65L786.535 298.875C787.145 298.267 788.12 298.133 789.017 298.525C789.914 298.917 790.473 299.728 790.441 300.586Z" fill="#EDEDE0"/>
</g>
<g opacity="0.8">
<path d="M190.594 383.381C197.468 383.672 204.905 383.807 210.531 379.858C207.287 372.941 198.949 368.831 191.469 370.46C188.821 371.038 186.236 372.253 183.533 372.025C180.009 371.73 177.188 369.084 174.819 366.459C165.846 356.521 156.497 343.579 143.112 344.283C140.849 344.402 138.497 344.925 136.373 344.131C133.378 343.009 131.923 339.722 130.633 336.806C127.456 329.632 122.752 322.264 115.23 319.985C107.709 317.706 97.8308 324.087 99.7641 331.687C97.5008 329.602 94.5523 328.269 91.4895 327.952C91.2611 336.367 91.0327 344.781 90.8042 353.196C90.4024 350.955 86.705 351.867 85.6897 353.905C84.6744 355.943 84.5856 358.614 82.7285 359.935C80.8164 361.298 78.1936 360.42 75.9599 359.69C64.7157 356.015 52.5239 357.374 40.7762 358.771C32.0068 359.817 23.233 360.859 14.4635 361.906C12.3018 362.163 10.0174 362.471 8.32104 363.826C4.8437 366.603 3.92998 370.008 0 372.355C27.5903 371.384 55.557 377.684 83.3123 378.853C119.076 380.364 154.835 381.871 190.594 383.381Z" fill="white"/>
<path d="M104.955 378.615L103.961 378.485C104.684 373.058 100.61 367.289 95.2422 366.141L95.4537 365.162C101.406 366.432 105.759 372.593 104.955 378.615Z" fill="#EDEDE0"/>
<path d="M113.187 361.921L112.188 361.824C112.683 356.706 109.828 351.486 105.242 349.135L105.699 348.245C110.64 350.781 113.72 356.402 113.187 361.921Z" fill="#EDEDE0"/>
<path d="M131.569 354.048C131.23 348.317 130.063 344.161 127.897 340.97C125.591 337.578 121.154 334.565 116.437 335.485L116.242 334.501C121.412 333.484 126.239 336.742 128.726 340.409C130.998 343.756 132.22 348.073 132.571 353.993L131.569 354.048Z" fill="#EDEDE0"/>
<path d="M152.606 372.561L151.759 372.021C154.196 368.219 153.794 362.788 150.825 359.387C147.859 355.986 142.52 354.833 138.413 356.711L137.994 355.8C142.495 353.741 148.337 355.002 151.586 358.728C154.831 362.455 155.271 368.401 152.606 372.561Z" fill="#EDEDE0"/>
<path d="M129.474 370.283L128.471 370.198C128.645 368.181 127.68 366.088 125.903 364.598C124.123 363.113 121.889 362.535 119.926 363.062L119.668 362.096C121.944 361.488 124.52 362.138 126.551 363.834C128.581 365.527 129.677 367.94 129.474 370.283Z" fill="#EDEDE0"/>
<path d="M62.4397 368.856L61.4371 368.814C61.454 368.367 61.069 368.033 60.7348 367.886C60.4006 367.738 59.8972 367.679 59.5757 368L58.865 367.291C59.4234 366.734 60.316 366.611 61.1367 366.97C61.9574 367.329 62.4693 368.071 62.4397 368.856Z" fill="#EDEDE0"/>
</g>
<g opacity="0.8">
<path d="M328.807 525.807C335.682 526.098 343.119 526.233 348.745 522.283C345.5 515.366 337.162 511.256 329.683 512.885C327.035 513.463 324.45 514.679 321.747 514.451C318.223 514.155 315.401 511.509 313.032 508.885C304.06 498.947 294.711 486.004 281.326 486.709C279.063 486.827 276.711 487.35 274.587 486.557C271.592 485.434 270.137 482.147 268.846 479.231C265.669 472.057 260.965 464.689 253.444 462.41C245.922 460.131 236.044 466.512 237.978 474.112C235.714 472.027 232.766 470.694 229.703 470.377C229.475 478.792 229.246 487.207 229.018 495.621C228.616 493.38 224.919 494.292 223.903 496.33C222.888 498.368 222.799 501.04 220.942 502.36C219.03 503.724 216.407 502.846 214.174 502.116C202.929 498.44 190.738 499.799 178.99 501.196C170.22 502.242 161.447 503.285 152.677 504.331C150.515 504.589 148.231 504.897 146.535 506.251C143.057 509.028 142.144 512.433 138.214 514.78C165.804 513.809 193.771 520.11 221.526 521.279C257.289 522.789 293.048 524.296 328.807 525.807Z" fill="white"/>
<path d="M229.479 517.662L228.485 517.531C229.208 512.105 225.134 506.336 219.766 505.188L219.978 504.209C225.93 505.479 230.283 511.64 229.479 517.662Z" fill="#EDEDE0"/>
<path d="M236.29 503.521L235.292 503.424C235.787 498.305 232.931 493.085 228.345 490.735L228.802 489.844C233.743 492.38 236.823 498.001 236.29 503.521Z" fill="#EDEDE0"/>
<path d="M251.257 490.857C250.918 485.126 249.751 480.97 247.585 477.779C245.279 474.386 240.842 471.373 236.125 472.293L235.93 471.31C241.1 470.293 245.927 473.551 248.414 477.218C250.686 480.564 251.908 484.881 252.259 490.802L251.257 490.857Z" fill="#EDEDE0"/>
<path d="M290.819 514.987L289.973 514.447C292.41 510.644 292.008 505.213 289.038 501.812C286.073 498.411 280.734 497.259 276.626 499.137L276.207 498.225C280.709 496.166 286.551 497.428 289.8 501.154C293.044 504.88 293.484 510.826 290.819 514.987Z" fill="#EDEDE0"/>
<path d="M267.687 512.708L266.685 512.624C266.858 510.607 265.894 508.513 264.117 507.024C262.336 505.538 260.103 504.96 258.14 505.488L257.882 504.521C260.158 503.914 262.734 504.564 264.764 506.26C266.795 507.952 267.89 510.366 267.687 512.708Z" fill="#EDEDE0"/>
<path d="M200.653 511.282L199.651 511.24C199.668 510.792 199.283 510.459 198.948 510.311C198.614 510.163 198.111 510.104 197.789 510.425L197.079 509.716C197.637 509.159 198.53 509.037 199.35 509.395C200.171 509.754 200.683 510.497 200.653 511.282Z" fill="#EDEDE0"/>
</g>
</svg>
