<svg width="385" height="290" viewBox="0 0 385 290" fill="none" xmlns="http://www.w3.org/2000/svg">
<g clip-path="url(#clip0)" filter="url(#filter0_d)">
<path d="M203.801 268.595C165.627 278.604 126.172 287.737 87.3169 276.658C76.6396 273.614 63.7275 273.223 54.0936 268.15C43.666 262.658 34.6426 254.546 27.6811 245.064C14.252 226.778 6.23477 201.753 4.92997 179.169C4.92854 179.138 4.9271 179.108 4.92434 179.076C4.21106 166.318 8.50536 153.828 13.6929 142.17C18.9344 130.388 25.4427 118.695 35.6624 110.839C51.9491 98.3196 72.4628 99.3316 91.0337 93.1534C108.878 87.2163 119.23 71.894 134.7 62.1975C154.748 49.6332 180.1 50.5485 201.977 56.5929C223.973 62.6691 244.333 69.8699 257.707 89.908C267.914 105.201 271.233 123.463 281.773 138.581C290.845 151.592 304.986 161.857 311.602 175.954C320.876 195.715 313.356 218.181 304.502 238.04C303.438 240.429 302.311 242.871 300.321 244.75C294.156 250.566 290.574 255.367 281.313 256.558C268.452 258.212 255.374 257.685 242.521 259.399C229.357 261.154 216.643 265.228 203.801 268.595Z" fill="#0BCAA8"/>
<path d="M186.63 156.547C185.549 164.091 190.58 170.931 197.867 171.828C205.153 172.725 211.936 167.338 213.014 159.801C214.094 152.257 209.063 145.418 201.777 144.52C194.491 143.623 187.708 149.01 186.63 156.547Z" fill="#FFE8BF"/>
<path d="M206.577 161.199C206.002 165.235 202.371 168.112 198.473 167.631C194.576 167.15 191.881 163.492 192.462 159.459L206.577 161.199Z" fill="#5BB0A1"/>
<path d="M239.789 165.018L249.41 158.63L254.712 165.202L264.408 159.234L270.491 164.758L278.311 161.227L279.442 164.491L268.984 169.213L263.217 163.98L253.131 170.183L247.92 163.727L239.199 169.514L239.789 165.018Z" fill="#9BC1F9"/>
<path d="M162.526 131.213C160.377 135.657 162.599 141.294 166.544 143.659C170.627 146.105 175.649 144.621 178.736 141.005C184.828 133.876 178.579 124.078 171.968 127.288C165.793 130.283 164.571 137.736 169.332 139.538C171.128 140.216 174.61 139.747 174.313 137.057C174.248 136.454 173.509 136.216 173.065 136.586C172.102 137.386 172.131 137.444 171.775 137.566C171.21 137.762 170.573 137.657 170.039 137.443C165.225 135.528 172.795 125.251 177.458 130.189C180.018 132.903 179.543 136.949 177.236 139.767C175.009 142.48 171.289 143.83 168.115 142.381C164.328 140.66 162.468 135.721 163.717 131.657C163.968 130.845 162.898 130.453 162.526 131.213Z" fill="#357A89"/>
</g>
<defs>
<filter id="filter0_d" x="-1.64734" y="0.506592" width="390.295" height="289.213" filterUnits="userSpaceOnUse" color-interpolation-filters="sRGB">
<feFlood flood-opacity="0" result="BackgroundImageFix"/>
<feColorMatrix in="SourceAlpha" type="matrix" values="0 0 0 0 0 0 0 0 0 0 0 0 0 0 0 0 0 0 127 0"/>
<feOffset dy="4"/>
<feGaussianBlur stdDeviation="2"/>
<feColorMatrix type="matrix" values="0 0 0 0 0 0 0 0 0 0 0 0 0 0 0 0 0 0 0.25 0"/>
<feBlend mode="normal" in2="BackgroundImageFix" result="effect1_dropShadow"/>
<feBlend mode="normal" in="SourceGraphic" in2="effect1_dropShadow" result="shape"/>
</filter>
<clipPath id="clip0">
<rect width="381.291" height="281.215" fill="white" transform="matrix(1 0 0.00357045 0.999994 2.35266 0.506592)"/>
</clipPath>
</defs>
</svg>
